<?xml version="1.0" encoding="utf-8"?>
<!-- Generator: Adobe Illustrator 21.0.2, SVG Export Plug-In . SVG Version: 6.00 Build 0)  -->
<svg version="1.1" id="Layer_1" xmlns="http://www.w3.org/2000/svg" xmlns:xlink="http://www.w3.org/1999/xlink" x="0px" y="0px"
	 width="860px" height="841.9px" viewBox="0 0 860 841.9" style="enable-background:new 0 0 860 841.9;" xml:space="preserve">
<style type="text/css">
	.st0{fill:#FFFFFF;}
	.st1{fill:none;stroke:#F2AE45;stroke-width:3;stroke-miterlimit:10;}
	.st2{fill:#F2AE45;}
	.st3{fill:none;stroke:#F2AE45;stroke-width:2.3026;stroke-miterlimit:10;}
	.st4{fill:none;stroke:#9DDB53;stroke-width:3;stroke-miterlimit:10;}
	.st5{fill:#9DDB53;}
	.st6{fill:none;stroke:#33A8F5;stroke-width:3;stroke-miterlimit:10;}
	.st7{fill:#33A8F5;}
	.st8{fill:#009999;}
	.st9{fill:none;stroke:#009999;stroke-width:3;stroke-miterlimit:10;}
	.st10{fill:#8484EF;}
	.st11{fill:none;stroke:#8484EF;stroke-width:3;stroke-miterlimit:10;}
	.st12{fill:none;stroke:#33A8F5;stroke-width:1.6094;stroke-miterlimit:10;}
	.st13{fill:none;stroke:#8484EF;stroke-width:2.7726;stroke-miterlimit:10;}
	.st14{fill:none;stroke:#9DDB53;stroke-width:2.3979;stroke-miterlimit:10;}
	.st15{fill:none;stroke:#009999;stroke-width:2.4849;stroke-miterlimit:10;}
	.st16{fill:none;stroke:#000000;stroke-width:3;stroke-miterlimit:10;}
	.st17{fill:none;}
	.st18{fill:#009999;fill-opacity:0.2588;}
	.st19{fill:none;stroke:#B8DAE0;stroke-width:1.0986;stroke-miterlimit:10;}
	
		.st20{fill:none;stroke:#009999;stroke-width:1.0986;stroke-linejoin:bevel;stroke-miterlimit:10;stroke-opacity:0.2588;stroke-dasharray:5,3;}
	.st21{fill:#D0D0D0;}
	.st22{fill:none;stroke:#B8DAE0;stroke-width:2.0794;stroke-miterlimit:10;}
	
		.st23{fill:none;stroke:#009999;stroke-width:2.0794;stroke-linejoin:bevel;stroke-miterlimit:10;stroke-opacity:0.2588;stroke-dasharray:5,3;}
	.st24{fill:none;stroke:#B8DAE0;stroke-width:2.3026;stroke-miterlimit:10;}
	.st25{fill:none;stroke:#B8DAE0;stroke-width:2.303;stroke-linejoin:bevel;stroke-miterlimit:10;stroke-dasharray:5,3;}
	.st26{fill:#C1C1FF;}
	.st27{fill:none;stroke:#C1C1FF;stroke-miterlimit:10;}
	.st28{fill:none;stroke:#C1C1FF;stroke-linejoin:bevel;stroke-miterlimit:10;stroke-dasharray:5,3;}
	.st29{fill:none;stroke:#C1C1FF;stroke-width:2.3026;stroke-miterlimit:10;}
	.st30{fill:none;stroke:#C1C1FF;stroke-width:2.3026;stroke-linejoin:bevel;stroke-miterlimit:10;stroke-dasharray:5,3;}
	.st31{fill:none;stroke:#F2AE45;stroke-width:0.3;stroke-miterlimit:10;}
	.st32{fill:none;stroke:#F2AE45;stroke-width:1.0986;stroke-miterlimit:10;}
	.st33{fill:none;stroke:#9DDB53;stroke-width:0.6931;stroke-miterlimit:10;}
	.st34{fill:#76AF31;}
	.st35{fill:none;stroke:#9DDB53;stroke-width:0.3;stroke-miterlimit:10;}
	.st36{fill:none;stroke:#9DDB53;stroke-width:1.0986;stroke-miterlimit:10;}
	.st37{fill:none;stroke:#33A8F5;stroke-width:0.3;stroke-miterlimit:10;}
	.st38{fill:#4C4C4C;}
	.st39{fill:none;stroke:#4C4C4C;stroke-width:2.7726;stroke-miterlimit:10;}
	.st40{fill:#EEEEEE;}
	.st41{fill:none;stroke:#EEEEEE;stroke-width:2.3026;stroke-miterlimit:10;}
	.st42{fill:none;stroke:#EEEEEE;stroke-miterlimit:10;}
	.st43{fill:none;stroke:#4C4C4C;stroke-width:2.4849;stroke-miterlimit:10;}
	.st44{fill:#FFC63B;}
	.st45{fill:none;stroke:#EEEEEE;stroke-width:2.0794;stroke-miterlimit:10;}
	.st46{fill:#C1F780;}
	.st47{fill:none;stroke:#EEEEEE;stroke-width:1.0986;stroke-miterlimit:10;}
	.st48{fill:none;stroke:#000000;stroke-miterlimit:10;stroke-opacity:0;}
	.st49{fill:#FC938D;}
	.st50{fill:#0877C0;}
	.st51{fill:none;stroke:#4C4C4C;stroke-width:3;stroke-miterlimit:10;}
	.st52{fill:none;stroke:#8484EF;stroke-miterlimit:10;}
	.st53{fill:none;stroke:#009999;stroke-width:1.0986;stroke-miterlimit:10;}
	.st54{fill:none;stroke:#009999;stroke-width:2.3026;stroke-miterlimit:10;}
	.st55{fill:none;stroke:#8484EF;stroke-width:2.3026;stroke-miterlimit:10;}
	.st56{fill:none;stroke:#009999;stroke-width:2.0794;stroke-miterlimit:10;}
	.st57{fill:none;stroke:#9DDB53;stroke-width:6;stroke-miterlimit:10;}
	.st58{fill:none;stroke:#F2AE45;stroke-width:6;stroke-miterlimit:10;}
	.st59{fill:#4C4C4C;stroke:#4C4C4C;stroke-miterlimit:10;}
</style>
<g>
	<g>
		<line class="st52" x1="419.3" y1="609.8" x2="286.5" y2="556.7"/>
		<line class="st53" x1="486.4" y1="245" x2="270.2" y2="500.7"/>
		<line class="st54" x1="451.1" y1="245" x2="238.7" y2="393.3"/>
		<line class="st55" x1="447.2" y1="597" x2="238.7" y2="458.1"/>
		<line class="st52" x1="485" y1="597" x2="266.4" y2="346"/>
		<line class="st56" x1="419.3" y1="233.9" x2="282.8" y2="290.5"/>
		<rect x="191.4" y="500.7" class="st7" width="95.1" height="73.9"/>
		<rect x="191.4" y="500.7" class="st6" width="95.1" height="73.9"/>
		<path class="st0" d="M222.5,546.7v-15h3l6.2,10v-10h2.8v15h-3l-6.1-9.8v9.8H222.5z M239.7,546.7l-3.6-15h3.1l2.3,10.3l2.8-10.3
			h3.6l2.6,10.5l2.3-10.5h3l-3.6,15H249l-3-11.2l-3,11.2H239.7z"/>
		<rect x="419.3" y="125.1" class="st0" width="235.6" height="119.9"/>
		<rect x="419.3" y="125.1" class="st9" width="235.6" height="119.9"/>
		<path class="st8" d="M499.6,179h6c1.2,0,2.1,0,2.7,0.1c0.6,0.1,1.1,0.3,1.6,0.6c0.5,0.3,0.8,0.7,1.2,1.3c0.3,0.5,0.5,1.1,0.5,1.8
			c0,0.7-0.2,1.4-0.6,1.9c-0.4,0.6-0.9,1-1.5,1.3c0.9,0.3,1.6,0.7,2.1,1.4c0.5,0.6,0.7,1.4,0.7,2.3c0,0.7-0.2,1.4-0.5,2
			c-0.3,0.6-0.7,1.2-1.3,1.5c-0.5,0.4-1.2,0.6-2,0.7c-0.5,0.1-1.7,0.1-3.7,0.1h-5.1V179z M502.7,181.5v3.5h2c1.2,0,1.9,0,2.2-0.1
			c0.5-0.1,0.9-0.2,1.2-0.5c0.3-0.3,0.4-0.7,0.4-1.2c0-0.5-0.1-0.8-0.4-1.1c-0.3-0.3-0.6-0.5-1.1-0.5c-0.3,0-1.2,0-2.6,0H502.7z
			 M502.7,187.5v4h2.8c1.1,0,1.8,0,2.1-0.1c0.4-0.1,0.8-0.3,1.1-0.6c0.3-0.3,0.4-0.7,0.4-1.3c0-0.4-0.1-0.8-0.3-1.1
			c-0.2-0.3-0.5-0.5-1-0.7c-0.4-0.1-1.3-0.2-2.7-0.2H502.7z M521.1,190.6l2.9,0.5c-0.4,1.1-1,1.9-1.8,2.4c-0.8,0.6-1.8,0.8-3,0.8
			c-1.9,0-3.3-0.6-4.2-1.9c-0.7-1-1.1-2.2-1.1-3.8c0-1.8,0.5-3.2,1.4-4.2c0.9-1,2.1-1.5,3.6-1.5c1.6,0,2.9,0.5,3.8,1.6
			c0.9,1.1,1.4,2.7,1.3,4.9h-7.2c0,0.9,0.3,1.5,0.7,2c0.4,0.5,1,0.7,1.7,0.7c0.4,0,0.8-0.1,1.1-0.4
			C520.7,191.5,520.9,191.1,521.1,190.6z M521.2,187.7c0-0.8-0.2-1.5-0.6-1.9c-0.4-0.4-0.9-0.7-1.5-0.7c-0.6,0-1.1,0.2-1.5,0.7
			c-0.4,0.5-0.6,1.1-0.6,1.9H521.2z M528.6,186.5L526,186c0.3-1.1,0.8-1.8,1.5-2.3c0.7-0.5,1.8-0.8,3.2-0.8c1.3,0,2.2,0.2,2.9,0.5
			c0.6,0.3,1.1,0.7,1.3,1.2c0.3,0.5,0.4,1.3,0.4,2.6l0,3.4c0,1,0,1.7,0.1,2.1c0.1,0.5,0.3,0.9,0.5,1.5H533c-0.1-0.2-0.2-0.5-0.3-0.8
			c-0.1-0.2-0.1-0.3-0.1-0.3c-0.5,0.5-1,0.8-1.6,1.1c-0.6,0.2-1.2,0.4-1.8,0.4c-1.1,0-2-0.3-2.7-0.9c-0.6-0.6-1-1.4-1-2.3
			c0-0.6,0.1-1.2,0.4-1.6c0.3-0.5,0.7-0.9,1.2-1.1c0.5-0.3,1.3-0.5,2.3-0.7c1.3-0.3,2.3-0.5,2.8-0.7v-0.3c0-0.6-0.1-0.9-0.4-1.2
			c-0.3-0.2-0.8-0.4-1.5-0.4c-0.5,0-0.9,0.1-1.2,0.3C529,185.6,528.8,186,528.6,186.5z M532.4,188.8c-0.4,0.1-0.9,0.3-1.8,0.4
			c-0.8,0.2-1.3,0.3-1.6,0.5c-0.4,0.3-0.6,0.6-0.6,1c0,0.4,0.2,0.7,0.5,1c0.3,0.3,0.7,0.4,1.2,0.4c0.5,0,1-0.2,1.5-0.5
			c0.3-0.3,0.6-0.6,0.7-1c0.1-0.3,0.1-0.7,0.1-1.4V188.8z M547.6,186.4l-2.8,0.5c-0.1-0.6-0.3-1-0.6-1.3c-0.3-0.3-0.8-0.4-1.3-0.4
			c-0.7,0-1.3,0.2-1.7,0.7c-0.4,0.5-0.6,1.3-0.6,2.5c0,1.3,0.2,2.2,0.7,2.7c0.4,0.5,1,0.8,1.8,0.8c0.6,0,1-0.2,1.3-0.5
			c0.3-0.3,0.6-0.8,0.7-1.6l2.8,0.5c-0.3,1.3-0.9,2.3-1.7,2.9s-2,1-3.4,1c-1.6,0-2.8-0.5-3.8-1.5s-1.4-2.4-1.4-4.2
			c0-1.8,0.5-3.2,1.4-4.2s2.2-1.5,3.9-1.5c1.3,0,2.4,0.3,3.2,0.9C546.7,184.3,547.3,185.2,547.6,186.4z M549.1,188.5
			c0-1,0.2-1.9,0.7-2.8c0.5-0.9,1.1-1.6,2-2.1c0.9-0.5,1.8-0.7,2.9-0.7c1.6,0,3,0.5,4,1.6c1.1,1.1,1.6,2.4,1.6,4.1
			c0,1.6-0.5,3-1.6,4.1c-1.1,1.1-2.4,1.6-4,1.6c-1,0-2-0.2-2.9-0.7c-0.9-0.5-1.6-1.1-2.1-2C549.4,190.8,549.1,189.7,549.1,188.5z
			 M552.1,188.6c0,1.1,0.3,1.9,0.8,2.5c0.5,0.6,1.1,0.9,1.9,0.9c0.8,0,1.4-0.3,1.9-0.9c0.5-0.6,0.8-1.4,0.8-2.5
			c0-1.1-0.3-1.9-0.8-2.5c-0.5-0.6-1.1-0.9-1.9-0.9c-0.8,0-1.4,0.3-1.9,0.9C552.3,186.7,552.1,187.5,552.1,188.6z M572.5,194.1h-2.9
			v-5.6c0-1.2-0.1-1.9-0.2-2.3c-0.1-0.3-0.3-0.6-0.6-0.8c-0.3-0.2-0.6-0.3-1-0.3c-0.5,0-0.9,0.1-1.3,0.4c-0.4,0.3-0.7,0.6-0.8,1.1
			c-0.1,0.5-0.2,1.3-0.2,2.5v4.9h-2.9v-10.9h2.7v1.6c1-1.2,2.2-1.8,3.6-1.8c0.6,0,1.2,0.1,1.7,0.3c0.5,0.2,0.9,0.5,1.2,0.9
			c0.3,0.4,0.5,0.8,0.6,1.2c0.1,0.4,0.2,1.1,0.2,1.9V194.1z"/>
		<rect x="419.3" y="597" class="st0" width="235.7" height="119.8"/>
		<rect x="419.3" y="597" class="st11" width="235.7" height="119.8"/>
		<path class="st10" d="M443.1,665.9v-15h10.3v2.5h-7.3v3.5h6.3v2.5h-6.3v6.4H443.1z M462.2,662.4l2.9,0.5c-0.4,1.1-1,1.9-1.8,2.4
			c-0.8,0.6-1.8,0.8-3,0.8c-1.9,0-3.3-0.6-4.2-1.9c-0.7-1-1.1-2.2-1.1-3.8c0-1.8,0.5-3.2,1.4-4.2c0.9-1,2.1-1.5,3.6-1.5
			c1.6,0,2.9,0.5,3.8,1.6c0.9,1.1,1.4,2.7,1.3,4.9H458c0,0.9,0.3,1.5,0.7,2c0.4,0.5,1,0.7,1.7,0.7c0.4,0,0.8-0.1,1.1-0.4
			C461.8,663.4,462.1,663,462.2,662.4z M462.4,659.5c0-0.8-0.2-1.5-0.6-1.9c-0.4-0.4-0.9-0.7-1.5-0.7c-0.6,0-1.1,0.2-1.5,0.7
			c-0.4,0.5-0.6,1.1-0.6,1.9H462.4z M466.6,662.8l2.9-0.4c0.1,0.6,0.4,1,0.7,1.3c0.4,0.3,0.9,0.4,1.6,0.4c0.7,0,1.3-0.1,1.7-0.4
			c0.3-0.2,0.4-0.4,0.4-0.8c0-0.2-0.1-0.4-0.2-0.5c-0.1-0.1-0.5-0.3-1-0.4c-2.3-0.5-3.8-1-4.4-1.4c-0.9-0.6-1.3-1.4-1.3-2.5
			c0-0.9,0.4-1.7,1.1-2.4c0.7-0.6,1.9-1,3.5-1c1.5,0,2.6,0.2,3.3,0.7c0.7,0.5,1.2,1.2,1.5,2.2l-2.7,0.5c-0.1-0.4-0.3-0.8-0.7-1
			c-0.3-0.2-0.8-0.3-1.4-0.3c-0.8,0-1.3,0.1-1.6,0.3c-0.2,0.2-0.3,0.4-0.3,0.6c0,0.2,0.1,0.4,0.3,0.5c0.3,0.2,1.2,0.5,2.7,0.8
			c1.5,0.3,2.6,0.8,3.2,1.3c0.6,0.5,0.9,1.2,0.9,2.1c0,1-0.4,1.9-1.3,2.6c-0.8,0.7-2.1,1.1-3.7,1.1c-1.5,0-2.7-0.3-3.5-0.9
			C467.4,664.7,466.9,663.8,466.6,662.8z M484.3,655v2.3h-2v4.4c0,0.9,0,1.4,0.1,1.5c0,0.1,0.1,0.3,0.3,0.4c0.1,0.1,0.3,0.1,0.5,0.1
			c0.3,0,0.7-0.1,1.2-0.3l0.3,2.2c-0.7,0.3-1.4,0.4-2.3,0.4c-0.5,0-1-0.1-1.4-0.3s-0.7-0.4-0.9-0.7c-0.2-0.3-0.3-0.6-0.4-1.1
			c-0.1-0.3-0.1-1-0.1-2v-4.8h-1.3V655h1.3v-2.2l2.9-1.7v3.8H484.3z M492.6,662.4l2.9,0.5c-0.4,1.1-1,1.9-1.8,2.4
			c-0.8,0.6-1.8,0.8-3,0.8c-1.9,0-3.3-0.6-4.2-1.9c-0.7-1-1.1-2.2-1.1-3.8c0-1.8,0.5-3.2,1.4-4.2c0.9-1,2.1-1.5,3.6-1.5
			c1.6,0,2.9,0.5,3.8,1.6c0.9,1.1,1.4,2.7,1.3,4.9h-7.2c0,0.9,0.3,1.5,0.7,2c0.4,0.5,1,0.7,1.7,0.7c0.4,0,0.8-0.1,1.1-0.4
			C492.2,663.4,492.4,663,492.6,662.4z M492.8,659.5c0-0.8-0.2-1.5-0.6-1.9c-0.4-0.4-0.9-0.7-1.5-0.7c-0.6,0-1.1,0.2-1.5,0.7
			c-0.4,0.5-0.6,1.1-0.6,1.9H492.8z M500.7,665.9h-2.9V655h2.7v1.5c0.5-0.7,0.9-1.2,1.2-1.4c0.4-0.2,0.8-0.4,1.3-0.4
			c0.7,0,1.3,0.2,1.9,0.5l-0.9,2.5c-0.5-0.3-0.9-0.5-1.4-0.5c-0.4,0-0.7,0.1-1,0.3c-0.3,0.2-0.5,0.6-0.7,1.2
			c-0.2,0.6-0.2,1.8-0.2,3.7V665.9z M525.5,665.9h-3.3l-1.3-3.4h-6l-1.2,3.4h-3.2l5.9-15h3.2L525.5,665.9z M520,660l-2.1-5.6l-2,5.6
			H520z M529.9,665.9H527V655h2.7v1.5c0.5-0.7,0.9-1.2,1.2-1.4c0.4-0.2,0.8-0.4,1.3-0.4c0.7,0,1.3,0.2,1.9,0.5l-0.9,2.5
			c-0.5-0.3-0.9-0.5-1.4-0.5c-0.4,0-0.7,0.1-1,0.3c-0.3,0.2-0.5,0.6-0.7,1.2c-0.2,0.6-0.2,1.8-0.2,3.7V665.9z M535.2,665.9v-15h2.9
			v5.4c0.9-1,1.9-1.5,3.2-1.5c1.3,0,2.4,0.5,3.3,1.4c0.9,1,1.3,2.3,1.3,4.1c0,1.9-0.4,3.3-1.3,4.3s-2,1.5-3.2,1.5
			c-0.6,0-1.2-0.2-1.8-0.5c-0.6-0.3-1.1-0.8-1.6-1.4v1.6H535.2z M538,660.2c0,1.1,0.2,2,0.5,2.5c0.5,0.8,1.2,1.1,2,1.1
			c0.6,0,1.2-0.3,1.6-0.8c0.4-0.5,0.7-1.4,0.7-2.6c0-1.2-0.2-2.1-0.7-2.7c-0.4-0.6-1-0.8-1.7-0.8c-0.7,0-1.3,0.3-1.7,0.8
			C538.3,658.3,538,659.1,538,660.2z M554.4,662.4l2.9,0.5c-0.4,1.1-1,1.9-1.8,2.4c-0.8,0.6-1.8,0.8-3,0.8c-1.9,0-3.3-0.6-4.2-1.9
			c-0.7-1-1.1-2.2-1.1-3.8c0-1.8,0.5-3.2,1.4-4.2c0.9-1,2.1-1.5,3.6-1.5c1.6,0,2.9,0.5,3.8,1.6c0.9,1.1,1.4,2.7,1.3,4.9h-7.2
			c0,0.9,0.3,1.5,0.7,2c0.4,0.5,1,0.7,1.7,0.7c0.4,0,0.8-0.1,1.1-0.4C554,663.4,554.3,663,554.4,662.4z M554.6,659.5
			c0-0.8-0.2-1.5-0.6-1.9c-0.4-0.4-0.9-0.7-1.5-0.7c-0.6,0-1.1,0.2-1.5,0.7c-0.4,0.5-0.6,1.1-0.6,1.9H554.6z M559.8,653.6v-2.7h2.9
			v2.7H559.8z M559.8,665.9V655h2.9v10.9H559.8z M570.6,655v2.3h-2v4.4c0,0.9,0,1.4,0.1,1.5c0,0.1,0.1,0.3,0.3,0.4
			c0.1,0.1,0.3,0.1,0.5,0.1c0.3,0,0.7-0.1,1.2-0.3l0.3,2.2c-0.7,0.3-1.4,0.4-2.3,0.4c-0.5,0-1-0.1-1.4-0.3c-0.4-0.2-0.7-0.4-0.9-0.7
			c-0.2-0.3-0.3-0.6-0.4-1.1c-0.1-0.3-0.1-1-0.1-2v-4.8h-1.3V655h1.3v-2.2l2.9-1.7v3.8H570.6z M571.6,662.8l2.9-0.4
			c0.1,0.6,0.4,1,0.7,1.3c0.4,0.3,0.9,0.4,1.6,0.4c0.7,0,1.3-0.1,1.7-0.4c0.3-0.2,0.4-0.4,0.4-0.8c0-0.2-0.1-0.4-0.2-0.5
			c-0.1-0.1-0.5-0.3-1-0.4c-2.3-0.5-3.8-1-4.4-1.4c-0.9-0.6-1.3-1.4-1.3-2.5c0-0.9,0.4-1.7,1.1-2.4s1.9-1,3.5-1
			c1.5,0,2.6,0.2,3.3,0.7c0.7,0.5,1.2,1.2,1.5,2.2l-2.7,0.5c-0.1-0.4-0.3-0.8-0.7-1c-0.3-0.2-0.8-0.3-1.4-0.3
			c-0.8,0-1.3,0.1-1.6,0.3c-0.2,0.2-0.3,0.4-0.3,0.6c0,0.2,0.1,0.4,0.3,0.5c0.3,0.2,1.2,0.5,2.7,0.8c1.5,0.3,2.6,0.8,3.2,1.3
			c0.6,0.5,0.9,1.2,0.9,2.1c0,1-0.4,1.9-1.3,2.6c-0.8,0.7-2.1,1.1-3.7,1.1c-1.5,0-2.7-0.3-3.5-0.9
			C572.5,664.7,571.9,663.8,571.6,662.8z M584.2,655h2.7v1.6c0.4-0.5,0.8-1,1.4-1.3c0.6-0.3,1.3-0.5,2-0.5c1.3,0,2.3,0.5,3.2,1.5
			c0.9,1,1.3,2.4,1.3,4.1c0,1.8-0.4,3.2-1.3,4.2c-0.9,1-2,1.5-3.2,1.5c-0.6,0-1.2-0.1-1.6-0.4c-0.5-0.2-1-0.7-1.5-1.2v5.5h-2.9V655z
			 M587.1,660.3c0,1.2,0.2,2.1,0.7,2.7c0.5,0.6,1.1,0.9,1.8,0.9c0.7,0,1.2-0.3,1.7-0.8c0.4-0.5,0.7-1.4,0.7-2.6c0-1.1-0.2-2-0.7-2.5
			c-0.5-0.6-1-0.8-1.7-0.8c-0.7,0-1.3,0.3-1.8,0.8C587.3,658.4,587.1,659.2,587.1,660.3z M597.1,665.9v-15h2.9v15H597.1z
			 M605.1,658.4l-2.6-0.5c0.3-1.1,0.8-1.8,1.5-2.3s1.8-0.8,3.2-0.8c1.3,0,2.2,0.2,2.9,0.5s1.1,0.7,1.3,1.2c0.3,0.5,0.4,1.3,0.4,2.6
			l0,3.4c0,1,0,1.7,0.1,2.1c0.1,0.5,0.3,0.9,0.5,1.5h-2.8c-0.1-0.2-0.2-0.5-0.3-0.8c-0.1-0.2-0.1-0.3-0.1-0.3
			c-0.5,0.5-1,0.8-1.6,1.1c-0.6,0.2-1.2,0.4-1.8,0.4c-1.1,0-2-0.3-2.7-0.9c-0.6-0.6-1-1.4-1-2.3c0-0.6,0.1-1.2,0.4-1.6
			c0.3-0.5,0.7-0.9,1.2-1.1c0.5-0.3,1.3-0.5,2.3-0.7c1.3-0.3,2.3-0.5,2.8-0.7v-0.3c0-0.6-0.1-0.9-0.4-1.2c-0.3-0.2-0.8-0.4-1.5-0.4
			c-0.5,0-0.9,0.1-1.2,0.3C605.5,657.5,605.3,657.8,605.1,658.4z M609,660.7c-0.4,0.1-0.9,0.3-1.8,0.4c-0.8,0.2-1.3,0.3-1.6,0.5
			c-0.4,0.3-0.6,0.6-0.6,1c0,0.4,0.2,0.7,0.5,1c0.3,0.3,0.7,0.4,1.2,0.4c0.5,0,1-0.2,1.5-0.5c0.3-0.3,0.6-0.6,0.7-1
			c0.1-0.3,0.1-0.7,0.1-1.4V660.7z M619.7,655v2.3h-2v4.4c0,0.9,0,1.4,0.1,1.5c0,0.1,0.1,0.3,0.3,0.4c0.1,0.1,0.3,0.1,0.5,0.1
			c0.3,0,0.7-0.1,1.2-0.3l0.3,2.2c-0.7,0.3-1.4,0.4-2.3,0.4c-0.5,0-1-0.1-1.4-0.3s-0.7-0.4-0.9-0.7c-0.2-0.3-0.3-0.6-0.4-1.1
			c-0.1-0.3-0.1-1-0.1-2v-4.8h-1.3V655h1.3v-2.2l2.9-1.7v3.8H619.7z M620.5,665.9v-2.3l4.1-4.7c0.7-0.8,1.2-1.3,1.5-1.6
			c-0.3,0-0.8,0-1.3,0l-3.8,0V655h9v2l-4.2,4.8l-1.5,1.6c0.8,0,1.3-0.1,1.5-0.1h4.5v2.5H620.5z"/>
		<rect x="187.7" y="274.4" class="st4" width="95.1" height="71.5"/>
		<ellipse class="st48" cx="643.1" cy="420.4" rx="73.3" ry="75.5"/>
		<rect x="143.6" y="389" class="st2" width="95.1" height="74.9"/>
		<rect x="143.6" y="389" class="st1" width="95.1" height="74.9"/>
		<rect x="346.4" y="575.7" class="st0" width="13" height="15"/>
		<path class="st10" d="M353.4,587.7V586h-3.5v-1.4l3.7-5.5h1.4v5.5h1.1v1.4H355v1.7H353.4z M353.4,584.6v-2.9l-2,2.9H353.4z"/>
		<rect x="372.3" y="365.9" class="st0" width="12" height="14"/>
		<path class="st8" d="M375.7,374.8l1.5-0.2c0,0.4,0.2,0.7,0.4,0.9c0.2,0.2,0.5,0.3,0.7,0.3c0.3,0,0.6-0.1,0.8-0.4
			c0.2-0.2,0.3-0.5,0.3-0.9c0-0.4-0.1-0.7-0.3-0.9c-0.2-0.2-0.5-0.3-0.7-0.3c-0.2,0-0.4,0-0.7,0.1l0.2-1.2c0.4,0,0.7-0.1,0.9-0.3
			c0.2-0.2,0.3-0.4,0.3-0.8c0-0.3-0.1-0.5-0.2-0.6s-0.4-0.2-0.6-0.2c-0.3,0-0.5,0.1-0.6,0.3c-0.2,0.2-0.3,0.4-0.3,0.8l-1.4-0.2
			c0.1-0.5,0.2-0.9,0.4-1.1c0.2-0.3,0.5-0.5,0.8-0.7c0.3-0.2,0.7-0.2,1.2-0.2c0.7,0,1.3,0.2,1.8,0.7c0.4,0.4,0.6,0.8,0.6,1.3
			c0,0.7-0.4,1.2-1.1,1.7c0.4,0.1,0.8,0.3,1.1,0.6c0.3,0.3,0.4,0.7,0.4,1.2c0,0.7-0.3,1.3-0.8,1.8c-0.5,0.5-1.1,0.7-1.9,0.7
			c-0.7,0-1.3-0.2-1.8-0.6C376.1,376,375.8,375.4,375.7,374.8z"/>
		<line class="st6" x1="286.5" y1="523.9" x2="572.8" y2="440.8"/>
		<g>
			<path class="st7" d="M429.5,495.6c-2.3,0-4.3-0.7-5.8-2c-1.6-1.3-2.5-3.1-2.8-5.3l-0.4-3.1l0.6-0.1l2.4-12.8h14.2v9.1H437
				c1,1.4,1.5,3.1,1.5,5.1c0,2.1-0.6,3.9-1.8,5.6C434.9,494.4,432.5,495.6,429.5,495.6z"/>
			<path class="st0" d="M434.7,475.4v3.1h-6.2l-0.5,2.9c0.7-0.4,1.5-0.5,2.3-0.5c1.5,0,2.7,0.5,3.7,1.6c1,1.1,1.5,2.4,1.5,4.1
				c0,1.4-0.4,2.7-1.2,3.8c-1.1,1.5-2.7,2.3-4.7,2.3c-1.6,0-2.9-0.4-3.9-1.3c-1-0.9-1.6-2-1.8-3.4l3.3-0.3c0.1,0.8,0.4,1.3,0.8,1.8
				c0.5,0.4,1,0.6,1.6,0.6c0.7,0,1.3-0.3,1.7-0.8c0.5-0.6,0.7-1.4,0.7-2.5c0-1.1-0.2-1.9-0.7-2.4c-0.5-0.5-1.1-0.8-1.8-0.8
				c-0.9,0-1.8,0.4-2.5,1.3l-2.7-0.4l1.7-9H434.7 M440.7,469.4h-6H426h-5l-0.9,4.9l-1.5,8.2l-1.4,0.2l0.6,4.3l-0.5,2.5l0.8,0.1
				c0.5,2.6,1.8,4.8,3.7,6.4c2.1,1.8,4.8,2.7,7.8,2.7c3.9,0,7.3-1.7,9.5-4.7c1.6-2.1,2.4-4.6,2.4-7.3c0-1.6-0.3-3.1-0.8-4.4v-3.7
				v-3.1V469.4L440.7,469.4z"/>
		</g>
		<line class="st15" x1="564.1" y1="245" x2="612.3" y2="352.1"/>
		<g>
			<path class="st8" d="M578,311v-10.2c-0.1,0-0.2,0.1-0.3,0.1l-3.9,1.3V293l2.1-0.7c0.4-0.1,1-0.4,1.9-1.1c0.6-0.4,0.9-0.9,1.1-1.4
				l0.7-2h7.8v4c0.5-0.9,1.1-1.6,1.9-2.2c1.6-1.2,3.5-1.8,5.7-1.8c2.5,0,4.5,0.7,6.1,2.2c1.6,1.5,2.4,3.4,2.4,5.6
				c0,1.1-0.2,2.3-0.6,3.3c-0.4,1-1,2-1.7,2.9c0,0-0.1,0.1-0.1,0.1h2.5v9.1H578z M587.3,303.3C587.3,303.3,587.4,303.2,587.3,303.3
				c0.7-1.2,1.9-2.6,3.6-4.2l-3.6-0.4V303.3z"/>
			<path class="st0" d="M594.9,290.8c1.7,0,3,0.5,4,1.4c1,0.9,1.5,2,1.5,3.4c0,0.8-0.1,1.5-0.4,2.2c-0.3,0.7-0.7,1.4-1.3,2.2
				c-0.4,0.5-1.1,1.2-2.2,2.2c-1,1-1.7,1.6-2,1.9c-0.3,0.3-0.5,0.6-0.7,0.9h6.5v3.1h-11.5c0.1-1.2,0.5-2.3,1.1-3.3
				c0.6-1,1.9-2.4,3.7-4.1c1.5-1.4,2.4-2.3,2.7-2.8c0.5-0.7,0.7-1.3,0.7-2c0-0.7-0.2-1.3-0.6-1.7c-0.4-0.4-0.9-0.6-1.6-0.6
				c-0.7,0-1.2,0.2-1.6,0.6c-0.4,0.4-0.6,1.1-0.7,2.1l-3.3-0.3c0.2-1.8,0.8-3.1,1.8-3.9C592.1,291.2,593.4,290.8,594.9,290.8
				 M584.3,290.8V308H581v-12.4c-1.2,1.1-2.6,2-4.3,2.5v-3c0.9-0.3,1.8-0.8,2.8-1.6c1-0.8,1.7-1.7,2.1-2.7H584.3 M594.9,284.8
				c-1.6,0-3.2,0.3-4.6,0.8v-0.8h-6h-2.7h-4.2l-1.4,3.9c0,0-0.1,0.1-0.2,0.1c-0.7,0.5-1,0.6-1,0.6l-4.1,1.4l0,4.3v3v8.3l4.3-1.4v3v6
				h6h1.1h6.7h11.5h6v-6V305v-6h-0.5c0.3-1.1,0.5-2.2,0.5-3.4c0-3-1.2-5.7-3.3-7.8C601.6,286.4,599,284.8,594.9,284.8L594.9,284.8z"
				/>
		</g>
		<rect x="335.9" y="312.1" class="st0" width="18" height="14"/>
		<path class="st8" d="M343.3,323.1h-1.5v-5.7c-0.5,0.5-1.2,0.9-1.9,1.1v-1.4c0.4-0.1,0.8-0.4,1.3-0.7c0.5-0.4,0.8-0.8,1-1.3h1.2
			V323.1z M348.1,315.2c0.8,0,1.4,0.3,1.8,0.8c0.5,0.6,0.8,1.7,0.8,3.2s-0.3,2.6-0.8,3.2c-0.4,0.5-1,0.8-1.8,0.8
			c-0.8,0-1.4-0.3-1.8-0.9c-0.5-0.6-0.7-1.6-0.7-3.2c0-1.5,0.3-2.5,0.8-3.2C346.8,315.5,347.3,315.2,348.1,315.2z M348.1,316.5
			c-0.2,0-0.3,0.1-0.5,0.2c-0.1,0.1-0.3,0.3-0.3,0.6c-0.1,0.4-0.2,1.1-0.2,2c0,0.9,0,1.6,0.1,1.9c0.1,0.3,0.2,0.6,0.4,0.7
			c0.1,0.1,0.3,0.2,0.5,0.2c0.2,0,0.4-0.1,0.5-0.2c0.1-0.1,0.3-0.3,0.3-0.6c0.1-0.4,0.2-1,0.2-2c0-0.9,0-1.5-0.1-1.9
			c-0.1-0.3-0.2-0.6-0.4-0.7C348.5,316.5,348.3,316.5,348.1,316.5z"/>
		<rect x="345" y="255.2" class="st0" width="12" height="14"/>
		<path class="st8" d="M349.9,262c-0.4-0.2-0.7-0.4-0.9-0.7s-0.3-0.6-0.3-0.9c0-0.6,0.2-1.1,0.6-1.5s1-0.6,1.8-0.6
			c0.7,0,1.3,0.2,1.7,0.6c0.4,0.4,0.6,0.9,0.6,1.5c0,0.4-0.1,0.7-0.3,1c-0.2,0.3-0.5,0.5-0.8,0.6c0.4,0.2,0.8,0.4,1,0.8
			c0.2,0.3,0.3,0.7,0.3,1.2c0,0.7-0.2,1.3-0.7,1.8c-0.5,0.5-1.1,0.7-1.9,0.7c-0.7,0-1.3-0.2-1.8-0.6c-0.6-0.4-0.8-1.1-0.8-1.8
			c0-0.4,0.1-0.8,0.3-1.2C349.1,262.4,349.4,262.1,349.9,262z M350.2,260.4c0,0.3,0.1,0.5,0.3,0.7s0.4,0.3,0.7,0.3
			c0.3,0,0.5-0.1,0.7-0.3c0.2-0.2,0.3-0.4,0.3-0.7c0-0.3-0.1-0.5-0.3-0.7c-0.2-0.2-0.4-0.3-0.7-0.3c-0.3,0-0.5,0.1-0.7,0.3
			C350.3,259.9,350.2,260.2,350.2,260.4z M350,263.8c0,0.4,0.1,0.7,0.3,1c0.2,0.2,0.5,0.3,0.8,0.3c0.3,0,0.6-0.1,0.8-0.3
			c0.2-0.2,0.3-0.5,0.3-1c0-0.4-0.1-0.7-0.3-0.9c-0.2-0.2-0.5-0.3-0.8-0.3c-0.4,0-0.7,0.1-0.8,0.4C350.1,263.2,350,263.5,350,263.8z
			"/>
		<line class="st13" x1="563.9" y1="597" x2="612.4" y2="488.8"/>
		<g>
			<path class="st10" d="M595.2,555.7c-2.6,0-4.9-1.1-6.6-3.1c-0.5-0.6-0.9-1.3-1.3-2.1v4.9H578v-10.2c-0.1,0-0.2,0.1-0.3,0.1
				l-3.9,1.3v-9.3l2.1-0.7c0.4-0.1,1-0.4,1.9-1.1c0.6-0.4,0.9-0.9,1.1-1.4l0.7-2h7.8v5.4c0.4-0.9,0.8-1.6,1.4-2.3
				c1.7-2.1,4.1-3.2,6.8-3.2c2,0,3.8,0.6,5.2,1.8c1.4,1.2,2.3,2.9,2.6,5l0.5,3.1l-1.3,0.1c0.8,1.3,1.2,2.9,1.2,4.7
				c0,2.6-0.8,4.7-2.4,6.3C599.7,554.9,597.6,555.7,595.2,555.7z"/>
			<path class="st0" d="M595.5,535.2c1.3,0,2.4,0.4,3.3,1.1c0.9,0.7,1.4,1.8,1.6,3.2l-3.2,0.3c-0.1-0.7-0.3-1.1-0.6-1.5
				c-0.3-0.3-0.8-0.5-1.3-0.5c-0.7,0-1.3,0.3-1.8,0.9c-0.5,0.6-0.8,1.9-0.9,3.9c0.8-1,1.8-1.5,3-1.5c1.4,0,2.6,0.5,3.5,1.6
				c1,1,1.5,2.4,1.5,4.1c0,1.8-0.5,3.2-1.5,4.2c-1,1.1-2.4,1.6-4,1.6c-1.7,0-3.2-0.7-4.3-2c-1.1-1.3-1.7-3.6-1.7-6.6
				c0-3.1,0.6-5.4,1.8-6.8C592.1,535.9,593.6,535.2,595.5,535.2 M595.3,550c0.6,0,1.1-0.2,1.5-0.7c0.4-0.5,0.6-1.3,0.6-2.3
				c0-1.1-0.2-1.9-0.7-2.5c-0.4-0.5-1-0.8-1.6-0.8c-0.6,0-1.2,0.2-1.6,0.7c-0.4,0.5-0.7,1.2-0.7,2.2c0,1.1,0.2,1.9,0.7,2.5
				C594.1,549.7,594.7,550,595.3,550 M584.3,535.2v17.3H581V540c-1.2,1.1-2.6,2-4.3,2.5v-3c0.9-0.3,1.8-0.8,2.8-1.6
				c1-0.8,1.7-1.7,2.1-2.7H584.3 M595.5,529.2c-1.9,0-3.6,0.4-5.2,1.1v-1.1h-6h-2.7h-4.2L576,533c0,0-0.1,0.1-0.2,0.1
				c-0.7,0.5-1,0.6-1,0.6l-4.1,1.4l0,4.3v3v8.3l4.3-1.4v3v6h6h3.3h6v-0.8c1.5,0.7,3.1,1.1,4.9,1.1c3.3,0,6.1-1.2,8.3-3.4
				c2.1-2.2,3.2-5.1,3.2-8.4c0-0.7-0.1-1.4-0.2-2.1l0.8-0.1l-1-6.3c-0.6-3.5-2.3-5.6-3.7-6.8C600.7,530,598.2,529.2,595.5,529.2
				L595.5,529.2z"/>
		</g>
		<rect x="332.9" y="520.1" class="st0" width="20" height="15"/>
		<path class="st10" d="M341,532.1h-1.6v-6.2c-0.6,0.6-1.3,1-2.1,1.3v-1.5c0.4-0.1,0.9-0.4,1.4-0.8c0.5-0.4,0.9-0.9,1-1.4h1.3V532.1
			z M346.3,523.5c0.8,0,1.5,0.3,2,0.9c0.6,0.7,0.8,1.9,0.8,3.5c0,1.6-0.3,2.8-0.8,3.5c-0.5,0.6-1.1,0.9-1.9,0.9c-0.8,0-1.5-0.3-2-1
			c-0.5-0.6-0.8-1.8-0.8-3.4c0-1.6,0.3-2.8,0.8-3.5C344.8,523.7,345.4,523.5,346.3,523.5z M346.3,524.8c-0.2,0-0.4,0.1-0.5,0.2
			c-0.2,0.1-0.3,0.4-0.4,0.7c-0.1,0.4-0.2,1.1-0.2,2.2c0,1,0,1.7,0.1,2.1c0.1,0.4,0.2,0.6,0.4,0.8c0.2,0.1,0.3,0.2,0.5,0.2
			s0.4-0.1,0.5-0.2c0.2-0.1,0.3-0.4,0.4-0.7c0.1-0.4,0.2-1.1,0.2-2.1c0-1,0-1.7-0.1-2.1c-0.1-0.4-0.2-0.6-0.4-0.8
			C346.6,524.9,346.5,524.8,346.3,524.8z"/>
		<rect x="365.7" y="464" class="st0" width="20" height="15"/>
		<path class="st10" d="M373.7,476h-1.6v-6.2c-0.6,0.6-1.3,1-2.1,1.3v-1.5c0.4-0.1,0.9-0.4,1.4-0.8c0.5-0.4,0.9-0.9,1-1.4h1.3V476z
			 M380.4,476h-1.6v-6.2c-0.6,0.6-1.3,1-2.1,1.3v-1.5c0.4-0.1,0.9-0.4,1.4-0.8s0.9-0.9,1-1.4h1.3V476z"/>
		<line class="st57" x1="282.8" y1="323.1" x2="572.4" y2="401.3"/>
		<g>
			<path class="st5" d="M430.8,374.2V364c-0.1,0-0.2,0.1-0.3,0.1l-3.7,1.2v8.9h-9.3V364c-0.1,0-0.2,0.1-0.3,0.1l-3.9,1.3v-9.3
				l2.1-0.7c0.4-0.1,1-0.4,1.9-1.1c0.6-0.4,0.9-0.9,1.1-1.4l0.7-2h7.8v5.1l1.9-0.6c0.4-0.1,1-0.4,1.9-1.1c0.6-0.4,0.9-0.9,1.1-1.4
				l0.7-2h7.8v23.3H430.8z"/>
			<path class="st0" d="M437.1,353.9v17.3h-3.3v-12.4c-1.2,1.1-2.6,2-4.3,2.5v-3c0.9-0.3,1.8-0.8,2.8-1.6c1-0.8,1.7-1.7,2.1-2.7
				H437.1 M423.7,353.9v17.3h-3.3v-12.4c-1.2,1.1-2.6,2-4.3,2.5v-3c0.9-0.3,1.8-0.8,2.8-1.6c1-0.8,1.7-1.7,2.1-2.7H423.7
				 M443.1,347.9h-6h-2.7h-4.2l-0.5,1.3v-1.3h-6h-2.7h-4.2l-1.4,3.9c0,0-0.1,0.1-0.2,0.1c-0.7,0.5-1,0.6-1,0.6l-4.1,1.4l0,4.3v3v8.3
				l4.3-1.4v3v6h6h3.3h4.1h6h3.3h6v-6v-17.3V347.9L443.1,347.9z"/>
		</g>
		<line class="st58" x1="238.7" y1="425.8" x2="569.8" y2="421.4"/>
		<g>
			<path class="st2" d="M410.4,436.9c-2.6,0-4.8-1.1-6.4-3.1c-0.4-0.5-0.8-1.2-1.1-1.9v4.6h-9.3v-10.2c-0.1,0-4.3,1.4-4.3,1.4v-9.3
				l2.1-0.7c0.4-0.1,1-0.4,1.9-1.1c0.6-0.4,0.9-0.9,1.1-1.4l0.7-2h7.8v5c0.3-0.8,0.7-1.5,1.2-2.1c1.5-1.9,3.7-2.9,6.2-2.9
				c2.6,0,4.7,1,6.2,2.9c1.6,2,2.3,4.9,2.3,8.9c0,4-0.8,6.9-2.3,8.9C415.1,435.9,412.9,436.9,410.4,436.9z"/>
			<path class="st0" d="M410.4,416.3c1.7,0,3,0.6,3.9,1.8c1.1,1.4,1.7,3.7,1.7,7c0,3.3-0.6,5.6-1.7,7c-0.9,1.2-2.2,1.8-3.9,1.8
				c-1.7,0-3-0.6-4-1.9c-1-1.3-1.5-3.6-1.5-6.9c0-3.2,0.6-5.6,1.7-7C407.4,416.9,408.7,416.3,410.4,416.3 M410.4,431.2
				c0.4,0,0.7-0.1,1.1-0.4c0.3-0.3,0.6-0.7,0.7-1.4c0.2-0.8,0.3-2.3,0.3-4.3c0-2-0.1-3.4-0.3-4.2c-0.2-0.8-0.5-1.3-0.8-1.5
				c-0.3-0.3-0.7-0.4-1.1-0.4c-0.4,0-0.8,0.1-1.1,0.4c-0.3,0.3-0.6,0.7-0.7,1.4c-0.2,0.9-0.3,2.3-0.3,4.3c0,2,0.1,3.4,0.3,4.1
				c0.2,0.8,0.5,1.3,0.8,1.5C409.6,431,410,431.2,410.4,431.2 M399.9,416.3v17.3h-3.3v-12.4c-1.2,1.1-2.6,2-4.3,2.5v-3
				c0.9-0.3,1.8-0.8,2.8-1.6c1-0.8,1.7-1.7,2.1-2.7H399.9 M410.4,410.3c-1.6,0-3.1,0.3-4.5,0.9v-0.9h-6h-2.7H393l-1.4,3.9
				c0,0-0.1,0.1-0.2,0.1c-0.7,0.5-1,0.6-1,0.6l-4.1,1.4l0,4.3v3v8.3l4.3-1.4v3v6h6h3.3h6V439c1.4,0.6,2.9,0.9,4.5,0.9
				c3.5,0,6.5-1.4,8.6-4c2-2.5,3-6,3-10.7c0-4.7-1-8.2-3-10.7C416.9,411.8,413.8,410.3,410.4,410.3L410.4,410.3z"/>
		</g>
		<ellipse class="st59" cx="643.1" cy="420.4" rx="73.3" ry="75.5"/>
		<path class="st0" d="M623.7,429.4l-3.6-15h3.1l2.3,10.3l2.8-10.3h3.6l2.6,10.5l2.3-10.5h3l-3.6,15H633l-3-11.2l-3,11.2H623.7z
			 M641.4,417.1v-2.7h2.9v2.7H641.4z M641.4,429.4v-10.9h2.9v10.9H641.4z M647.2,429.4v-15h4.5l2.7,10.3l2.7-10.3h4.5v15h-2.8v-11.8
			l-3,11.8H653l-3-11.8v11.8H647.2z M664.7,417.1v-2.7h2.9v2.7H664.7z M664.7,429.4v-10.9h2.9v10.9H664.7z"/>
		<rect x="187.7" y="274.4" class="st5" width="95.1" height="71.5"/>
		<path class="st0" d="M224.8,313.7v-2.5h6.5v6c-0.6,0.6-1.6,1.2-2.8,1.6c-1.2,0.5-2.4,0.7-3.7,0.7c-1.6,0-2.9-0.3-4.1-1
			c-1.2-0.7-2.1-1.6-2.6-2.8s-0.9-2.6-0.9-4c0-1.6,0.3-3,1-4.2s1.6-2.1,2.9-2.8c1-0.5,2.2-0.7,3.6-0.7c1.9,0,3.3,0.4,4.4,1.2
			c1.1,0.8,1.7,1.9,2,3.2l-3,0.6c-0.2-0.7-0.6-1.3-1.2-1.7c-0.6-0.4-1.3-0.6-2.2-0.6c-1.3,0-2.4,0.4-3.2,1.3s-1.2,2.1-1.2,3.7
			c0,1.8,0.4,3.1,1.2,4c0.8,0.9,1.8,1.3,3.1,1.3c0.6,0,1.3-0.1,1.9-0.4c0.6-0.3,1.2-0.6,1.6-0.9v-1.9H224.8z M236.2,319.2l-3.6-15
			h3.1l2.3,10.3l2.8-10.3h3.6l2.6,10.5l2.3-10.5h3l-3.6,15h-3.2l-3-11.2l-3,11.2H236.2z"/>
	</g>
	<path class="st0" d="M184.2,429.9v-2.5h6.5v6c-0.6,0.6-1.6,1.2-2.8,1.6c-1.2,0.5-2.4,0.7-3.7,0.7c-1.6,0-2.9-0.3-4.1-1
		c-1.2-0.7-2.1-1.6-2.6-2.8s-0.9-2.6-0.9-4c0-1.6,0.3-3,1-4.2s1.6-2.1,2.9-2.8c1-0.5,2.2-0.7,3.6-0.7c1.9,0,3.3,0.4,4.4,1.2
		c1.1,0.8,1.7,1.9,2,3.2l-3,0.6c-0.2-0.7-0.6-1.3-1.2-1.7c-0.6-0.4-1.3-0.6-2.2-0.6c-1.3,0-2.4,0.4-3.2,1.3s-1.2,2.1-1.2,3.7
		c0,1.8,0.4,3.1,1.2,4c0.8,0.9,1.8,1.3,3.1,1.3c0.6,0,1.3-0.1,1.9-0.4c0.6-0.3,1.2-0.6,1.6-0.9v-1.9H184.2z M192.7,430.5l3-0.3
		c0.2,1,0.5,1.7,1.1,2.2c0.5,0.5,1.3,0.7,2.2,0.7c1,0,1.7-0.2,2.2-0.6c0.5-0.4,0.8-0.9,0.8-1.5c0-0.4-0.1-0.7-0.3-0.9
		c-0.2-0.3-0.6-0.5-1.1-0.6c-0.4-0.1-1.2-0.3-2.4-0.7c-1.6-0.4-2.8-0.9-3.4-1.5c-0.9-0.8-1.4-1.8-1.4-3c0-0.8,0.2-1.5,0.7-2.2
		c0.4-0.7,1.1-1.2,1.9-1.5c0.8-0.3,1.8-0.5,2.9-0.5c1.9,0,3.3,0.4,4.3,1.2c1,0.8,1.5,1.9,1.5,3.3l-3,0.1c-0.1-0.8-0.4-1.3-0.8-1.7
		c-0.4-0.3-1.1-0.5-1.9-0.5c-0.9,0-1.6,0.2-2.1,0.5c-0.3,0.2-0.5,0.5-0.5,0.9c0,0.4,0.2,0.7,0.5,0.9c0.4,0.3,1.3,0.7,2.8,1
		c1.5,0.3,2.6,0.7,3.3,1.1s1.3,0.9,1.7,1.5c0.4,0.6,0.6,1.4,0.6,2.4c0,0.9-0.2,1.7-0.7,2.4c-0.5,0.8-1.2,1.3-2,1.7
		c-0.9,0.4-2,0.5-3.3,0.5c-1.9,0-3.4-0.4-4.4-1.3C193.5,433.5,192.9,432.2,192.7,430.5z"/>
</g>
</svg>
