<?xml version="1.0" encoding="utf-8"?>
<!-- Generator: Adobe Illustrator 21.0.2, SVG Export Plug-In . SVG Version: 6.00 Build 0)  -->
<svg version="1.1" id="Layer_1" xmlns="http://www.w3.org/2000/svg" xmlns:xlink="http://www.w3.org/1999/xlink" x="0px" y="0px"
	 width="860px" height="841.9px" viewBox="0 0 860 841.9" style="enable-background:new 0 0 860 841.9;" xml:space="preserve">
<style type="text/css">
	.st0{fill:#FFFFFF;}
	.st1{fill:none;stroke:#F2AE45;stroke-width:3;stroke-miterlimit:10;}
	.st2{fill:#F2AE45;}
	.st3{fill:none;stroke:#F2AE45;stroke-width:2.3026;stroke-miterlimit:10;}
	.st4{fill:none;stroke:#9DDB53;stroke-width:3;stroke-miterlimit:10;}
	.st5{fill:#9DDB53;}
	.st6{fill:none;stroke:#33A8F5;stroke-width:3;stroke-miterlimit:10;}
	.st7{fill:#33A8F5;}
	.st8{fill:#009999;}
	.st9{fill:none;stroke:#009999;stroke-width:3;stroke-miterlimit:10;}
	.st10{fill:#8484EF;}
	.st11{fill:none;stroke:#8484EF;stroke-width:3;stroke-miterlimit:10;}
	.st12{fill:none;stroke:#33A8F5;stroke-width:1.6094;stroke-miterlimit:10;}
	.st13{fill:none;stroke:#8484EF;stroke-width:2.7726;stroke-miterlimit:10;}
	.st14{fill:none;stroke:#9DDB53;stroke-width:2.3979;stroke-miterlimit:10;}
	.st15{fill:none;stroke:#009999;stroke-width:2.4849;stroke-miterlimit:10;}
	.st16{fill:none;stroke:#000000;stroke-width:3;stroke-miterlimit:10;}
	.st17{fill:none;}
	.st18{fill:#009999;fill-opacity:0.2588;}
	.st19{fill:none;stroke:#B8DAE0;stroke-width:1.0986;stroke-miterlimit:10;}
	
		.st20{fill:none;stroke:#009999;stroke-width:1.0986;stroke-linejoin:bevel;stroke-miterlimit:10;stroke-opacity:0.2588;stroke-dasharray:5,3;}
	.st21{fill:#D0D0D0;}
	.st22{fill:none;stroke:#B8DAE0;stroke-width:2.0794;stroke-miterlimit:10;}
	
		.st23{fill:none;stroke:#009999;stroke-width:2.0794;stroke-linejoin:bevel;stroke-miterlimit:10;stroke-opacity:0.2588;stroke-dasharray:5,3;}
	.st24{fill:none;stroke:#B8DAE0;stroke-width:2.3026;stroke-miterlimit:10;}
	.st25{fill:none;stroke:#B8DAE0;stroke-width:2.303;stroke-linejoin:bevel;stroke-miterlimit:10;stroke-dasharray:5,3;}
	.st26{fill:#C1C1FF;}
	.st27{fill:none;stroke:#C1C1FF;stroke-miterlimit:10;}
	.st28{fill:none;stroke:#C1C1FF;stroke-linejoin:bevel;stroke-miterlimit:10;stroke-dasharray:5,3;}
	.st29{fill:none;stroke:#C1C1FF;stroke-width:2.3026;stroke-miterlimit:10;}
	.st30{fill:none;stroke:#C1C1FF;stroke-width:2.3026;stroke-linejoin:bevel;stroke-miterlimit:10;stroke-dasharray:5,3;}
	.st31{fill:none;stroke:#F2AE45;stroke-width:0.3;stroke-miterlimit:10;}
	.st32{fill:none;stroke:#F2AE45;stroke-width:1.0986;stroke-miterlimit:10;}
	.st33{fill:none;stroke:#9DDB53;stroke-width:0.6931;stroke-miterlimit:10;}
	.st34{fill:#76AF31;}
	.st35{fill:none;stroke:#9DDB53;stroke-width:0.3;stroke-miterlimit:10;}
	.st36{fill:none;stroke:#9DDB53;stroke-width:1.0986;stroke-miterlimit:10;}
	.st37{fill:none;stroke:#33A8F5;stroke-width:0.3;stroke-miterlimit:10;}
	.st38{fill:#4C4C4C;}
	.st39{fill:none;stroke:#4C4C4C;stroke-width:2.7726;stroke-miterlimit:10;}
	.st40{fill:#EEEEEE;}
	.st41{fill:none;stroke:#EEEEEE;stroke-width:2.3026;stroke-miterlimit:10;}
	.st42{fill:none;stroke:#EEEEEE;stroke-miterlimit:10;}
	.st43{fill:none;stroke:#4C4C4C;stroke-width:2.4849;stroke-miterlimit:10;}
	.st44{fill:#FFC63B;}
	.st45{fill:none;stroke:#EEEEEE;stroke-width:2.0794;stroke-miterlimit:10;}
	.st46{fill:#C1F780;}
	.st47{fill:none;stroke:#EEEEEE;stroke-width:1.0986;stroke-miterlimit:10;}
	.st48{fill:none;stroke:#000000;stroke-miterlimit:10;stroke-opacity:0;}
	.st49{fill:#FC938D;}
	.st50{fill:#0877C0;}
	.st51{fill:none;stroke:#4C4C4C;stroke-width:3;stroke-miterlimit:10;}
	.st52{fill:none;stroke:#8484EF;stroke-miterlimit:10;}
	.st53{fill:none;stroke:#009999;stroke-width:1.0986;stroke-miterlimit:10;}
	.st54{fill:none;stroke:#009999;stroke-width:2.3026;stroke-miterlimit:10;}
	.st55{fill:none;stroke:#8484EF;stroke-width:2.3026;stroke-miterlimit:10;}
	.st56{fill:none;stroke:#009999;stroke-width:2.0794;stroke-miterlimit:10;}
	.st57{fill:none;stroke:#9DDB53;stroke-width:6;stroke-miterlimit:10;}
	.st58{fill:none;stroke:#F2AE45;stroke-width:6;stroke-miterlimit:10;}
	.st59{fill:#4C4C4C;stroke:#4C4C4C;stroke-miterlimit:10;}
</style>
<g>
	<line class="st17" x1="822.6" y1="832.2" x2="37.4" y2="832.2"/>
	<path class="st2" d="M133.4,45.3l3.2,6.2l3.3-3.7L133.4,45.3z"/>
	<line class="st17" x1="822.6" y1="832.2" x2="37.4" y2="832.2"/>
	<path class="st31" d="M133.4,45.3l3.2,6.2l3.3-3.7L133.4,45.3z"/>
	<line class="st31" x1="570.7" y1="431.5" x2="133.4" y2="45.3"/>
	<rect x="338.6" y="222.4" class="st0" width="27" height="32"/>
	<path class="st2" d="M354.7,248.4h-3.3V236c-1.2,1.1-2.6,2-4.3,2.5v-3c0.9-0.3,1.8-0.8,2.8-1.6c1-0.8,1.7-1.7,2.1-2.7h2.7V248.4z"
		/>
	<line class="st17" x1="822.6" y1="832.2" x2="37.4" y2="832.2"/>
	<path class="st2" d="M515.3,45.3l-1,6.9l4.9-1.1L515.3,45.3z"/>
	<line class="st17" x1="822.6" y1="832.2" x2="37.4" y2="832.2"/>
	<path class="st32" d="M515.3,45.3l-1,6.9l4.9-1.1L515.3,45.3z"/>
	<line class="st32" x1="604.5" y1="431.5" x2="515.3" y2="45.3"/>
	<rect x="546.4" y="222.4" class="st0" width="27" height="32"/>
	<path class="st2" d="M554,243.8l3.2-0.4c0.1,0.8,0.4,1.4,0.8,1.9c0.4,0.4,1,0.6,1.6,0.6c0.7,0,1.2-0.3,1.7-0.8
		c0.5-0.5,0.7-1.2,0.7-2.1c0-0.8-0.2-1.5-0.7-2c-0.4-0.5-1-0.7-1.6-0.7c-0.4,0-0.9,0.1-1.5,0.3l0.4-2.7c0.9,0,1.6-0.2,2-0.6
		c0.5-0.4,0.7-1,0.7-1.6c0-0.6-0.2-1-0.5-1.4c-0.3-0.3-0.8-0.5-1.4-0.5s-1,0.2-1.4,0.6c-0.4,0.4-0.6,1-0.7,1.7l-3-0.5
		c0.2-1,0.5-1.9,1-2.5c0.4-0.6,1-1.1,1.8-1.5c0.8-0.4,1.6-0.5,2.6-0.5c1.6,0,2.9,0.5,3.9,1.5c0.8,0.8,1.2,1.8,1.2,2.9
		c0,1.5-0.8,2.7-2.5,3.6c1,0.2,1.8,0.7,2.4,1.4c0.6,0.7,0.9,1.6,0.9,2.7c0,1.5-0.5,2.8-1.6,3.9c-1.1,1.1-2.5,1.6-4.1,1.6
		c-1.6,0-2.8-0.4-3.9-1.3C554.7,246.4,554.1,245.3,554,243.8z"/>
	<line class="st17" x1="822.6" y1="832.2" x2="37.4" y2="832.2"/>
	<path class="st2" d="M768.5,45.3l-4.6,5.2l4.7,1.7L768.5,45.3z"/>
	<line class="st17" x1="822.6" y1="832.2" x2="37.4" y2="832.2"/>
	<path class="st31" d="M768.5,45.3l-4.6,5.2l4.7,1.7L768.5,45.3z"/>
	<line class="st31" x1="626.9" y1="431.5" x2="768.5" y2="45.3"/>
	<rect x="684.2" y="222.4" class="st0" width="27" height="32"/>
	<path class="st2" d="M700.3,248.4H697V236c-1.2,1.1-2.6,2-4.3,2.5v-3c0.9-0.3,1.8-0.8,2.8-1.6c1-0.8,1.7-1.7,2.1-2.7h2.7V248.4z"/>
	<line class="st17" x1="822.6" y1="832.2" x2="37.4" y2="832.2"/>
	<path class="st5" d="M130.1,45.3l2.7,6.4l3.6-3.4L130.1,45.3z"/>
	<line class="st17" x1="822.6" y1="832.2" x2="37.4" y2="832.2"/>
	<path class="st33" d="M130.1,45.3l2.7,6.4l3.6-3.4L130.1,45.3z"/>
	<line class="st33" x1="375.4" y1="303.6" x2="130.1" y2="45.3"/>
	<rect x="239.3" y="158.5" class="st0" width="27" height="32"/>
	<path class="st34" d="M258.1,181.4v3.1h-11.5c0.1-1.2,0.5-2.3,1.1-3.3s1.9-2.4,3.7-4.1c1.5-1.4,2.4-2.3,2.7-2.8
		c0.5-0.7,0.7-1.3,0.7-2c0-0.7-0.2-1.3-0.6-1.7c-0.4-0.4-0.9-0.6-1.6-0.6c-0.7,0-1.2,0.2-1.6,0.6s-0.6,1.1-0.7,2.1l-3.3-0.3
		c0.2-1.8,0.8-3.1,1.8-3.9s2.3-1.2,3.9-1.2c1.7,0,3,0.5,4,1.4c1,0.9,1.5,2,1.5,3.4c0,0.8-0.1,1.5-0.4,2.2c-0.3,0.7-0.7,1.4-1.3,2.2
		c-0.4,0.5-1.1,1.2-2.2,2.2c-1,1-1.7,1.6-2,1.9c-0.3,0.3-0.5,0.6-0.7,0.9H258.1z"/>
	<line class="st17" x1="822.6" y1="832.2" x2="37.4" y2="832.2"/>
	<path class="st5" d="M429,45.3l-2.9,6.3l5,0.3L429,45.3z"/>
	<line class="st17" x1="822.6" y1="832.2" x2="37.4" y2="832.2"/>
	<path class="st35" d="M429,45.3l-2.9,6.3l5,0.3L429,45.3z"/>
	<line class="st35" x1="411.8" y1="303.6" x2="429" y2="45.3"/>
	<rect x="406.9" y="158.5" class="st0" width="27" height="32"/>
	<path class="st34" d="M423,184.5h-3.3v-12.4c-1.2,1.1-2.6,2-4.3,2.5v-3c0.9-0.3,1.8-0.8,2.8-1.6c1-0.8,1.7-1.7,2.1-2.7h2.7V184.5z"
		/>
	<line class="st17" x1="822.6" y1="832.2" x2="37.4" y2="832.2"/>
	<path class="st5" d="M505.3,45.3l-4.4,5.4l4.8,1.5L505.3,45.3z"/>
	<line class="st17" x1="822.6" y1="832.2" x2="37.4" y2="832.2"/>
	<path class="st33" d="M505.3,45.3l-4.4,5.4l4.8,1.5L505.3,45.3z"/>
	<line class="st33" x1="421.1" y1="303.6" x2="505.3" y2="45.3"/>
	<rect x="449.7" y="158.5" class="st0" width="27" height="32"/>
	<path class="st34" d="M468.5,181.4v3.1h-11.5c0.1-1.2,0.5-2.3,1.1-3.3s1.9-2.4,3.7-4.1c1.5-1.4,2.4-2.3,2.7-2.8
		c0.5-0.7,0.7-1.3,0.7-2c0-0.7-0.2-1.3-0.6-1.7c-0.4-0.4-0.9-0.6-1.6-0.6c-0.7,0-1.2,0.2-1.6,0.6c-0.4,0.4-0.6,1.1-0.7,2.1l-3.3-0.3
		c0.2-1.8,0.8-3.1,1.8-3.9c1-0.8,2.3-1.2,3.9-1.2c1.7,0,3,0.5,4,1.4c1,0.9,1.5,2,1.5,3.4c0,0.8-0.1,1.5-0.4,2.2
		c-0.3,0.7-0.7,1.4-1.3,2.2c-0.4,0.5-1.1,1.2-2.2,2.2c-1,1-1.7,1.6-2,1.9c-0.3,0.3-0.5,0.6-0.7,0.9H468.5z"/>
	<line class="st17" x1="822.6" y1="832.2" x2="37.4" y2="832.2"/>
	<path class="st5" d="M754.1,45.3l-6.6,2.3l3.2,3.8L754.1,45.3z"/>
	<line class="st17" x1="822.6" y1="832.2" x2="37.4" y2="832.2"/>
	<path class="st36" d="M754.1,45.3l-6.6,2.3l3.2,3.8L754.1,45.3z"/>
	<line class="st36" x1="451.3" y1="303.6" x2="754.1" y2="45.3"/>
	<rect x="589.2" y="158.5" class="st0" width="27" height="32"/>
	<path class="st34" d="M596.8,179.9l3.2-0.4c0.1,0.8,0.4,1.4,0.8,1.9c0.4,0.4,1,0.6,1.6,0.6c0.7,0,1.2-0.3,1.7-0.8
		c0.5-0.5,0.7-1.2,0.7-2.1c0-0.8-0.2-1.5-0.7-2c-0.4-0.5-1-0.7-1.6-0.7c-0.4,0-0.9,0.1-1.5,0.3l0.4-2.7c0.9,0,1.6-0.2,2-0.6
		c0.5-0.4,0.7-1,0.7-1.6c0-0.6-0.2-1-0.5-1.4c-0.3-0.3-0.8-0.5-1.4-0.5s-1,0.2-1.4,0.6c-0.4,0.4-0.6,1-0.7,1.7l-3-0.5
		c0.2-1,0.5-1.9,1-2.5c0.4-0.6,1-1.1,1.8-1.5c0.8-0.4,1.6-0.5,2.6-0.5c1.6,0,2.9,0.5,3.9,1.5c0.8,0.8,1.2,1.8,1.2,2.9
		c0,1.5-0.8,2.7-2.5,3.6c1,0.2,1.8,0.7,2.4,1.4c0.6,0.7,0.9,1.6,0.9,2.7c0,1.5-0.5,2.8-1.6,3.9c-1.1,1.1-2.5,1.6-4.1,1.6
		c-1.6,0-2.8-0.4-3.9-1.3C597.5,182.5,596.9,181.4,596.8,179.9z"/>
	<line class="st17" x1="822.6" y1="832.2" x2="37.4" y2="832.2"/>
	<path class="st5" d="M620,45.3l-5.8,3.8l4.1,2.9L620,45.3z"/>
	<line class="st17" x1="822.6" y1="832.2" x2="37.4" y2="832.2"/>
	<path class="st33" d="M620,45.3l-5.8,3.8l4.1,2.9L620,45.3z"/>
	<line class="st33" x1="435" y1="303.6" x2="620" y2="45.3"/>
	<rect x="514" y="158.5" class="st0" width="27" height="32"/>
	<path class="st34" d="M532.8,181.4v3.1h-11.5c0.1-1.2,0.5-2.3,1.1-3.3s1.9-2.4,3.7-4.1c1.5-1.4,2.4-2.3,2.7-2.8
		c0.5-0.7,0.7-1.3,0.7-2c0-0.7-0.2-1.3-0.6-1.7c-0.4-0.4-0.9-0.6-1.6-0.6c-0.7,0-1.2,0.2-1.6,0.6c-0.4,0.4-0.6,1.1-0.7,2.1l-3.3-0.3
		c0.2-1.8,0.8-3.1,1.8-3.9c1-0.8,2.3-1.2,3.9-1.2c1.7,0,3,0.5,4,1.4c1,0.9,1.5,2,1.5,3.4c0,0.8-0.1,1.5-0.4,2.2
		c-0.3,0.7-0.7,1.4-1.3,2.2c-0.4,0.5-1.1,1.2-2.2,2.2c-1,1-1.7,1.6-2,1.9c-0.3,0.3-0.5,0.6-0.7,0.9H532.8z"/>
	<line class="st17" x1="822.6" y1="832.2" x2="37.4" y2="832.2"/>
	<path class="st5" d="M298.8,45.3l-0.1,7l4.7-1.8L298.8,45.3z"/>
	<line class="st17" x1="822.6" y1="832.2" x2="37.4" y2="832.2"/>
	<path class="st35" d="M298.8,45.3l-0.1,7l4.7-1.8L298.8,45.3z"/>
	<line class="st35" x1="396" y1="303.6" x2="298.8" y2="45.3"/>
	<rect x="333.9" y="158.5" class="st0" width="27" height="32"/>
	<path class="st34" d="M350,184.5h-3.3v-12.4c-1.2,1.1-2.6,2-4.3,2.5v-3c0.9-0.3,1.8-0.8,2.8-1.6c1-0.8,1.7-1.7,2.1-2.7h2.7V184.5z"
		/>
	<line class="st17" x1="822.6" y1="832.2" x2="37.4" y2="832.2"/>
	<path class="st7" d="M774.8,45.3l-2.6,6.4l5,0.1L774.8,45.3z"/>
	<line class="st17" x1="822.6" y1="832.2" x2="37.4" y2="832.2"/>
	<path class="st37" d="M774.8,45.3l-2.6,6.4l5,0.1L774.8,45.3z"/>
	<line class="st37" x1="763.6" y1="599.2" x2="774.8" y2="45.3"/>
	<rect x="755.7" y="306.3" class="st0" width="27" height="32"/>
	<path class="st7" d="M771.8,332.3h-3.3v-12.4c-1.2,1.1-2.6,2-4.3,2.5v-3c0.9-0.3,1.8-0.8,2.8-1.6c1-0.8,1.7-1.7,2.1-2.7h2.7V332.3z
		"/>
	<line class="st17" x1="822.6" y1="832.2" x2="37.4" y2="832.2"/>
	<path class="st7" d="M636.7,45.3l-1.1,6.9l4.9-1L636.7,45.3z"/>
	<line class="st17" x1="822.6" y1="832.2" x2="37.4" y2="832.2"/>
	<path class="st37" d="M636.7,45.3l-1.1,6.9l4.9-1L636.7,45.3z"/>
	<line class="st37" x1="755" y1="599.2" x2="636.7" y2="45.3"/>
	<rect x="682.4" y="306.3" class="st0" width="27" height="32"/>
	<path class="st7" d="M698.5,332.3h-3.3v-12.4c-1.2,1.1-2.6,2-4.3,2.5v-3c0.9-0.3,1.8-0.8,2.8-1.6c1-0.8,1.7-1.7,2.1-2.7h2.7V332.3z
		"/>
	<line class="st17" x1="822.6" y1="832.2" x2="37.4" y2="832.2"/>
	<path class="st38" d="M412,685l-2.5,6.5l5,0L412,685z"/>
	<line class="st17" x1="822.6" y1="832.2" x2="37.4" y2="832.2"/>
	<path class="st39" d="M412,685l-2.5,6.5l5,0L412,685z"/>
	<line class="st39" x1="412.2" y1="760.3" x2="412" y2="685"/>
	<rect x="392.1" y="708.1" class="st0" width="40" height="29"/>
	<path class="st38" d="M408.2,732.1h-3.3v-12.4c-1.2,1.1-2.6,2-4.3,2.5v-3c0.9-0.3,1.8-0.8,2.8-1.6c1-0.8,1.7-1.7,2.1-2.7h2.7V732.1
		z M424.3,719.2l-3.2,0.3c-0.1-0.7-0.3-1.1-0.6-1.5c-0.3-0.3-0.8-0.5-1.3-0.5c-0.7,0-1.3,0.3-1.8,0.9c-0.5,0.6-0.8,1.9-0.9,3.9
		c0.8-1,1.8-1.5,3-1.5c1.4,0,2.6,0.5,3.5,1.6c1,1,1.5,2.4,1.5,4.1c0,1.8-0.5,3.2-1.5,4.2c-1,1.1-2.4,1.6-4,1.6c-1.7,0-3.2-0.7-4.3-2
		c-1.1-1.3-1.7-3.6-1.7-6.6c0-3.1,0.6-5.4,1.8-6.8c1.2-1.4,2.7-2.1,4.5-2.1c1.3,0,2.4,0.4,3.3,1.1
		C423.5,716.7,424,717.8,424.3,719.2z M416.8,726.3c0,1.1,0.2,1.9,0.7,2.5c0.5,0.6,1.1,0.9,1.7,0.9c0.6,0,1.1-0.2,1.5-0.7
		c0.4-0.5,0.6-1.3,0.6-2.3c0-1.1-0.2-1.9-0.7-2.5c-0.4-0.5-1-0.8-1.6-0.8c-0.6,0-1.2,0.2-1.6,0.7C417,724.6,416.8,725.4,416.8,726.3
		z"/>
	<line class="st17" x1="822.6" y1="832.2" x2="37.4" y2="832.2"/>
	<path class="st40" d="M611.7,506.4l-2.7,6.4l5,0.2L611.7,506.4z"/>
	<line class="st17" x1="822.6" y1="832.2" x2="37.4" y2="832.2"/>
	<path class="st41" d="M611.7,506.4l-2.7,6.4l5,0.2L611.7,506.4z"/>
	<path class="st41" d="M530.1,794.5c141.1-1.2,72.4-50.3,81.6-288.1"/>
	<rect x="610.4" y="731.7" class="st0" width="20" height="15"/>
	<path class="st2" d="M618.4,743.7h-1.6v-6.2c-0.6,0.6-1.3,1-2.1,1.3v-1.5c0.4-0.1,0.9-0.4,1.4-0.8c0.5-0.4,0.9-0.9,1-1.4h1.3V743.7
		z M623.7,735.1c0.8,0,1.5,0.3,2,0.9c0.6,0.7,0.8,1.9,0.8,3.5c0,1.6-0.3,2.8-0.8,3.5c-0.5,0.6-1.1,0.9-1.9,0.9c-0.8,0-1.5-0.3-2-1
		c-0.5-0.6-0.8-1.8-0.8-3.4c0-1.6,0.3-2.8,0.8-3.5C622.2,735.4,622.9,735.1,623.7,735.1z M623.7,736.4c-0.2,0-0.4,0.1-0.5,0.2
		c-0.2,0.1-0.3,0.4-0.4,0.7c-0.1,0.4-0.2,1.1-0.2,2.2c0,1,0,1.7,0.1,2.1c0.1,0.4,0.2,0.6,0.4,0.8c0.2,0.1,0.3,0.2,0.5,0.2
		s0.4-0.1,0.5-0.2c0.2-0.1,0.3-0.4,0.4-0.7c0.1-0.4,0.2-1.1,0.2-2.1c0-1,0-1.7-0.1-2.1c-0.1-0.4-0.2-0.6-0.4-0.8
		C624.1,736.5,623.9,736.4,623.7,736.4z"/>
	<line class="st17" x1="822.6" y1="832.2" x2="37.4" y2="832.2"/>
	<path class="st40" d="M416.1,375.2l-1.3,6.8l4.9-0.9L416.1,375.2z"/>
	<line class="st17" x1="822.6" y1="832.2" x2="37.4" y2="832.2"/>
	<path class="st42" d="M416.1,375.2l-1.3,6.8l4.9-0.9L416.1,375.2z"/>
	<path class="st42" d="M530.1,792.7c127-3-68.1-172.4-114-417.5"/>
	<rect x="528" y="667.2" class="st0" width="20" height="15"/>
	<path class="st5" d="M536,679.2h-1.6V673c-0.6,0.6-1.3,1-2.1,1.3v-1.5c0.4-0.1,0.9-0.4,1.4-0.8c0.5-0.4,0.9-0.9,1-1.4h1.3V679.2z
		 M542.7,679.2H541V673c-0.6,0.6-1.3,1-2.1,1.3v-1.5c0.4-0.1,0.9-0.4,1.4-0.8c0.5-0.4,0.9-0.9,1-1.4h1.3V679.2z"/>
	<line class="st17" x1="822.6" y1="832.2" x2="37.4" y2="832.2"/>
	<path class="st40" d="M759.3,673.1l-3.1,6.2l5,0.5L759.3,673.1z"/>
	<line class="st17" x1="822.6" y1="832.2" x2="37.4" y2="832.2"/>
	<path class="st42" d="M759.3,673.1l-3.1,6.2l5,0.5L759.3,673.1z"/>
	<path class="st42" d="M530.1,795.3c166.1-0.3,219.6-24.7,229.1-122.1"/>
	<rect x="696.9" y="763.1" class="st0" width="13" height="15"/>
	<path class="st7" d="M704,775.1v-1.7h-3.5v-1.4l3.7-5.5h1.4v5.5h1.1v1.4h-1.1v1.7H704z M704,771.9V769l-2,2.9H704z"/>
	<path class="st38" d="M361.3,642.3l-6.5-2.5v5L361.3,642.3z"/>
	<path class="st43" d="M361.3,642.3l-6.5-2.5v5L361.3,642.3z"/>
	<line class="st43" x1="258.1" y1="642.3" x2="361.3" y2="642.3"/>
	<rect x="289.7" y="627.8" class="st0" width="40" height="29"/>
	<path class="st38" d="M305.8,651.8h-3.3v-12.4c-1.2,1.1-2.6,2-4.3,2.5v-3c0.9-0.3,1.8-0.8,2.8-1.6c1-0.8,1.7-1.7,2.1-2.7h2.7V651.8
		z M321.8,648.7v3.1h-11.5c0.1-1.2,0.5-2.3,1.1-3.3s1.9-2.4,3.7-4.1c1.5-1.4,2.4-2.3,2.7-2.8c0.5-0.7,0.7-1.3,0.7-2
		c0-0.7-0.2-1.3-0.6-1.7c-0.4-0.4-0.9-0.6-1.6-0.6c-0.7,0-1.2,0.2-1.6,0.6c-0.4,0.4-0.6,1.1-0.7,2.1l-3.3-0.3
		c0.2-1.8,0.8-3.1,1.8-3.9c1-0.8,2.3-1.2,3.9-1.2c1.7,0,3,0.5,4,1.4c1,0.9,1.5,2,1.5,3.4c0,0.8-0.1,1.5-0.4,2.2
		c-0.3,0.7-0.7,1.4-1.3,2.2c-0.4,0.5-1.1,1.2-2.2,2.2c-1,1-1.7,1.6-2,1.9c-0.3,0.3-0.5,0.6-0.7,0.9H321.8z"/>
	<line class="st17" x1="822.6" y1="832.2" x2="37.4" y2="832.2"/>
	<path class="st40" d="M567.7,482.9l-6.9-0.5l1.5,4.8L567.7,482.9z"/>
	<line class="st17" x1="822.6" y1="832.2" x2="37.4" y2="832.2"/>
	<path class="st41" d="M567.7,482.9l-6.9-0.5l1.5,4.8L567.7,482.9z"/>
	<path class="st41" d="M181.4,615.7c-70.8-219.3,225.8-83.5,386.3-132.8"/>
	<rect x="278.8" y="478.6" class="st0" width="18" height="14"/>
	<path class="st44" d="M286.2,489.6h-1.5v-5.7c-0.5,0.5-1.2,0.9-1.9,1.1v-1.4c0.4-0.1,0.8-0.4,1.3-0.7c0.5-0.4,0.8-0.8,1-1.3h1.2
		V489.6z M291,481.7c0.8,0,1.4,0.3,1.8,0.8c0.5,0.6,0.8,1.7,0.8,3.2s-0.3,2.6-0.8,3.2c-0.4,0.5-1,0.8-1.8,0.8
		c-0.8,0-1.4-0.3-1.8-0.9c-0.5-0.6-0.7-1.6-0.7-3.2c0-1.5,0.3-2.5,0.8-3.2C289.6,481.9,290.2,481.7,291,481.7z M291,482.9
		c-0.2,0-0.3,0.1-0.5,0.2c-0.1,0.1-0.3,0.3-0.3,0.6c-0.1,0.4-0.2,1.1-0.2,2c0,0.9,0,1.6,0.1,1.9c0.1,0.3,0.2,0.6,0.4,0.7
		c0.1,0.1,0.3,0.2,0.5,0.2c0.2,0,0.4-0.1,0.5-0.2c0.1-0.1,0.3-0.3,0.3-0.6c0.1-0.4,0.2-1,0.2-2c0-0.9,0-1.5-0.1-1.9
		c-0.1-0.3-0.2-0.6-0.4-0.7C291.3,483,291.2,482.9,291,482.9z"/>
	<line class="st17" x1="822.6" y1="832.2" x2="37.4" y2="832.2"/>
	<path class="st40" d="M402.4,375.2l-3.7,5.9l4.9,1L402.4,375.2z"/>
	<line class="st17" x1="822.6" y1="832.2" x2="37.4" y2="832.2"/>
	<path class="st45" d="M402.4,375.2l-3.7,5.9l4.9,1L402.4,375.2z"/>
	<path class="st45" d="M181.1,615.7c-78.6-234.9,190.8-85.8,221.3-240.5"/>
	<rect x="244.8" y="458.4" class="st0" width="12" height="14"/>
	<path class="st46" d="M249.7,465.1c-0.4-0.2-0.7-0.4-0.9-0.7c-0.2-0.3-0.3-0.6-0.3-0.9c0-0.6,0.2-1.1,0.6-1.5s1-0.6,1.8-0.6
		c0.7,0,1.3,0.2,1.7,0.6c0.4,0.4,0.6,0.9,0.6,1.5c0,0.4-0.1,0.7-0.3,1c-0.2,0.3-0.5,0.5-0.8,0.6c0.4,0.2,0.8,0.4,1,0.8
		c0.2,0.3,0.3,0.7,0.3,1.2c0,0.7-0.2,1.3-0.7,1.8c-0.5,0.5-1.1,0.7-1.9,0.7c-0.7,0-1.3-0.2-1.8-0.6c-0.6-0.4-0.8-1.1-0.8-1.8
		c0-0.4,0.1-0.8,0.3-1.2C248.9,465.6,249.2,465.3,249.7,465.1z M250,463.6c0,0.3,0.1,0.5,0.3,0.7c0.2,0.2,0.4,0.3,0.7,0.3
		c0.3,0,0.5-0.1,0.7-0.3c0.2-0.2,0.3-0.4,0.3-0.7c0-0.3-0.1-0.5-0.3-0.7c-0.2-0.2-0.4-0.3-0.7-0.3c-0.3,0-0.5,0.1-0.7,0.3
		C250.1,463.1,250,463.3,250,463.6z M249.8,467c0,0.4,0.1,0.7,0.3,1c0.2,0.2,0.5,0.3,0.8,0.3c0.3,0,0.6-0.1,0.8-0.3
		c0.2-0.2,0.3-0.5,0.3-1c0-0.4-0.1-0.7-0.3-0.9c-0.2-0.2-0.5-0.3-0.8-0.3c-0.4,0-0.7,0.1-0.8,0.4S249.8,466.7,249.8,467z"/>
	<line class="st17" x1="822.6" y1="832.2" x2="37.4" y2="832.2"/>
	<path class="st40" d="M718.4,628.7l-6-3.5l-0.8,4.9L718.4,628.7z"/>
	<line class="st17" x1="822.6" y1="832.2" x2="37.4" y2="832.2"/>
	<path class="st47" d="M718.4,628.7l-6-3.5l-0.8,4.9L718.4,628.7z"/>
	<path class="st47" d="M183.1,615.7c-59.4-230.2,255-34.5,535.3,12.9"/>
	<rect x="317.4" y="511.1" class="st0" width="12" height="14"/>
	<path class="st7" d="M320.8,520l1.5-0.2c0,0.4,0.2,0.7,0.4,0.9c0.2,0.2,0.5,0.3,0.7,0.3c0.3,0,0.6-0.1,0.8-0.4
		c0.2-0.2,0.3-0.5,0.3-0.9c0-0.4-0.1-0.7-0.3-0.9c-0.2-0.2-0.5-0.3-0.7-0.3c-0.2,0-0.4,0-0.7,0.1l0.2-1.2c0.4,0,0.7-0.1,0.9-0.3
		c0.2-0.2,0.3-0.4,0.3-0.8c0-0.3-0.1-0.5-0.2-0.6c-0.2-0.2-0.4-0.2-0.6-0.2c-0.3,0-0.5,0.1-0.6,0.3c-0.2,0.2-0.3,0.4-0.3,0.8
		l-1.4-0.2c0.1-0.5,0.2-0.9,0.4-1.1c0.2-0.3,0.5-0.5,0.8-0.7c0.3-0.2,0.7-0.2,1.2-0.2c0.7,0,1.3,0.2,1.8,0.7
		c0.4,0.4,0.6,0.8,0.6,1.3c0,0.7-0.4,1.2-1.1,1.7c0.4,0.1,0.8,0.3,1.1,0.6c0.3,0.3,0.4,0.7,0.4,1.2c0,0.7-0.3,1.3-0.8,1.8
		c-0.5,0.5-1.1,0.7-1.9,0.7c-0.7,0-1.3-0.2-1.8-0.6C321.2,521.2,320.9,520.6,320.8,520z"/>
	<line class="st17" x1="822.6" y1="832.2" x2="37.4" y2="832.2"/>
	<path class="st5" d="M411.5,599.5l2.4-6.5l-5,0L411.5,599.5z"/>
	<line class="st17" x1="822.6" y1="832.2" x2="37.4" y2="832.2"/>
	<path class="st14" d="M411.5,599.5l2.4-6.5l-5,0L411.5,599.5z"/>
	<line class="st14" x1="409.7" y1="375.2" x2="411.5" y2="599.5"/>
	<rect x="383.6" y="466.4" class="st0" width="54" height="42"/>
	<path class="st5" d="M405.1,501.4h-4.4v-16.5c-1.6,1.5-3.5,2.6-5.7,3.3v-4c1.1-0.4,2.4-1.1,3.7-2.1c1.3-1,2.3-2.3,2.8-3.7h3.6
		V501.4z M422.9,501.4h-4.4v-16.5c-1.6,1.5-3.5,2.6-5.7,3.3v-4c1.1-0.4,2.4-1.1,3.7-2.1c1.3-1,2.3-2.3,2.8-3.7h3.6V501.4z"/>
	<line class="st17" x1="822.6" y1="832.2" x2="37.4" y2="832.2"/>
	<path class="st2" d="M461.5,599.5l6.6-2.3l-3.3-3.8L461.5,599.5z"/>
	<line class="st17" x1="822.6" y1="832.2" x2="37.4" y2="832.2"/>
	<path class="st3" d="M461.5,599.5l6.6-2.3l-3.3-3.8L461.5,599.5z"/>
	<line class="st3" x1="569.7" y1="506.4" x2="461.5" y2="599.5"/>
	<rect x="488.6" y="531.9" class="st0" width="54" height="42"/>
	<path class="st2" d="M510.1,566.9h-4.4v-16.5c-1.6,1.5-3.5,2.6-5.7,3.3v-4c1.1-0.4,2.4-1.1,3.7-2.1c1.3-1,2.3-2.3,2.8-3.7h3.6
		V566.9z M524,543.9c2.2,0,4,0.8,5.2,2.4c1.5,1.9,2.2,5,2.2,9.3c0,4.3-0.8,7.4-2.3,9.3c-1.2,1.6-3,2.3-5.2,2.3c-2.2,0-4-0.9-5.4-2.6
		c-1.4-1.7-2-4.8-2-9.2c0-4.3,0.8-7.4,2.3-9.3C520.1,544.7,521.8,543.9,524,543.9z M524,547.6c-0.5,0-1,0.2-1.4,0.5s-0.7,0.9-1,1.8
		c-0.3,1.1-0.5,3-0.5,5.7c0,2.7,0.1,4.5,0.4,5.5c0.3,1,0.6,1.7,1,2c0.4,0.3,0.9,0.5,1.4,0.5s1-0.2,1.4-0.5c0.4-0.3,0.7-0.9,1-1.8
		c0.3-1.1,0.5-3,0.5-5.7c0-2.7-0.1-4.5-0.4-5.5c-0.3-1-0.6-1.7-1-2C525,547.8,524.6,547.6,524,547.6z"/>
	<line class="st17" x1="822.6" y1="832.2" x2="37.4" y2="832.2"/>
	<path class="st7" d="M462.4,641.4l6.5,2.4l-0.1-5L462.4,641.4z"/>
	<line class="st17" x1="822.6" y1="832.2" x2="37.4" y2="832.2"/>
	<path class="st12" d="M462.4,641.4l6.5,2.4l-0.1-5L462.4,641.4z"/>
	<line class="st12" x1="718.4" y1="637" x2="462.4" y2="641.4"/>
	<rect x="572.4" y="618.2" class="st0" width="36" height="42"/>
	<path class="st7" d="M582.7,647.3l4.4-0.5c0.1,1,0.5,1.8,1.1,2.4c0.6,0.6,1.3,0.9,2.1,0.9c0.9,0,1.7-0.4,2.3-1.1
		c0.6-0.7,1-1.9,1-3.4c0-1.4-0.3-2.5-0.9-3.2c-0.6-0.7-1.5-1.1-2.5-1.1c-1.3,0-2.4,0.6-3.4,1.7l-3.6-0.5l2.3-11.9h11.6v4.1h-8.3
		l-0.7,3.9c1-0.5,2-0.7,3-0.7c1.9,0,3.6,0.7,5,2.1c1.4,1.4,2,3.3,2,5.5c0,1.9-0.5,3.6-1.6,5c-1.5,2-3.6,3-6.2,3
		c-2.1,0-3.8-0.6-5.2-1.7C583.7,650.7,582.9,649.2,582.7,647.3z"/>
	<line class="st17" x1="822.6" y1="832.2" x2="37.4" y2="832.2"/>
	<line class="st17" x1="822.6" y1="832.2" x2="37.4" y2="832.2"/>
	<line class="st17" x1="822.6" y1="832.2" x2="37.4" y2="832.2"/>
	<line class="st17" x1="822.6" y1="832.2" x2="37.4" y2="832.2"/>
	<line class="st17" x1="822.6" y1="832.2" x2="37.4" y2="832.2"/>
	<line class="st17" x1="822.6" y1="832.2" x2="37.4" y2="832.2"/>
	<line class="st17" x1="822.6" y1="832.2" x2="37.4" y2="832.2"/>
	<line class="st17" x1="822.6" y1="832.2" x2="37.4" y2="832.2"/>
	<line class="st17" x1="822.6" y1="832.2" x2="37.4" y2="832.2"/>
	<line class="st17" x1="822.6" y1="832.2" x2="37.4" y2="832.2"/>
	<line class="st17" x1="822.6" y1="832.2" x2="37.4" y2="832.2"/>
	<line class="st17" x1="822.6" y1="832.2" x2="37.4" y2="832.2"/>
	<line class="st17" x1="822.6" y1="832.2" x2="37.4" y2="832.2"/>
	<line class="st17" x1="822.6" y1="832.2" x2="37.4" y2="832.2"/>
	<line class="st17" x1="822.6" y1="832.2" x2="37.4" y2="832.2"/>
	<line class="st17" x1="822.6" y1="832.2" x2="37.4" y2="832.2"/>
	<line class="st17" x1="822.6" y1="832.2" x2="37.4" y2="832.2"/>
	<line class="st17" x1="822.6" y1="832.2" x2="37.4" y2="832.2"/>
	<line class="st17" x1="822.6" y1="832.2" x2="37.4" y2="832.2"/>
	<line class="st17" x1="822.6" y1="832.2" x2="37.4" y2="832.2"/>
	<line class="st17" x1="822.6" y1="832.2" x2="37.4" y2="832.2"/>
	<line class="st17" x1="822.6" y1="832.2" x2="37.4" y2="832.2"/>
	<line class="st17" x1="822.6" y1="832.2" x2="37.4" y2="832.2"/>
	<line class="st17" x1="822.6" y1="832.2" x2="37.4" y2="832.2"/>
	<rect x="361.3" y="599.5" class="st38" width="101.1" height="85.5"/>
	<rect x="361.3" y="599.5" class="st48" width="101.1" height="85.5"/>
	<path class="st0" d="M391,651.3l-3.6-15h3.1l2.3,10.3l2.8-10.3h3.6l2.6,10.5l2.3-10.5h3l-3.6,15h-3.2l-3-11.2l-3,11.2H391z
		 M408.7,638.9v-2.7h2.9v2.7H408.7z M408.7,651.3v-10.9h2.9v10.9H408.7z M414.5,651.3v-15h4.5l2.7,10.3l2.7-10.3h4.5v15h-2.8v-11.8
		l-3,11.8h-2.9l-3-11.8v11.8H414.5z M432,638.9v-2.7h2.9v2.7H432z M432,651.3v-10.9h2.9v10.9H432z"/>
	<rect x="37.9" y="9.3" class="st10" width="150.3" height="36"/>
	<rect x="37.9" y="9.3" class="st48" width="150.3" height="36"/>
	<path class="st0" d="M66.9,31.5l1.9-0.2c0.1,0.8,0.3,1.4,0.6,1.9c0.3,0.5,0.8,0.9,1.5,1.2c0.7,0.3,1.5,0.4,2.3,0.4
		c0.8,0,1.4-0.1,2-0.3c0.6-0.2,1-0.5,1.3-0.9c0.3-0.4,0.4-0.8,0.4-1.3c0-0.5-0.1-0.9-0.4-1.2c-0.3-0.4-0.7-0.7-1.4-0.9
		c-0.4-0.2-1.3-0.4-2.7-0.7c-1.4-0.3-2.3-0.6-2.9-0.9C68.9,28,68.4,27.6,68,27c-0.4-0.6-0.5-1.2-0.5-1.9c0-0.8,0.2-1.5,0.6-2.1
		c0.4-0.7,1.1-1.2,1.9-1.5s1.7-0.5,2.8-0.5c1.1,0,2.1,0.2,2.9,0.5c0.8,0.4,1.5,0.9,2,1.6c0.5,0.7,0.7,1.5,0.7,2.4l-1.9,0.1
		c-0.1-0.9-0.5-1.7-1-2.1c-0.6-0.5-1.5-0.7-2.6-0.7c-1.2,0-2.1,0.2-2.6,0.7c-0.6,0.4-0.8,1-0.8,1.6c0,0.5,0.2,1,0.6,1.3
		c0.4,0.4,1.4,0.7,3,1.1c1.6,0.4,2.7,0.7,3.3,1c0.9,0.4,1.5,0.9,1.9,1.5c0.4,0.6,0.6,1.3,0.6,2.1c0,0.8-0.2,1.6-0.7,2.3
		c-0.5,0.7-1.1,1.3-2,1.6c-0.9,0.4-1.8,0.6-2.9,0.6c-1.4,0-2.5-0.2-3.4-0.6c-0.9-0.4-1.6-1-2.2-1.8C67.2,33.4,67,32.5,66.9,31.5z
		 M85.4,34.6l0.3,1.6c-0.5,0.1-1,0.2-1.4,0.2c-0.7,0-1.2-0.1-1.6-0.3c-0.4-0.2-0.6-0.5-0.8-0.8c-0.2-0.3-0.2-1.1-0.2-2.2v-6.3h-1.3
		v-1.4h1.3v-2.7l1.8-1.1v3.8h1.9v1.4h-1.9v6.4c0,0.5,0,0.9,0.1,1c0.1,0.2,0.2,0.3,0.3,0.4c0.1,0.1,0.4,0.1,0.6,0.1
		C84.8,34.7,85.1,34.7,85.4,34.6z M87.2,23.4v-2.1h1.8v2.1H87.2z M87.2,36.3V25.4h1.8v10.9H87.2z M91.9,40.5V25.4h1.7v1.4
		c0.4-0.6,0.8-1,1.3-1.3c0.5-0.3,1.1-0.4,1.8-0.4c0.9,0,1.8,0.2,2.5,0.7c0.7,0.5,1.2,1.2,1.6,2c0.4,0.9,0.5,1.8,0.5,2.9
		c0,1.1-0.2,2.1-0.6,3c-0.4,0.9-1,1.6-1.7,2.1c-0.8,0.5-1.6,0.7-2.4,0.7c-0.6,0-1.2-0.1-1.7-0.4c-0.5-0.3-0.9-0.6-1.2-1v5.3H91.9z
		 M93.6,30.9c0,1.4,0.3,2.4,0.9,3.1s1.3,1,2.1,1c0.8,0,1.5-0.3,2.1-1c0.6-0.7,0.9-1.8,0.9-3.2c0-1.4-0.3-2.4-0.9-3.1
		c-0.6-0.7-1.3-1-2-1c-0.8,0-1.5,0.4-2.1,1.1C93.9,28.4,93.6,29.5,93.6,30.9z M111,32.8l1.9,0.2c-0.3,1.1-0.9,2-1.7,2.6
		c-0.8,0.6-1.9,0.9-3.1,0.9c-1.6,0-2.9-0.5-3.8-1.5c-0.9-1-1.4-2.4-1.4-4.1c0-1.8,0.5-3.2,1.4-4.3c0.9-1,2.2-1.5,3.7-1.5
		c1.5,0,2.6,0.5,3.6,1.5s1.4,2.4,1.4,4.2c0,0.1,0,0.3,0,0.5h-8.1c0.1,1.2,0.4,2.1,1,2.8c0.6,0.6,1.4,1,2.3,1c0.7,0,1.3-0.2,1.7-0.5
		C110.4,34.1,110.7,33.6,111,32.8z M105,29.8h6.1c-0.1-0.9-0.3-1.6-0.7-2.1c-0.6-0.7-1.3-1.1-2.3-1.1c-0.8,0-1.6,0.3-2.1,0.9
		C105.3,28.1,105,28.9,105,29.8z M115.3,36.3V25.4h1.7V27c0.8-1.2,2-1.8,3.5-1.8c0.7,0,1.3,0.1,1.8,0.4c0.5,0.2,1,0.5,1.2,0.9
		c0.3,0.4,0.5,0.8,0.6,1.4c0.1,0.3,0.1,0.9,0.1,1.8v6.7h-1.8v-6.6c0-0.8-0.1-1.3-0.2-1.7c-0.1-0.4-0.4-0.7-0.8-0.9
		c-0.4-0.2-0.8-0.3-1.3-0.3c-0.8,0-1.5,0.2-2,0.7c-0.6,0.5-0.9,1.4-0.9,2.8v6H115.3z M134,36.3v-1.4c-0.7,1.1-1.7,1.6-3,1.6
		c-0.9,0-1.7-0.2-2.4-0.7c-0.7-0.5-1.3-1.1-1.7-2c-0.4-0.9-0.6-1.8-0.6-3c0-1.1,0.2-2.1,0.5-3c0.4-0.9,0.9-1.6,1.6-2
		c0.7-0.5,1.5-0.7,2.4-0.7c0.7,0,1.2,0.1,1.8,0.4c0.5,0.3,0.9,0.6,1.3,1.1v-5.4h1.8v15H134z M128.2,30.9c0,1.4,0.3,2.4,0.9,3.1
		s1.3,1,2.1,1c0.8,0,1.5-0.3,2.1-1c0.6-0.7,0.9-1.7,0.9-3c0-1.5-0.3-2.6-0.9-3.3s-1.3-1-2.1-1c-0.8,0-1.5,0.3-2.1,1
		C128.4,28.4,128.2,29.4,128.2,30.9z M138.6,23.4v-2.1h1.8v2.1H138.6z M138.6,36.3V25.4h1.8v10.9H138.6z M150.4,35
		c-0.7,0.6-1.3,1-2,1.2c-0.6,0.2-1.3,0.4-2,0.4c-1.2,0-2.1-0.3-2.8-0.9c-0.6-0.6-1-1.3-1-2.3c0-0.5,0.1-1,0.4-1.5
		c0.2-0.4,0.6-0.8,1-1.1c0.4-0.3,0.8-0.5,1.3-0.6c0.4-0.1,0.9-0.2,1.6-0.3c1.5-0.2,2.6-0.4,3.3-0.6c0-0.3,0-0.4,0-0.5
		c0-0.7-0.2-1.3-0.5-1.6c-0.5-0.4-1.2-0.6-2.1-0.6c-0.9,0-1.5,0.2-1.9,0.5c-0.4,0.3-0.7,0.8-0.9,1.6l-1.8-0.3
		c0.2-0.8,0.4-1.4,0.8-1.9c0.4-0.5,0.9-0.8,1.6-1.1c0.7-0.3,1.5-0.4,2.5-0.4c0.9,0,1.7,0.1,2.3,0.3c0.6,0.2,1,0.5,1.3,0.8
		c0.3,0.3,0.5,0.8,0.6,1.3c0.1,0.3,0.1,0.9,0.1,1.7v2.5c0,1.7,0,2.8,0.1,3.3c0.1,0.5,0.2,0.9,0.5,1.3h-1.9
		C150.6,35.9,150.4,35.5,150.4,35z M150.2,30.8c-0.7,0.3-1.7,0.5-3,0.7c-0.8,0.1-1.3,0.2-1.6,0.4c-0.3,0.1-0.6,0.3-0.7,0.6
		c-0.2,0.3-0.3,0.6-0.3,0.9c0,0.5,0.2,0.9,0.6,1.2s0.9,0.5,1.6,0.5c0.7,0,1.3-0.2,1.9-0.5c0.6-0.3,1-0.7,1.2-1.3
		c0.2-0.4,0.3-1,0.3-1.8V30.8z M159,34.6l0.3,1.6c-0.5,0.1-1,0.2-1.4,0.2c-0.7,0-1.2-0.1-1.6-0.3c-0.4-0.2-0.6-0.5-0.8-0.8
		c-0.2-0.3-0.2-1.1-0.2-2.2v-6.3h-1.3v-1.4h1.3v-2.7l1.8-1.1v3.8h1.9v1.4h-1.9v6.4c0,0.5,0,0.9,0.1,1c0.1,0.2,0.2,0.3,0.3,0.4
		c0.1,0.1,0.4,0.1,0.6,0.1C158.4,34.7,158.6,34.7,159,34.6z"/>
	<rect x="396" y="9.3" class="st8" width="68.4" height="36"/>
	<rect x="396" y="9.3" class="st48" width="68.4" height="36"/>
	<path class="st0" d="M420.1,36.3l5.8-15h2.1l6.1,15h-2.3l-1.8-4.5h-6.3l-1.7,4.5H420.1z M424.5,30.1h5.1L428,26
		c-0.5-1.3-0.8-2.3-1.1-3.1c-0.2,1-0.5,1.9-0.8,2.9L424.5,30.1z M436.1,36.3v-15h2v15H436.1z"/>
	<rect x="484.6" y="9.3" class="st49" width="53" height="36"/>
	<rect x="484.6" y="9.3" class="st48" width="53" height="36"/>
	<path class="st0" d="M490.6,31.5l1.9-0.2c0.1,0.8,0.3,1.4,0.6,1.9c0.3,0.5,0.8,0.9,1.5,1.2c0.7,0.3,1.5,0.4,2.3,0.4
		c0.8,0,1.4-0.1,2-0.3c0.6-0.2,1-0.5,1.3-0.9c0.3-0.4,0.4-0.8,0.4-1.3c0-0.5-0.1-0.9-0.4-1.2c-0.3-0.4-0.7-0.7-1.4-0.9
		c-0.4-0.2-1.3-0.4-2.7-0.7c-1.4-0.3-2.3-0.6-2.9-0.9c-0.7-0.4-1.3-0.8-1.6-1.4c-0.4-0.6-0.5-1.2-0.5-1.9c0-0.8,0.2-1.5,0.6-2.1
		c0.4-0.7,1.1-1.2,1.9-1.5c0.8-0.3,1.7-0.5,2.8-0.5c1.1,0,2.1,0.2,2.9,0.5s1.5,0.9,2,1.6c0.5,0.7,0.7,1.5,0.7,2.4l-1.9,0.1
		c-0.1-0.9-0.5-1.7-1-2.1c-0.6-0.5-1.5-0.7-2.6-0.7c-1.2,0-2.1,0.2-2.6,0.7c-0.6,0.4-0.8,1-0.8,1.6c0,0.5,0.2,1,0.6,1.3
		c0.4,0.4,1.4,0.7,3,1.1c1.6,0.4,2.7,0.7,3.3,1c0.9,0.4,1.5,0.9,1.9,1.5c0.4,0.6,0.6,1.3,0.6,2.1c0,0.8-0.2,1.6-0.7,2.3
		c-0.5,0.7-1.1,1.3-2,1.6c-0.9,0.4-1.8,0.6-2.9,0.6c-1.4,0-2.5-0.2-3.4-0.6c-0.9-0.4-1.6-1-2.2-1.8
		C490.9,33.4,490.6,32.5,490.6,31.5z M505.3,36.3v-15h2v6.2h7.8v-6.2h2v15h-2v-7.1h-7.8v7.1H505.3z M520.3,36.3v-15h2v7.5l7.5-7.5
		h2.7l-6.3,6.1l6.6,8.9h-2.6l-5.4-7.6l-2.5,2.4v5.2H520.3z"/>
	<rect x="208.4" y="9.3" class="st50" width="167.3" height="36"/>
	<rect x="208.4" y="9.3" class="st48" width="167.3" height="36"/>
	<path class="st0" d="M238.7,36.3v-15h5.7c1,0,1.7,0,2.3,0.1c0.7,0.1,1.4,0.4,1.9,0.7c0.5,0.3,0.9,0.8,1.2,1.5
		c0.3,0.6,0.5,1.3,0.5,2c0,1.3-0.4,2.4-1.2,3.3c-0.8,0.9-2.3,1.3-4.4,1.3h-3.9v6.1H238.7z M240.7,28.4h3.9c1.3,0,2.2-0.2,2.7-0.7
		c0.5-0.5,0.8-1.2,0.8-2c0-0.6-0.2-1.2-0.5-1.6c-0.3-0.4-0.7-0.7-1.3-0.9c-0.3-0.1-1-0.1-1.9-0.1h-3.8V28.4z M252.4,36.3V25.4h1.7
		v1.7c0.4-0.8,0.8-1.3,1.2-1.5c0.4-0.2,0.8-0.4,1.2-0.4c0.6,0,1.2,0.2,1.9,0.6l-0.6,1.7c-0.4-0.3-0.9-0.4-1.3-0.4
		c-0.4,0-0.8,0.1-1.1,0.4c-0.3,0.2-0.6,0.6-0.7,1c-0.2,0.7-0.3,1.4-0.3,2.2v5.7H252.4z M266.5,35c-0.7,0.6-1.3,1-2,1.2
		c-0.6,0.2-1.3,0.4-2,0.4c-1.2,0-2.1-0.3-2.8-0.9c-0.6-0.6-1-1.3-1-2.3c0-0.5,0.1-1,0.4-1.5c0.2-0.4,0.6-0.8,1-1.1
		c0.4-0.3,0.8-0.5,1.3-0.6c0.4-0.1,0.9-0.2,1.6-0.3c1.5-0.2,2.6-0.4,3.3-0.6c0-0.3,0-0.4,0-0.5c0-0.7-0.2-1.3-0.5-1.6
		c-0.5-0.4-1.2-0.6-2.1-0.6c-0.9,0-1.5,0.2-1.9,0.5c-0.4,0.3-0.7,0.8-0.9,1.6l-1.8-0.3c0.2-0.8,0.4-1.4,0.8-1.9
		c0.4-0.5,0.9-0.8,1.6-1.1c0.7-0.3,1.5-0.4,2.5-0.4c0.9,0,1.7,0.1,2.3,0.3c0.6,0.2,1,0.5,1.3,0.8c0.3,0.3,0.5,0.8,0.6,1.3
		c0.1,0.3,0.1,0.9,0.1,1.7v2.5c0,1.7,0,2.8,0.1,3.3s0.2,0.9,0.5,1.3h-1.9C266.7,35.9,266.6,35.5,266.5,35z M266.4,30.8
		c-0.7,0.3-1.7,0.5-3,0.7c-0.8,0.1-1.3,0.2-1.6,0.4c-0.3,0.1-0.6,0.3-0.7,0.6c-0.2,0.3-0.3,0.6-0.3,0.9c0,0.5,0.2,0.9,0.6,1.2
		c0.4,0.3,0.9,0.5,1.6,0.5c0.7,0,1.3-0.2,1.9-0.5c0.6-0.3,1-0.7,1.2-1.3c0.2-0.4,0.3-1,0.3-1.8V30.8z M271.1,36.3v-15h1.8v8.6
		l4.4-4.4h2.4l-4.2,4l4.6,6.8h-2.3l-3.6-5.6L273,32v4.3H271.1z M285.7,34.6l0.3,1.6c-0.5,0.1-1,0.2-1.4,0.2c-0.7,0-1.2-0.1-1.6-0.3
		c-0.4-0.2-0.6-0.5-0.8-0.8s-0.2-1.1-0.2-2.2v-6.3h-1.3v-1.4h1.3v-2.7l1.8-1.1v3.8h1.9v1.4h-1.9v6.4c0,0.5,0,0.9,0.1,1
		c0.1,0.2,0.2,0.3,0.3,0.4c0.1,0.1,0.4,0.1,0.6,0.1C285,34.7,285.3,34.7,285.7,34.6z M287.5,23.4v-2.1h1.8v2.1H287.5z M287.5,36.3
		V25.4h1.8v10.9H287.5z M292.1,36.3v-15h1.8v8.6l4.4-4.4h2.4l-4.2,4l4.6,6.8h-2.3l-3.6-5.6L294,32v4.3H292.1z M309.7,35
		c-0.7,0.6-1.3,1-2,1.2c-0.6,0.2-1.3,0.4-2,0.4c-1.2,0-2.1-0.3-2.8-0.9c-0.6-0.6-1-1.3-1-2.3c0-0.5,0.1-1,0.4-1.5
		c0.2-0.4,0.6-0.8,1-1.1c0.4-0.3,0.8-0.5,1.3-0.6c0.4-0.1,0.9-0.2,1.6-0.3c1.5-0.2,2.6-0.4,3.3-0.6c0-0.3,0-0.4,0-0.5
		c0-0.7-0.2-1.3-0.5-1.6c-0.5-0.4-1.2-0.6-2.1-0.6c-0.9,0-1.5,0.2-1.9,0.5c-0.4,0.3-0.7,0.8-0.9,1.6l-1.8-0.3
		c0.2-0.8,0.4-1.4,0.8-1.9c0.4-0.5,0.9-0.8,1.6-1.1c0.7-0.3,1.5-0.4,2.5-0.4c0.9,0,1.7,0.1,2.3,0.3c0.6,0.2,1,0.5,1.3,0.8
		c0.3,0.3,0.5,0.8,0.6,1.3c0.1,0.3,0.1,0.9,0.1,1.7v2.5c0,1.7,0,2.8,0.1,3.3c0.1,0.5,0.2,0.9,0.5,1.3h-1.9
		C309.9,35.9,309.8,35.5,309.7,35z M309.6,30.8c-0.7,0.3-1.7,0.5-3,0.7c-0.8,0.1-1.3,0.2-1.6,0.4c-0.3,0.1-0.6,0.3-0.7,0.6
		c-0.2,0.3-0.3,0.6-0.3,0.9c0,0.5,0.2,0.9,0.6,1.2c0.4,0.3,0.9,0.5,1.6,0.5c0.7,0,1.3-0.2,1.9-0.5c0.6-0.3,1-0.7,1.2-1.3
		c0.2-0.4,0.3-1,0.3-1.8V30.8z M314.3,36.3V25.4h1.7V27c0.8-1.2,2-1.8,3.5-1.8c0.7,0,1.3,0.1,1.8,0.4c0.5,0.2,1,0.5,1.2,0.9
		c0.3,0.4,0.5,0.8,0.6,1.4c0.1,0.3,0.1,0.9,0.1,1.8v6.7h-1.8v-6.6c0-0.8-0.1-1.3-0.2-1.7c-0.1-0.4-0.4-0.7-0.8-0.9
		c-0.4-0.2-0.8-0.3-1.3-0.3c-0.8,0-1.5,0.2-2,0.7c-0.6,0.5-0.9,1.4-0.9,2.8v6H314.3z M330,34.6l0.3,1.6c-0.5,0.1-1,0.2-1.4,0.2
		c-0.7,0-1.2-0.1-1.6-0.3c-0.4-0.2-0.6-0.5-0.8-0.8s-0.2-1.1-0.2-2.2v-6.3H325v-1.4h1.3v-2.7l1.8-1.1v3.8h1.9v1.4h-1.9v6.4
		c0,0.5,0,0.9,0.1,1c0.1,0.2,0.2,0.3,0.3,0.4c0.1,0.1,0.4,0.1,0.6,0.1C329.4,34.7,329.7,34.7,330,34.6z M331.8,23.4v-2.1h1.8v2.1
		H331.8z M331.8,36.3V25.4h1.8v10.9H331.8z M336.5,36.3V25.4h1.7V27c0.8-1.2,2-1.8,3.5-1.8c0.7,0,1.3,0.1,1.8,0.4
		c0.5,0.2,1,0.5,1.2,0.9c0.3,0.4,0.5,0.8,0.6,1.4c0.1,0.3,0.1,0.9,0.1,1.8v6.7h-1.8v-6.6c0-0.8-0.1-1.3-0.2-1.7
		c-0.1-0.4-0.4-0.7-0.8-0.9c-0.4-0.2-0.8-0.3-1.3-0.3c-0.8,0-1.5,0.2-2,0.7c-0.6,0.5-0.9,1.4-0.9,2.8v6H336.5z"/>
	<rect x="567.7" y="431.5" class="st1" width="90.9" height="74.9"/>
	<path class="st2" d="M606.2,472.4v-2.5h6.5v6c-0.6,0.6-1.6,1.2-2.8,1.6s-2.4,0.7-3.7,0.7c-1.6,0-2.9-0.3-4.1-1
		c-1.2-0.7-2.1-1.6-2.6-2.8c-0.6-1.2-0.9-2.6-0.9-4c0-1.6,0.3-3,1-4.2s1.6-2.1,2.9-2.8c1-0.5,2.2-0.7,3.6-0.7c1.9,0,3.3,0.4,4.4,1.2
		c1.1,0.8,1.7,1.9,2,3.2l-3,0.6c-0.2-0.7-0.6-1.3-1.2-1.7c-0.6-0.4-1.3-0.6-2.2-0.6c-1.3,0-2.4,0.4-3.2,1.3
		c-0.8,0.8-1.2,2.1-1.2,3.7c0,1.8,0.4,3.1,1.2,4c0.8,0.9,1.8,1.3,3.1,1.3c0.6,0,1.3-0.1,1.9-0.4s1.2-0.6,1.6-0.9v-1.9H606.2z
		 M614.8,473l3-0.3c0.2,1,0.5,1.7,1.1,2.2c0.5,0.5,1.3,0.7,2.2,0.7c1,0,1.7-0.2,2.2-0.6c0.5-0.4,0.8-0.9,0.8-1.5
		c0-0.4-0.1-0.7-0.3-0.9c-0.2-0.3-0.6-0.5-1.1-0.6c-0.4-0.1-1.2-0.3-2.4-0.7c-1.6-0.4-2.8-0.9-3.4-1.5c-0.9-0.8-1.4-1.8-1.4-3
		c0-0.8,0.2-1.5,0.7-2.2c0.4-0.7,1.1-1.2,1.9-1.5c0.8-0.3,1.8-0.5,2.9-0.5c1.9,0,3.3,0.4,4.3,1.2c1,0.8,1.5,1.9,1.5,3.3l-3,0.1
		c-0.1-0.8-0.4-1.3-0.8-1.7c-0.4-0.3-1.1-0.5-1.9-0.5c-0.9,0-1.6,0.2-2.1,0.5c-0.3,0.2-0.5,0.5-0.5,0.9c0,0.4,0.2,0.7,0.5,0.9
		c0.4,0.3,1.3,0.7,2.8,1c1.5,0.3,2.6,0.7,3.3,1.1c0.7,0.4,1.3,0.9,1.7,1.5c0.4,0.6,0.6,1.4,0.6,2.4c0,0.9-0.2,1.7-0.7,2.4
		c-0.5,0.8-1.2,1.3-2,1.7c-0.9,0.4-2,0.5-3.3,0.5c-1.9,0-3.4-0.4-4.4-1.3C615.6,476,615,474.7,614.8,473z"/>
	<rect x="361.9" y="303.6" class="st0" width="95.1" height="71.5"/>
	<rect x="361.9" y="303.6" class="st4" width="95.1" height="71.5"/>
	<path class="st5" d="M398.9,342.9v-2.5h6.5v6c-0.6,0.6-1.6,1.2-2.8,1.6s-2.4,0.7-3.7,0.7c-1.6,0-2.9-0.3-4.1-1
		c-1.2-0.7-2.1-1.6-2.6-2.8s-0.9-2.6-0.9-4c0-1.6,0.3-3,1-4.2c0.7-1.2,1.6-2.1,2.9-2.8c1-0.5,2.2-0.7,3.6-0.7c1.9,0,3.3,0.4,4.4,1.2
		c1.1,0.8,1.7,1.9,2,3.2l-3,0.6c-0.2-0.7-0.6-1.3-1.2-1.7c-0.6-0.4-1.3-0.6-2.2-0.6c-1.3,0-2.4,0.4-3.2,1.3s-1.2,2.1-1.2,3.7
		c0,1.8,0.4,3.1,1.2,4s1.8,1.3,3.1,1.3c0.6,0,1.3-0.1,1.9-0.4c0.6-0.3,1.2-0.6,1.6-0.9v-1.9H398.9z M410.4,348.4l-3.6-15h3.1
		l2.3,10.3l2.8-10.3h3.6l2.6,10.5l2.3-10.5h3l-3.6,15h-3.2l-3-11.2l-3,11.2H410.4z"/>
	<rect x="718.4" y="599.2" class="st6" width="89.1" height="73.9"/>
	<path class="st7" d="M746.4,645.2v-15h3l6.2,10v-10h2.8v15h-3l-6.1-9.8v9.8H746.4z M763.7,645.2l-3.6-15h3.1l2.3,10.3l2.8-10.3h3.6
		l2.6,10.5l2.3-10.5h3l-3.6,15H773l-3-11.2l-3,11.2H763.7z"/>
	<rect x="585.9" y="9.3" class="st49" width="94" height="36"/>
	<rect x="585.9" y="9.3" class="st48" width="94" height="36"/>
	<path class="st0" d="M591.8,31.5l1.9-0.2c0.1,0.8,0.3,1.4,0.6,1.9c0.3,0.5,0.8,0.9,1.5,1.2c0.7,0.3,1.5,0.4,2.3,0.4
		c0.8,0,1.4-0.1,2-0.3c0.6-0.2,1-0.5,1.3-0.9c0.3-0.4,0.4-0.8,0.4-1.3c0-0.5-0.1-0.9-0.4-1.2c-0.3-0.4-0.7-0.7-1.4-0.9
		c-0.4-0.2-1.3-0.4-2.7-0.7c-1.4-0.3-2.3-0.6-2.9-0.9c-0.7-0.4-1.3-0.8-1.6-1.4c-0.4-0.6-0.5-1.2-0.5-1.9c0-0.8,0.2-1.5,0.6-2.1
		c0.4-0.7,1.1-1.2,1.9-1.5s1.7-0.5,2.8-0.5c1.1,0,2.1,0.2,2.9,0.5s1.5,0.9,2,1.6c0.5,0.7,0.7,1.5,0.7,2.4l-1.9,0.1
		c-0.1-0.9-0.5-1.7-1-2.1c-0.6-0.5-1.5-0.7-2.6-0.7c-1.2,0-2.1,0.2-2.6,0.7c-0.6,0.4-0.8,1-0.8,1.6c0,0.5,0.2,1,0.6,1.3
		c0.4,0.4,1.4,0.7,3,1.1c1.6,0.4,2.7,0.7,3.3,1c0.9,0.4,1.5,0.9,1.9,1.5c0.4,0.6,0.6,1.3,0.6,2.1c0,0.8-0.2,1.6-0.7,2.3
		c-0.5,0.7-1.1,1.3-2,1.6c-0.9,0.4-1.8,0.6-2.9,0.6c-1.4,0-2.5-0.2-3.4-0.6c-0.9-0.4-1.6-1-2.2-1.8
		C592.1,33.4,591.9,32.5,591.8,31.5z M606.6,36.3v-15h2v6.2h7.8v-6.2h2v15h-2v-7.1h-7.8v7.1H606.6z M621.6,36.3v-15h2v7.5l7.5-7.5
		h2.7l-6.3,6.1l6.6,8.9h-2.6l-5.4-7.6l-2.5,2.4v5.2H621.6z M643.6,28.1c-0.8-0.3-1.3-0.7-1.7-1.2c-0.4-0.5-0.6-1.1-0.6-1.9
		c0-1.1,0.4-2,1.2-2.8c0.8-0.7,1.8-1.1,3.1-1.1c1.3,0,2.4,0.4,3.2,1.1c0.8,0.8,1.2,1.7,1.2,2.8c0,0.7-0.2,1.3-0.5,1.8
		c-0.4,0.5-0.9,0.9-1.7,1.2c0.9,0.3,1.6,0.8,2.1,1.5c0.5,0.7,0.7,1.5,0.7,2.4c0,1.3-0.5,2.4-1.4,3.2c-0.9,0.9-2.1,1.3-3.6,1.3
		c-1.5,0-2.7-0.4-3.6-1.3c-0.9-0.9-1.4-2-1.4-3.3c0-1,0.3-1.8,0.8-2.5C642,28.8,642.7,28.4,643.6,28.1z M643.2,25
		c0,0.7,0.2,1.3,0.7,1.7c0.5,0.5,1.1,0.7,1.8,0.7c0.7,0,1.3-0.2,1.8-0.7c0.5-0.4,0.7-1,0.7-1.6c0-0.7-0.2-1.2-0.7-1.7
		c-0.5-0.5-1.1-0.7-1.8-0.7c-0.7,0-1.3,0.2-1.8,0.7C643.5,23.9,643.2,24.4,643.2,25z M642.7,32c0,0.5,0.1,1,0.4,1.5
		c0.3,0.5,0.6,0.9,1.1,1.1c0.5,0.3,1,0.4,1.6,0.4c0.9,0,1.6-0.3,2.2-0.9s0.9-1.3,0.9-2.2c0-0.9-0.3-1.6-0.9-2.2
		c-0.6-0.6-1.3-0.9-2.2-0.9c-0.9,0-1.6,0.3-2.2,0.9C642.9,30.4,642.7,31.1,642.7,32z M652.5,28.9c0-1.8,0.2-3.2,0.5-4.3
		c0.4-1.1,0.9-1.9,1.6-2.5c0.7-0.6,1.6-0.9,2.7-0.9c0.8,0,1.5,0.2,2.1,0.5c0.6,0.3,1.1,0.8,1.5,1.4c0.4,0.6,0.7,1.4,0.9,2.2
		c0.2,0.9,0.3,2.1,0.3,3.6c0,1.8-0.2,3.2-0.5,4.3c-0.4,1.1-0.9,1.9-1.6,2.5c-0.7,0.6-1.6,0.9-2.7,0.9c-1.4,0-2.6-0.5-3.4-1.5
		C653,33.8,652.5,31.7,652.5,28.9z M654.3,28.9c0,2.5,0.3,4.1,0.9,4.9s1.3,1.2,2.1,1.2c0.9,0,1.6-0.4,2.1-1.2s0.9-2.5,0.9-4.9
		c0-2.5-0.3-4.1-0.9-4.9c-0.6-0.8-1.3-1.2-2.2-1.2c-0.8,0-1.5,0.4-2,1.1C654.7,24.7,654.3,26.4,654.3,28.9z M664.7,36.3v-15h1.8v5.4
		c0.9-1,1.9-1.5,3.3-1.5c0.8,0,1.5,0.2,2.1,0.5c0.6,0.3,1,0.8,1.3,1.3c0.3,0.6,0.4,1.4,0.4,2.4v6.9h-1.8v-6.9c0-0.9-0.2-1.6-0.6-2
		c-0.4-0.4-1-0.6-1.7-0.6c-0.5,0-1.1,0.1-1.5,0.4c-0.5,0.3-0.8,0.7-1,1.2c-0.2,0.5-0.3,1.2-0.3,2v6H664.7z"/>
	<rect x="728.1" y="9.3" class="st49" width="94" height="36"/>
	<rect x="728.1" y="9.3" class="st48" width="94" height="36"/>
	<path class="st0" d="M734.1,31.5l1.9-0.2c0.1,0.8,0.3,1.4,0.6,1.9c0.3,0.5,0.8,0.9,1.5,1.2c0.7,0.3,1.5,0.4,2.3,0.4
		c0.8,0,1.4-0.1,2-0.3c0.6-0.2,1-0.5,1.3-0.9c0.3-0.4,0.4-0.8,0.4-1.3c0-0.5-0.1-0.9-0.4-1.2c-0.3-0.4-0.7-0.7-1.4-0.9
		c-0.4-0.2-1.3-0.4-2.7-0.7c-1.4-0.3-2.3-0.6-2.9-0.9c-0.7-0.4-1.3-0.8-1.6-1.4c-0.4-0.6-0.5-1.2-0.5-1.9c0-0.8,0.2-1.5,0.6-2.1
		c0.4-0.7,1.1-1.2,1.9-1.5s1.7-0.5,2.8-0.5c1.1,0,2.1,0.2,2.9,0.5s1.5,0.9,2,1.6c0.5,0.7,0.7,1.5,0.7,2.4l-1.9,0.1
		c-0.1-0.9-0.5-1.7-1-2.1c-0.6-0.5-1.5-0.7-2.6-0.7c-1.2,0-2.1,0.2-2.6,0.7c-0.6,0.4-0.8,1-0.8,1.6c0,0.5,0.2,1,0.6,1.3
		c0.4,0.4,1.4,0.7,3,1.1c1.6,0.4,2.7,0.7,3.3,1c0.9,0.4,1.5,0.9,1.9,1.5c0.4,0.6,0.6,1.3,0.6,2.1c0,0.8-0.2,1.6-0.7,2.3
		c-0.5,0.7-1.1,1.3-2,1.6c-0.9,0.4-1.8,0.6-2.9,0.6c-1.4,0-2.5-0.2-3.4-0.6c-0.9-0.4-1.6-1-2.2-1.8
		C734.4,33.4,734.1,32.5,734.1,31.5z M748.8,36.3v-15h2v6.2h7.8v-6.2h2v15h-2v-7.1h-7.8v7.1H748.8z M763.8,36.3v-15h2v7.5l7.5-7.5
		h2.7l-6.3,6.1l6.6,8.9h-2.6l-5.4-7.6l-2.5,2.4v5.2H763.8z M788.9,36.3v-3.6h-6.5V31l6.9-9.7h1.5V31h2v1.7h-2v3.6H788.9z M788.9,31
		v-6.8l-4.7,6.8H788.9z M801.7,36.3h-1.8V24.5c-0.4,0.4-1,0.9-1.8,1.3c-0.7,0.4-1.4,0.7-1.9,1V25c1-0.5,1.9-1.1,2.7-1.8
		c0.8-0.7,1.3-1.4,1.6-2h1.2V36.3z M806.9,36.3v-15h1.8v5.4c0.9-1,1.9-1.5,3.3-1.5c0.8,0,1.5,0.2,2.1,0.5c0.6,0.3,1,0.8,1.3,1.3
		c0.3,0.6,0.4,1.4,0.4,2.4v6.9h-1.8v-6.9c0-0.9-0.2-1.6-0.6-2c-0.4-0.4-1-0.6-1.7-0.6c-0.5,0-1.1,0.1-1.5,0.4
		c-0.5,0.3-0.8,0.7-1,1.2c-0.2,0.5-0.3,1.2-0.3,2v6H806.9z"/>
	<rect x="294.5" y="760.3" class="st0" width="235.7" height="70.4"/>
	<rect x="294.5" y="760.3" class="st51" width="235.7" height="70.4"/>
	<path class="st38" d="M318.3,804.5v-15h10.3v2.5h-7.3v3.5h6.3v2.5h-6.3v6.4H318.3z M337.4,801l2.9,0.5c-0.4,1.1-1,1.9-1.8,2.4
		c-0.8,0.6-1.8,0.8-3,0.8c-1.9,0-3.3-0.6-4.2-1.9c-0.7-1-1.1-2.2-1.1-3.8c0-1.8,0.5-3.2,1.4-4.2c0.9-1,2.1-1.5,3.6-1.5
		c1.6,0,2.9,0.5,3.8,1.6c0.9,1.1,1.4,2.7,1.3,4.9h-7.2c0,0.9,0.3,1.5,0.7,2c0.4,0.5,1,0.7,1.7,0.7c0.4,0,0.8-0.1,1.1-0.4
		C337.1,802,337.3,801.6,337.4,801z M337.6,798.1c0-0.8-0.2-1.5-0.6-1.9s-0.9-0.7-1.5-0.7c-0.6,0-1.1,0.2-1.5,0.7
		c-0.4,0.5-0.6,1.1-0.6,1.9H337.6z M341.8,801.4l2.9-0.4c0.1,0.6,0.4,1,0.7,1.3c0.4,0.3,0.9,0.4,1.6,0.4c0.7,0,1.3-0.1,1.7-0.4
		c0.3-0.2,0.4-0.4,0.4-0.8c0-0.2-0.1-0.4-0.2-0.5c-0.1-0.1-0.5-0.3-1-0.4c-2.3-0.5-3.8-1-4.4-1.4c-0.9-0.6-1.3-1.4-1.3-2.5
		c0-0.9,0.4-1.7,1.1-2.4c0.7-0.6,1.9-1,3.5-1c1.5,0,2.6,0.2,3.3,0.7c0.7,0.5,1.2,1.2,1.5,2.2l-2.7,0.5c-0.1-0.4-0.3-0.8-0.7-1
		c-0.3-0.2-0.8-0.3-1.4-0.3c-0.8,0-1.3,0.1-1.6,0.3c-0.2,0.2-0.3,0.4-0.3,0.6c0,0.2,0.1,0.4,0.3,0.5c0.3,0.2,1.2,0.5,2.7,0.8
		c1.5,0.3,2.6,0.8,3.2,1.3c0.6,0.5,0.9,1.2,0.9,2.1c0,1-0.4,1.9-1.3,2.6s-2.1,1.1-3.7,1.1c-1.5,0-2.7-0.3-3.5-0.9
		C342.6,803.2,342.1,802.4,341.8,801.4z M359.5,793.6v2.3h-2v4.4c0,0.9,0,1.4,0.1,1.5s0.1,0.3,0.3,0.4c0.1,0.1,0.3,0.1,0.5,0.1
		c0.3,0,0.7-0.1,1.2-0.3l0.3,2.2c-0.7,0.3-1.4,0.4-2.3,0.4c-0.5,0-1-0.1-1.4-0.3s-0.7-0.4-0.9-0.7c-0.2-0.3-0.3-0.6-0.4-1.1
		c-0.1-0.3-0.1-1-0.1-2v-4.8h-1.3v-2.3h1.3v-2.2l2.9-1.7v3.8H359.5z M367.8,801l2.9,0.5c-0.4,1.1-1,1.9-1.8,2.4
		c-0.8,0.6-1.8,0.8-3,0.8c-1.9,0-3.3-0.6-4.2-1.9c-0.7-1-1.1-2.2-1.1-3.8c0-1.8,0.5-3.2,1.4-4.2c0.9-1,2.1-1.5,3.6-1.5
		c1.6,0,2.9,0.5,3.8,1.6c0.9,1.1,1.4,2.7,1.3,4.9h-7.2c0,0.9,0.3,1.5,0.7,2c0.4,0.5,1,0.7,1.7,0.7c0.4,0,0.8-0.1,1.1-0.4
		C367.4,802,367.6,801.6,367.8,801z M368,798.1c0-0.8-0.2-1.5-0.6-1.9s-0.9-0.7-1.5-0.7c-0.6,0-1.1,0.2-1.5,0.7
		c-0.4,0.5-0.6,1.1-0.6,1.9H368z M375.9,804.5H373v-10.9h2.7v1.5c0.5-0.7,0.9-1.2,1.2-1.4c0.4-0.2,0.8-0.4,1.3-0.4
		c0.7,0,1.3,0.2,1.9,0.5l-0.9,2.5c-0.5-0.3-0.9-0.5-1.4-0.5c-0.4,0-0.7,0.1-1,0.3c-0.3,0.2-0.5,0.6-0.7,1.2s-0.2,1.8-0.2,3.7V804.5z
		 M400.7,804.5h-3.3l-1.3-3.4h-6l-1.2,3.4h-3.2l5.9-15h3.2L400.7,804.5z M395.2,798.6l-2.1-5.6l-2,5.6H395.2z M405.1,804.5h-2.9
		v-10.9h2.7v1.5c0.5-0.7,0.9-1.2,1.2-1.4c0.4-0.2,0.8-0.4,1.3-0.4c0.7,0,1.3,0.2,1.9,0.5l-0.9,2.5c-0.5-0.3-0.9-0.5-1.4-0.5
		c-0.4,0-0.7,0.1-1,0.3c-0.3,0.2-0.5,0.6-0.7,1.2s-0.2,1.8-0.2,3.7V804.5z M410.4,804.5v-15h2.9v5.4c0.9-1,1.9-1.5,3.2-1.5
		c1.3,0,2.4,0.5,3.3,1.4c0.9,1,1.3,2.3,1.3,4.1c0,1.9-0.4,3.3-1.3,4.3c-0.9,1-2,1.5-3.2,1.5c-0.6,0-1.2-0.2-1.8-0.5
		c-0.6-0.3-1.1-0.8-1.6-1.4v1.6H410.4z M413.3,798.8c0,1.1,0.2,2,0.5,2.5c0.5,0.8,1.2,1.1,2,1.1c0.6,0,1.2-0.3,1.6-0.8
		c0.4-0.5,0.7-1.4,0.7-2.6c0-1.2-0.2-2.1-0.7-2.7c-0.4-0.6-1-0.8-1.7-0.8c-0.7,0-1.3,0.3-1.7,0.8
		C413.5,796.9,413.3,797.7,413.3,798.8z M429.6,801l2.9,0.5c-0.4,1.1-1,1.9-1.8,2.4c-0.8,0.6-1.8,0.8-3,0.8c-1.9,0-3.3-0.6-4.2-1.9
		c-0.7-1-1.1-2.2-1.1-3.8c0-1.8,0.5-3.2,1.4-4.2c0.9-1,2.1-1.5,3.6-1.5c1.6,0,2.9,0.5,3.8,1.6c0.9,1.1,1.4,2.7,1.3,4.9h-7.2
		c0,0.9,0.3,1.5,0.7,2c0.4,0.5,1,0.7,1.7,0.7c0.4,0,0.8-0.1,1.1-0.4C429.3,802,429.5,801.6,429.6,801z M429.8,798.1
		c0-0.8-0.2-1.5-0.6-1.9s-0.9-0.7-1.5-0.7c-0.6,0-1.1,0.2-1.5,0.7c-0.4,0.5-0.6,1.1-0.6,1.9H429.8z M435,792.1v-2.7h2.9v2.7H435z
		 M435,804.5v-10.9h2.9v10.9H435z M445.8,793.6v2.3h-2v4.4c0,0.9,0,1.4,0.1,1.5s0.1,0.3,0.3,0.4c0.1,0.1,0.3,0.1,0.5,0.1
		c0.3,0,0.7-0.1,1.2-0.3l0.3,2.2c-0.7,0.3-1.4,0.4-2.3,0.4c-0.5,0-1-0.1-1.4-0.3s-0.7-0.4-0.9-0.7c-0.2-0.3-0.3-0.6-0.4-1.1
		c-0.1-0.3-0.1-1-0.1-2v-4.8h-1.3v-2.3h1.3v-2.2l2.9-1.7v3.8H445.8z M446.8,801.4l2.9-0.4c0.1,0.6,0.4,1,0.7,1.3s0.9,0.4,1.6,0.4
		c0.7,0,1.3-0.1,1.7-0.4c0.3-0.2,0.4-0.4,0.4-0.8c0-0.2-0.1-0.4-0.2-0.5c-0.1-0.1-0.5-0.3-1-0.4c-2.3-0.5-3.8-1-4.4-1.4
		c-0.9-0.6-1.3-1.4-1.3-2.5c0-0.9,0.4-1.7,1.1-2.4c0.7-0.6,1.9-1,3.5-1c1.5,0,2.6,0.2,3.3,0.7c0.7,0.5,1.2,1.2,1.5,2.2l-2.7,0.5
		c-0.1-0.4-0.3-0.8-0.7-1c-0.3-0.2-0.8-0.3-1.4-0.3c-0.8,0-1.3,0.1-1.6,0.3c-0.2,0.2-0.3,0.4-0.3,0.6c0,0.2,0.1,0.4,0.3,0.5
		c0.3,0.2,1.2,0.5,2.7,0.8c1.5,0.3,2.6,0.8,3.2,1.3c0.6,0.5,0.9,1.2,0.9,2.1c0,1-0.4,1.9-1.3,2.6c-0.8,0.7-2.1,1.1-3.7,1.1
		c-1.5,0-2.7-0.3-3.5-0.9C447.7,803.2,447.1,802.4,446.8,801.4z M459.4,793.6h2.7v1.6c0.4-0.5,0.8-1,1.4-1.3c0.6-0.3,1.3-0.5,2-0.5
		c1.3,0,2.3,0.5,3.2,1.5c0.9,1,1.3,2.4,1.3,4.1c0,1.8-0.4,3.2-1.3,4.2c-0.9,1-2,1.5-3.2,1.5c-0.6,0-1.2-0.1-1.6-0.4
		c-0.5-0.2-1-0.7-1.5-1.2v5.5h-2.9V793.6z M462.3,798.9c0,1.2,0.2,2.1,0.7,2.7c0.5,0.6,1.1,0.9,1.8,0.9c0.7,0,1.2-0.3,1.7-0.8
		c0.4-0.5,0.7-1.4,0.7-2.6c0-1.1-0.2-2-0.7-2.5c-0.5-0.6-1-0.8-1.7-0.8c-0.7,0-1.3,0.3-1.8,0.8C462.5,797,462.3,797.8,462.3,798.9z
		 M472.3,804.5v-15h2.9v15H472.3z M480.3,796.9l-2.6-0.5c0.3-1.1,0.8-1.8,1.5-2.3c0.7-0.5,1.8-0.8,3.2-0.8c1.3,0,2.2,0.2,2.9,0.5
		c0.6,0.3,1.1,0.7,1.3,1.2c0.3,0.5,0.4,1.3,0.4,2.6l0,3.4c0,1,0,1.7,0.1,2.1c0.1,0.5,0.3,0.9,0.5,1.5h-2.8c-0.1-0.2-0.2-0.5-0.3-0.8
		c-0.1-0.2-0.1-0.3-0.1-0.3c-0.5,0.5-1,0.8-1.6,1.1c-0.6,0.2-1.2,0.4-1.8,0.4c-1.1,0-2-0.3-2.7-0.9c-0.6-0.6-1-1.4-1-2.3
		c0-0.6,0.1-1.2,0.4-1.6c0.3-0.5,0.7-0.9,1.2-1.1s1.3-0.5,2.3-0.7c1.3-0.3,2.3-0.5,2.8-0.7v-0.3c0-0.6-0.1-0.9-0.4-1.2
		c-0.3-0.2-0.8-0.4-1.5-0.4c-0.5,0-0.9,0.1-1.2,0.3S480.5,796.4,480.3,796.9z M484.2,799.3c-0.4,0.1-0.9,0.3-1.8,0.4
		c-0.8,0.2-1.3,0.3-1.6,0.5c-0.4,0.3-0.6,0.6-0.6,1c0,0.4,0.2,0.7,0.5,1c0.3,0.3,0.7,0.4,1.2,0.4c0.5,0,1-0.2,1.5-0.5
		c0.3-0.3,0.6-0.6,0.7-1c0.1-0.3,0.1-0.7,0.1-1.4V799.3z M494.9,793.6v2.3h-2v4.4c0,0.9,0,1.4,0.1,1.5c0,0.1,0.1,0.3,0.3,0.4
		c0.1,0.1,0.3,0.1,0.5,0.1c0.3,0,0.7-0.1,1.2-0.3l0.3,2.2c-0.7,0.3-1.4,0.4-2.3,0.4c-0.5,0-1-0.1-1.4-0.3c-0.4-0.2-0.7-0.4-0.9-0.7
		c-0.2-0.3-0.3-0.6-0.4-1.1c-0.1-0.3-0.1-1-0.1-2v-4.8h-1.3v-2.3h1.3v-2.2l2.9-1.7v3.8H494.9z M495.7,804.5v-2.3l4.1-4.7
		c0.7-0.8,1.2-1.3,1.5-1.6c-0.3,0-0.8,0-1.3,0l-3.8,0v-2.4h9v2l-4.2,4.8l-1.5,1.6c0.8,0,1.3-0.1,1.5-0.1h4.5v2.5H495.7z"/>
	<rect x="121.8" y="615.7" class="st0" width="136.2" height="53.1"/>
	<rect x="121.8" y="615.7" class="st51" width="136.2" height="53.1"/>
	<path class="st38" d="M152.5,636.2h6c1.2,0,2.1,0,2.7,0.1s1.1,0.3,1.6,0.6c0.5,0.3,0.8,0.7,1.2,1.3c0.3,0.5,0.5,1.1,0.5,1.8
		c0,0.7-0.2,1.4-0.6,1.9c-0.4,0.6-0.9,1-1.5,1.3c0.9,0.3,1.6,0.7,2.1,1.4c0.5,0.6,0.7,1.4,0.7,2.3c0,0.7-0.2,1.4-0.5,2
		c-0.3,0.6-0.7,1.2-1.3,1.5c-0.5,0.4-1.2,0.6-2,0.7c-0.5,0.1-1.7,0.1-3.7,0.1h-5.1V636.2z M155.5,638.7v3.5h2c1.2,0,1.9,0,2.2-0.1
		c0.5-0.1,0.9-0.2,1.2-0.5c0.3-0.3,0.4-0.7,0.4-1.2c0-0.5-0.1-0.8-0.4-1.1s-0.6-0.5-1.1-0.5c-0.3,0-1.2,0-2.6,0H155.5z M155.5,644.7
		v4h2.8c1.1,0,1.8,0,2.1-0.1c0.4-0.1,0.8-0.3,1.1-0.6c0.3-0.3,0.4-0.7,0.4-1.3c0-0.4-0.1-0.8-0.3-1.1c-0.2-0.3-0.5-0.5-1-0.7
		c-0.4-0.1-1.3-0.2-2.7-0.2H155.5z M173.9,647.8l2.9,0.5c-0.4,1.1-1,1.9-1.8,2.4c-0.8,0.6-1.8,0.8-3,0.8c-1.9,0-3.3-0.6-4.2-1.9
		c-0.7-1-1.1-2.2-1.1-3.8c0-1.8,0.5-3.2,1.4-4.2c0.9-1,2.1-1.5,3.6-1.5c1.6,0,2.9,0.5,3.8,1.6c0.9,1.1,1.4,2.7,1.3,4.9h-7.2
		c0,0.9,0.3,1.5,0.7,2c0.4,0.5,1,0.7,1.7,0.7c0.4,0,0.8-0.1,1.1-0.4C173.5,648.7,173.8,648.3,173.9,647.8z M174.1,644.9
		c0-0.8-0.2-1.5-0.6-1.9s-0.9-0.7-1.5-0.7c-0.6,0-1.1,0.2-1.5,0.7c-0.4,0.5-0.6,1.1-0.6,1.9H174.1z M181.4,643.7l-2.6-0.5
		c0.3-1.1,0.8-1.8,1.5-2.3c0.7-0.5,1.8-0.8,3.2-0.8c1.3,0,2.2,0.2,2.9,0.5c0.6,0.3,1.1,0.7,1.3,1.2c0.3,0.5,0.4,1.3,0.4,2.6l0,3.4
		c0,1,0,1.7,0.1,2.1c0.1,0.5,0.3,0.9,0.5,1.5h-2.8c-0.1-0.2-0.2-0.5-0.3-0.8c-0.1-0.2-0.1-0.3-0.1-0.3c-0.5,0.5-1,0.8-1.6,1.1
		c-0.6,0.2-1.2,0.4-1.8,0.4c-1.1,0-2-0.3-2.7-0.9c-0.6-0.6-1-1.4-1-2.3c0-0.6,0.1-1.2,0.4-1.6c0.3-0.5,0.7-0.9,1.2-1.1
		s1.3-0.5,2.3-0.7c1.3-0.3,2.3-0.5,2.8-0.7v-0.3c0-0.6-0.1-0.9-0.4-1.2c-0.3-0.2-0.8-0.4-1.5-0.4c-0.5,0-0.9,0.1-1.2,0.3
		S181.6,643.2,181.4,643.7z M185.3,646c-0.4,0.1-0.9,0.3-1.8,0.4c-0.8,0.2-1.3,0.3-1.6,0.5c-0.4,0.3-0.6,0.6-0.6,1
		c0,0.4,0.2,0.7,0.5,1c0.3,0.3,0.7,0.4,1.2,0.4c0.5,0,1-0.2,1.5-0.5c0.3-0.3,0.6-0.6,0.7-1c0.1-0.3,0.1-0.7,0.1-1.4V646z
		 M200.5,643.6l-2.8,0.5c-0.1-0.6-0.3-1-0.6-1.3c-0.3-0.3-0.8-0.4-1.3-0.4c-0.7,0-1.3,0.2-1.7,0.7s-0.6,1.3-0.6,2.5
		c0,1.3,0.2,2.2,0.7,2.7c0.4,0.5,1,0.8,1.8,0.8c0.6,0,1-0.2,1.3-0.5c0.3-0.3,0.6-0.8,0.7-1.6l2.8,0.5c-0.3,1.3-0.9,2.3-1.7,2.9
		c-0.8,0.7-2,1-3.4,1c-1.6,0-2.8-0.5-3.8-1.5c-0.9-1-1.4-2.4-1.4-4.2c0-1.8,0.5-3.2,1.4-4.2c0.9-1,2.2-1.5,3.9-1.5
		c1.3,0,2.4,0.3,3.2,0.9C199.6,641.6,200.1,642.4,200.5,643.6z M202,645.7c0-1,0.2-1.9,0.7-2.8c0.5-0.9,1.1-1.6,2-2.1
		c0.9-0.5,1.8-0.7,2.9-0.7c1.6,0,3,0.5,4,1.6c1.1,1.1,1.6,2.4,1.6,4.1c0,1.6-0.5,3-1.6,4.1c-1.1,1.1-2.4,1.6-4,1.6
		c-1,0-2-0.2-2.9-0.7c-0.9-0.5-1.6-1.1-2.1-2C202.2,648,202,646.9,202,645.7z M204.9,645.8c0,1.1,0.3,1.9,0.8,2.5
		c0.5,0.6,1.1,0.9,1.9,0.9c0.8,0,1.4-0.3,1.9-0.9c0.5-0.6,0.8-1.4,0.8-2.5c0-1.1-0.3-1.9-0.8-2.5c-0.5-0.6-1.1-0.9-1.9-0.9
		c-0.8,0-1.4,0.3-1.9,0.9C205.2,643.9,204.9,644.7,204.9,645.8z M225.4,651.3h-2.9v-5.6c0-1.2-0.1-1.9-0.2-2.3
		c-0.1-0.3-0.3-0.6-0.6-0.8c-0.3-0.2-0.6-0.3-1-0.3c-0.5,0-0.9,0.1-1.3,0.4c-0.4,0.3-0.7,0.6-0.8,1.1c-0.1,0.5-0.2,1.3-0.2,2.5v4.9
		h-2.9v-10.9h2.7v1.6c1-1.2,2.2-1.8,3.6-1.8c0.6,0,1.2,0.1,1.7,0.3c0.5,0.2,0.9,0.5,1.2,0.9c0.3,0.4,0.5,0.8,0.6,1.2
		c0.1,0.4,0.2,1.1,0.2,1.9V651.3z"/>
</g>
</svg>
