<?xml version="1.0" encoding="utf-8"?>
<!-- Generator: Adobe Illustrator 21.0.2, SVG Export Plug-In . SVG Version: 6.00 Build 0)  -->
<svg version="1.1" id="Layer_1" xmlns="http://www.w3.org/2000/svg" xmlns:xlink="http://www.w3.org/1999/xlink" x="0px" y="0px"
	 width="860px" height="841.9px" viewBox="0 0 860 841.9" style="enable-background:new 0 0 860 841.9;" xml:space="preserve">
<style type="text/css">
	.st0{fill:#FFFFFF;}
	.st1{fill:none;stroke:#F2AE45;stroke-width:3;stroke-miterlimit:10;}
	.st2{fill:#F2AE45;}
	.st3{fill:none;stroke:#F2AE45;stroke-width:2.3026;stroke-miterlimit:10;}
	.st4{fill:none;stroke:#9DDB53;stroke-width:3;stroke-miterlimit:10;}
	.st5{fill:#9DDB53;}
	.st6{fill:none;stroke:#33A8F5;stroke-width:3;stroke-miterlimit:10;}
	.st7{fill:#33A8F5;}
	.st8{fill:#009999;}
	.st9{fill:none;stroke:#009999;stroke-width:3;stroke-miterlimit:10;}
	.st10{fill:#8484EF;}
	.st11{fill:none;stroke:#8484EF;stroke-width:3;stroke-miterlimit:10;}
	.st12{fill:none;stroke:#33A8F5;stroke-width:1.6094;stroke-miterlimit:10;}
	.st13{fill:none;stroke:#8484EF;stroke-width:2.7726;stroke-miterlimit:10;}
	.st14{fill:none;stroke:#9DDB53;stroke-width:2.3979;stroke-miterlimit:10;}
	.st15{fill:none;stroke:#009999;stroke-width:2.4849;stroke-miterlimit:10;}
	.st16{fill:none;stroke:#000000;stroke-width:3;stroke-miterlimit:10;}
	.st17{fill:none;}
	.st18{fill:#009999;fill-opacity:0.2588;}
	.st19{fill:none;stroke:#B8DAE0;stroke-width:1.0986;stroke-miterlimit:10;}
	
		.st20{fill:none;stroke:#009999;stroke-width:1.0986;stroke-linejoin:bevel;stroke-miterlimit:10;stroke-opacity:0.2588;stroke-dasharray:5,3;}
	.st21{fill:#D0D0D0;}
	.st22{fill:none;stroke:#B8DAE0;stroke-width:2.0794;stroke-miterlimit:10;}
	
		.st23{fill:none;stroke:#009999;stroke-width:2.0794;stroke-linejoin:bevel;stroke-miterlimit:10;stroke-opacity:0.2588;stroke-dasharray:5,3;}
	.st24{fill:none;stroke:#B8DAE0;stroke-width:2.3026;stroke-miterlimit:10;}
	.st25{fill:none;stroke:#B8DAE0;stroke-width:2.303;stroke-linejoin:bevel;stroke-miterlimit:10;stroke-dasharray:5,3;}
	.st26{fill:#C1C1FF;}
	.st27{fill:none;stroke:#C1C1FF;stroke-miterlimit:10;}
	.st28{fill:none;stroke:#C1C1FF;stroke-linejoin:bevel;stroke-miterlimit:10;stroke-dasharray:5,3;}
	.st29{fill:none;stroke:#C1C1FF;stroke-width:2.3026;stroke-miterlimit:10;}
	.st30{fill:none;stroke:#C1C1FF;stroke-width:2.3026;stroke-linejoin:bevel;stroke-miterlimit:10;stroke-dasharray:5,3;}
	.st31{fill:none;stroke:#F2AE45;stroke-width:0.3;stroke-miterlimit:10;}
	.st32{fill:none;stroke:#F2AE45;stroke-width:1.0986;stroke-miterlimit:10;}
	.st33{fill:none;stroke:#9DDB53;stroke-width:0.6931;stroke-miterlimit:10;}
	.st34{fill:#76AF31;}
	.st35{fill:none;stroke:#9DDB53;stroke-width:0.3;stroke-miterlimit:10;}
	.st36{fill:none;stroke:#9DDB53;stroke-width:1.0986;stroke-miterlimit:10;}
	.st37{fill:none;stroke:#33A8F5;stroke-width:0.3;stroke-miterlimit:10;}
	.st38{fill:#4C4C4C;}
	.st39{fill:none;stroke:#4C4C4C;stroke-width:2.7726;stroke-miterlimit:10;}
	.st40{fill:#EEEEEE;}
	.st41{fill:none;stroke:#EEEEEE;stroke-width:2.3026;stroke-miterlimit:10;}
	.st42{fill:none;stroke:#EEEEEE;stroke-miterlimit:10;}
	.st43{fill:none;stroke:#4C4C4C;stroke-width:2.4849;stroke-miterlimit:10;}
	.st44{fill:#FFC63B;}
	.st45{fill:none;stroke:#EEEEEE;stroke-width:2.0794;stroke-miterlimit:10;}
	.st46{fill:#C1F780;}
	.st47{fill:none;stroke:#EEEEEE;stroke-width:1.0986;stroke-miterlimit:10;}
	.st48{fill:none;stroke:#000000;stroke-miterlimit:10;stroke-opacity:0;}
	.st49{fill:#FC938D;}
	.st50{fill:#0877C0;}
	.st51{fill:none;stroke:#4C4C4C;stroke-width:3;stroke-miterlimit:10;}
	.st52{fill:none;stroke:#8484EF;stroke-miterlimit:10;}
	.st53{fill:none;stroke:#009999;stroke-width:1.0986;stroke-miterlimit:10;}
	.st54{fill:none;stroke:#009999;stroke-width:2.3026;stroke-miterlimit:10;}
	.st55{fill:none;stroke:#8484EF;stroke-width:2.3026;stroke-miterlimit:10;}
	.st56{fill:none;stroke:#009999;stroke-width:2.0794;stroke-miterlimit:10;}
	.st57{fill:none;stroke:#9DDB53;stroke-width:6;stroke-miterlimit:10;}
	.st58{fill:none;stroke:#F2AE45;stroke-width:6;stroke-miterlimit:10;}
	.st59{fill:#4C4C4C;stroke:#4C4C4C;stroke-miterlimit:10;}
</style>
<g>
	<line class="st17" x1="37.4" y1="237.1" x2="822.6" y2="237.1"/>
	<line class="st17" x1="37.4" y1="237.1" x2="822.6" y2="237.1"/>
	<line class="st17" x1="37.4" y1="237.1" x2="822.6" y2="237.1"/>
	<line class="st17" x1="37.4" y1="237.1" x2="822.6" y2="237.1"/>
	<line class="st17" x1="37.4" y1="237.1" x2="822.6" y2="237.1"/>
	<line class="st17" x1="37.4" y1="237.1" x2="822.6" y2="237.1"/>
	<line class="st17" x1="37.4" y1="237.1" x2="822.6" y2="237.1"/>
	<line class="st17" x1="37.4" y1="237.1" x2="822.6" y2="237.1"/>
	<line class="st17" x1="37.4" y1="237.1" x2="822.6" y2="237.1"/>
	<line class="st17" x1="37.4" y1="237.1" x2="822.6" y2="237.1"/>
	<line class="st17" x1="37.4" y1="237.1" x2="822.6" y2="237.1"/>
	<line class="st17" x1="37.4" y1="237.1" x2="822.6" y2="237.1"/>
	<line class="st17" x1="37.4" y1="237.1" x2="822.6" y2="237.1"/>
	<line class="st17" x1="37.4" y1="237.1" x2="822.6" y2="237.1"/>
	<line class="st17" x1="37.4" y1="237.1" x2="822.6" y2="237.1"/>
	<line class="st17" x1="37.4" y1="237.1" x2="822.6" y2="237.1"/>
	<line class="st17" x1="37.4" y1="237.1" x2="822.6" y2="237.1"/>
	<line class="st17" x1="37.4" y1="237.1" x2="822.6" y2="237.1"/>
	<line class="st17" x1="37.4" y1="237.1" x2="822.6" y2="237.1"/>
	<line class="st17" x1="37.4" y1="237.1" x2="822.6" y2="237.1"/>
	<line class="st17" x1="37.4" y1="237.1" x2="822.6" y2="237.1"/>
	<line class="st17" x1="37.4" y1="237.1" x2="822.6" y2="237.1"/>
	<line class="st17" x1="37.4" y1="237.1" x2="822.6" y2="237.1"/>
	<line class="st17" x1="37.4" y1="237.1" x2="822.6" y2="237.1"/>
	<line class="st17" x1="37.4" y1="237.1" x2="822.6" y2="237.1"/>
	<line class="st17" x1="37.4" y1="237.1" x2="822.6" y2="237.1"/>
	<line class="st17" x1="37.4" y1="237.1" x2="822.6" y2="237.1"/>
	<line class="st17" x1="37.4" y1="237.1" x2="822.6" y2="237.1"/>
	<line class="st17" x1="37.4" y1="237.1" x2="822.6" y2="237.1"/>
	<line class="st17" x1="37.4" y1="237.1" x2="822.6" y2="237.1"/>
	<line class="st17" x1="37.4" y1="237.1" x2="822.6" y2="237.1"/>
	<line class="st17" x1="37.4" y1="237.1" x2="822.6" y2="237.1"/>
	<line class="st17" x1="37.4" y1="237.1" x2="822.6" y2="237.1"/>
	<line class="st17" x1="37.4" y1="237.1" x2="822.6" y2="237.1"/>
	<line class="st17" x1="37.4" y1="237.1" x2="822.6" y2="237.1"/>
	<line class="st17" x1="37.4" y1="237.1" x2="822.6" y2="237.1"/>
	<line class="st17" x1="37.4" y1="237.1" x2="822.6" y2="237.1"/>
	<line class="st17" x1="37.4" y1="237.1" x2="822.6" y2="237.1"/>
	<line class="st17" x1="37.4" y1="237.1" x2="822.6" y2="237.1"/>
	<line class="st17" x1="37.4" y1="237.1" x2="822.6" y2="237.1"/>
	<line class="st17" x1="37.4" y1="237.1" x2="822.6" y2="237.1"/>
	<line class="st17" x1="37.4" y1="237.1" x2="822.6" y2="237.1"/>
	<line class="st17" x1="37.4" y1="237.1" x2="822.6" y2="237.1"/>
	<line class="st17" x1="37.4" y1="237.1" x2="822.6" y2="237.1"/>
	<rect x="573" y="365.6" class="st8" width="139.9" height="63.8"/>
	<rect x="573" y="365.6" class="st9" width="139.9" height="63.8"/>
	<path class="st0" d="M605.5,391.5h6c1.2,0,2.1,0,2.7,0.1c0.6,0.1,1.1,0.3,1.6,0.6c0.5,0.3,0.8,0.7,1.2,1.3c0.3,0.5,0.5,1.1,0.5,1.8
		c0,0.7-0.2,1.4-0.6,1.9s-0.9,1-1.5,1.3c0.9,0.3,1.6,0.7,2.1,1.4c0.5,0.6,0.7,1.4,0.7,2.3c0,0.7-0.2,1.4-0.5,2
		c-0.3,0.6-0.7,1.2-1.3,1.5c-0.5,0.4-1.2,0.6-2,0.7c-0.5,0.1-1.7,0.1-3.7,0.1h-5.1V391.5z M608.6,394v3.5h2c1.2,0,1.9,0,2.2-0.1
		c0.5-0.1,0.9-0.2,1.2-0.5c0.3-0.3,0.4-0.7,0.4-1.2c0-0.5-0.1-0.8-0.4-1.1c-0.3-0.3-0.6-0.5-1.1-0.5c-0.3,0-1.2,0-2.6,0H608.6z
		 M608.6,400v4h2.8c1.1,0,1.8,0,2.1-0.1c0.4-0.1,0.8-0.3,1.1-0.6c0.3-0.3,0.4-0.7,0.4-1.3c0-0.4-0.1-0.8-0.3-1.1
		c-0.2-0.3-0.5-0.5-1-0.7c-0.4-0.1-1.3-0.2-2.7-0.2H608.6z M627,403.1l2.9,0.5c-0.4,1.1-1,1.9-1.8,2.4c-0.8,0.6-1.8,0.8-3,0.8
		c-1.9,0-3.3-0.6-4.2-1.9c-0.7-1-1.1-2.2-1.1-3.8c0-1.8,0.5-3.2,1.4-4.2c0.9-1,2.1-1.5,3.6-1.5c1.6,0,2.9,0.5,3.8,1.6
		c0.9,1.1,1.4,2.7,1.3,4.9h-7.2c0,0.9,0.3,1.5,0.7,2c0.4,0.5,1,0.7,1.7,0.7c0.4,0,0.8-0.1,1.1-0.4C626.6,404,626.8,403.6,627,403.1z
		 M627.1,400.2c0-0.8-0.2-1.5-0.6-1.9c-0.4-0.4-0.9-0.7-1.5-0.7c-0.6,0-1.1,0.2-1.5,0.7c-0.4,0.5-0.6,1.1-0.6,1.9H627.1z M634.5,399
		l-2.6-0.5c0.3-1.1,0.8-1.8,1.5-2.3c0.7-0.5,1.8-0.8,3.2-0.8c1.3,0,2.2,0.2,2.9,0.5c0.6,0.3,1.1,0.7,1.3,1.2
		c0.3,0.5,0.4,1.3,0.4,2.6l0,3.4c0,1,0,1.7,0.1,2.1c0.1,0.5,0.3,0.9,0.5,1.5H639c-0.1-0.2-0.2-0.5-0.3-0.8c-0.1-0.2-0.1-0.3-0.1-0.3
		c-0.5,0.5-1,0.8-1.6,1.1c-0.6,0.2-1.2,0.4-1.8,0.4c-1.1,0-2-0.3-2.7-0.9c-0.6-0.6-1-1.4-1-2.3c0-0.6,0.1-1.2,0.4-1.6
		c0.3-0.5,0.7-0.9,1.2-1.1c0.5-0.3,1.3-0.5,2.3-0.7c1.3-0.3,2.3-0.5,2.8-0.7v-0.3c0-0.6-0.1-0.9-0.4-1.2c-0.3-0.2-0.8-0.4-1.5-0.4
		c-0.5,0-0.9,0.1-1.2,0.3C634.9,398.1,634.7,398.5,634.5,399z M638.3,401.3c-0.4,0.1-0.9,0.3-1.8,0.4c-0.8,0.2-1.3,0.3-1.6,0.5
		c-0.4,0.3-0.6,0.6-0.6,1c0,0.4,0.2,0.7,0.5,1c0.3,0.3,0.7,0.4,1.2,0.4c0.5,0,1-0.2,1.5-0.5c0.3-0.3,0.6-0.6,0.7-1
		c0.1-0.3,0.1-0.7,0.1-1.4V401.3z M653.5,398.9l-2.8,0.5c-0.1-0.6-0.3-1-0.6-1.3s-0.8-0.4-1.3-0.4c-0.7,0-1.3,0.2-1.7,0.7
		c-0.4,0.5-0.6,1.3-0.6,2.5c0,1.3,0.2,2.2,0.7,2.7c0.4,0.5,1,0.8,1.8,0.8c0.6,0,1-0.2,1.3-0.5c0.3-0.3,0.6-0.8,0.7-1.6l2.8,0.5
		c-0.3,1.3-0.9,2.3-1.7,2.9c-0.8,0.7-2,1-3.4,1c-1.6,0-2.8-0.5-3.8-1.5s-1.4-2.4-1.4-4.2c0-1.8,0.5-3.2,1.4-4.2s2.2-1.5,3.9-1.5
		c1.3,0,2.4,0.3,3.2,0.9C652.6,396.8,653.2,397.7,653.5,398.9z M655,400.9c0-1,0.2-1.9,0.7-2.8c0.5-0.9,1.1-1.6,2-2.1
		s1.8-0.7,2.9-0.7c1.6,0,3,0.5,4,1.6c1.1,1.1,1.6,2.4,1.6,4.1c0,1.6-0.5,3-1.6,4.1c-1.1,1.1-2.4,1.6-4,1.6c-1,0-2-0.2-2.9-0.7
		s-1.6-1.1-2.1-2C655.3,403.3,655,402.2,655,400.9z M658,401.1c0,1.1,0.3,1.9,0.8,2.5c0.5,0.6,1.1,0.9,1.9,0.9
		c0.8,0,1.4-0.3,1.9-0.9c0.5-0.6,0.8-1.4,0.8-2.5c0-1.1-0.3-1.9-0.8-2.5c-0.5-0.6-1.1-0.9-1.9-0.9c-0.8,0-1.4,0.3-1.9,0.9
		C658.2,399.2,658,400,658,401.1z M678.4,406.5h-2.9V401c0-1.2-0.1-1.9-0.2-2.3c-0.1-0.3-0.3-0.6-0.6-0.8c-0.3-0.2-0.6-0.3-1-0.3
		c-0.5,0-0.9,0.1-1.3,0.4c-0.4,0.3-0.7,0.6-0.8,1.1c-0.1,0.5-0.2,1.3-0.2,2.5v4.9h-2.9v-10.9h2.7v1.6c1-1.2,2.2-1.8,3.6-1.8
		c0.6,0,1.2,0.1,1.7,0.3c0.5,0.2,0.9,0.5,1.2,0.9c0.3,0.4,0.5,0.8,0.6,1.2c0.1,0.4,0.2,1.1,0.2,1.9V406.5z"/>
	<line class="st17" x1="37.4" y1="237.1" x2="822.6" y2="237.1"/>
	<path class="st18" d="M444.7,280.6l4.3,5.5l2.5-4.3L444.7,280.6z"/>
	<line class="st17" x1="37.4" y1="237.1" x2="822.6" y2="237.1"/>
	<path class="st19" d="M444.7,280.6l4.3,5.5l2.5-4.3L444.7,280.6z"/>
	<line class="st20" x1="588.9" y1="365.6" x2="444.7" y2="280.6"/>
	<rect x="510.8" y="316.1" class="st0" width="12" height="14"/>
	<path class="st21" d="M514.2,325l1.5-0.2c0,0.4,0.2,0.7,0.4,0.9c0.2,0.2,0.5,0.3,0.7,0.3c0.3,0,0.6-0.1,0.8-0.4
		c0.2-0.2,0.3-0.5,0.3-0.9c0-0.4-0.1-0.7-0.3-0.9c-0.2-0.2-0.5-0.3-0.7-0.3c-0.2,0-0.4,0-0.7,0.1l0.2-1.2c0.4,0,0.7-0.1,0.9-0.3
		c0.2-0.2,0.3-0.4,0.3-0.8c0-0.3-0.1-0.5-0.2-0.6c-0.2-0.2-0.4-0.2-0.6-0.2c-0.3,0-0.5,0.1-0.6,0.3c-0.2,0.2-0.3,0.4-0.3,0.8
		l-1.4-0.2c0.1-0.5,0.2-0.9,0.4-1.1c0.2-0.3,0.5-0.5,0.8-0.7c0.3-0.2,0.7-0.2,1.2-0.2c0.7,0,1.3,0.2,1.8,0.7
		c0.4,0.4,0.6,0.8,0.6,1.3c0,0.7-0.4,1.2-1.1,1.7c0.4,0.1,0.8,0.3,1.1,0.6c0.3,0.3,0.4,0.7,0.4,1.2c0,0.7-0.3,1.3-0.8,1.8
		c-0.5,0.5-1.1,0.7-1.9,0.7c-0.7,0-1.3-0.2-1.8-0.6C514.6,326.2,514.3,325.7,514.2,325z"/>
	<line class="st17" x1="37.4" y1="237.1" x2="822.6" y2="237.1"/>
	<path class="st18" d="M534.7,291.8l2.9,6.3l3.5-3.6L534.7,291.8z"/>
	<line class="st17" x1="37.4" y1="237.1" x2="822.6" y2="237.1"/>
	<path class="st22" d="M534.7,291.8l2.9,6.3l3.5-3.6L534.7,291.8z"/>
	<line class="st23" x1="610.3" y1="365.6" x2="534.7" y2="291.8"/>
	<rect x="566.5" y="321.7" class="st0" width="12" height="14"/>
	<path class="st21" d="M571.3,328.4c-0.4-0.2-0.7-0.4-0.9-0.7s-0.3-0.6-0.3-0.9c0-0.6,0.2-1.1,0.6-1.5c0.4-0.4,1-0.6,1.8-0.6
		c0.7,0,1.3,0.2,1.7,0.6c0.4,0.4,0.6,0.9,0.6,1.5c0,0.4-0.1,0.7-0.3,1c-0.2,0.3-0.5,0.5-0.8,0.6c0.4,0.2,0.8,0.4,1,0.8
		c0.2,0.3,0.3,0.7,0.3,1.2c0,0.7-0.2,1.3-0.7,1.8c-0.5,0.5-1.1,0.7-1.9,0.7c-0.7,0-1.3-0.2-1.8-0.6c-0.6-0.4-0.8-1.1-0.8-1.8
		c0-0.4,0.1-0.8,0.3-1.2C570.6,328.9,570.9,328.6,571.3,328.4z M571.7,326.9c0,0.3,0.1,0.5,0.3,0.7c0.2,0.2,0.4,0.3,0.7,0.3
		c0.3,0,0.5-0.1,0.7-0.3s0.3-0.4,0.3-0.7c0-0.3-0.1-0.5-0.3-0.7c-0.2-0.2-0.4-0.3-0.7-0.3c-0.3,0-0.5,0.1-0.7,0.3
		S571.7,326.7,571.7,326.9z M571.5,330.3c0,0.4,0.1,0.7,0.3,1c0.2,0.2,0.5,0.3,0.8,0.3s0.6-0.1,0.8-0.3c0.2-0.2,0.3-0.5,0.3-1
		c0-0.4-0.1-0.7-0.3-0.9c-0.2-0.2-0.5-0.3-0.8-0.3c-0.4,0-0.7,0.1-0.8,0.4C571.6,329.7,571.5,330,571.5,330.3z"/>
	<line class="st17" x1="37.4" y1="237.1" x2="822.6" y2="237.1"/>
	<path class="st18" d="M345.1,281.8l5.2,4.7l1.8-4.7L345.1,281.8z"/>
	<line class="st17" x1="37.4" y1="237.1" x2="822.6" y2="237.1"/>
	<path class="st24" d="M345.1,281.8l5.2,4.7l1.8-4.7L345.1,281.8z"/>
	<line class="st25" x1="573" y1="370.4" x2="345.1" y2="281.8"/>
	<rect x="450.1" y="319.1" class="st0" width="18" height="14"/>
	<path class="st21" d="M457.5,330.1H456v-5.7c-0.5,0.5-1.2,0.9-1.9,1.1v-1.4c0.4-0.1,0.8-0.4,1.3-0.7c0.5-0.4,0.8-0.8,1-1.3h1.2
		V330.1z M462.3,322.2c0.8,0,1.4,0.3,1.8,0.8c0.5,0.6,0.8,1.7,0.8,3.2c0,1.5-0.3,2.6-0.8,3.2c-0.4,0.5-1,0.8-1.8,0.8
		c-0.8,0-1.4-0.3-1.8-0.9c-0.5-0.6-0.7-1.6-0.7-3.2c0-1.5,0.3-2.5,0.8-3.2C460.9,322.5,461.5,322.2,462.3,322.2z M462.3,323.4
		c-0.2,0-0.3,0.1-0.5,0.2c-0.1,0.1-0.3,0.3-0.3,0.6c-0.1,0.4-0.2,1.1-0.2,2c0,0.9,0,1.6,0.1,1.9c0.1,0.3,0.2,0.6,0.4,0.7
		c0.1,0.1,0.3,0.2,0.5,0.2c0.2,0,0.4-0.1,0.5-0.2c0.1-0.1,0.3-0.3,0.3-0.6c0.1-0.4,0.2-1,0.2-2c0-0.9,0-1.5-0.1-1.9
		c-0.1-0.3-0.2-0.6-0.4-0.7C462.6,323.5,462.5,323.4,462.3,323.4z"/>
	<line class="st17" x1="37.4" y1="237.1" x2="822.6" y2="237.1"/>
	<path class="st8" d="M472.2,490.3l6.9-0.9l-2.4-4.4L472.2,490.3z"/>
	<line class="st17" x1="37.4" y1="237.1" x2="822.6" y2="237.1"/>
	<path class="st15" d="M472.2,490.3l6.9-0.9l-2.4-4.4L472.2,490.3z"/>
	<line class="st15" x1="584.3" y1="429.4" x2="472.2" y2="490.3"/>
	<rect x="508.3" y="445.4" class="st0" width="40" height="29"/>
	<path class="st8" d="M524.4,469.4h-3.3V457c-1.2,1.1-2.6,2-4.3,2.5v-3c0.9-0.3,1.8-0.8,2.8-1.6c1-0.8,1.7-1.7,2.1-2.7h2.7V469.4z
		 M540.4,466.3v3.1h-11.5c0.1-1.2,0.5-2.3,1.1-3.3s1.9-2.4,3.7-4.1c1.5-1.4,2.4-2.3,2.7-2.8c0.5-0.7,0.7-1.3,0.7-2
		c0-0.7-0.2-1.3-0.6-1.7c-0.4-0.4-0.9-0.6-1.6-0.6c-0.7,0-1.2,0.2-1.6,0.6c-0.4,0.4-0.6,1.1-0.7,2.1l-3.3-0.3
		c0.2-1.8,0.8-3.1,1.8-3.9c1-0.8,2.3-1.2,3.9-1.2c1.7,0,3,0.5,4,1.4c1,0.9,1.5,2,1.5,3.4c0,0.8-0.1,1.5-0.4,2.2
		c-0.3,0.7-0.7,1.4-1.3,2.2c-0.4,0.5-1.1,1.2-2.2,2.2c-1,1-1.7,1.6-2,1.9c-0.3,0.3-0.5,0.6-0.7,0.9H540.4z"/>
	<line class="st17" x1="37.4" y1="237.1" x2="822.6" y2="237.1"/>
	<path class="st26" d="M377,279.2l-6.9,0.9l2.4,4.4L377,279.2z"/>
	<line class="st17" x1="37.4" y1="237.1" x2="822.6" y2="237.1"/>
	<path class="st27" d="M377,279.2l-6.9,0.9l2.4,4.4L377,279.2z"/>
	<line class="st28" x1="219.5" y1="365.6" x2="377" y2="279.2"/>
	<rect x="291.8" y="314.9" class="st0" width="13" height="15"/>
	<path class="st21" d="M298.8,326.9v-1.7h-3.5v-1.4l3.7-5.5h1.4v5.5h1.1v1.4h-1.1v1.7H298.8z M298.8,323.7v-2.9l-2,2.9H298.8z"/>
	<line class="st17" x1="37.4" y1="237.1" x2="822.6" y2="237.1"/>
	<path class="st26" d="M477.4,282.1l-7-0.1l1.7,4.7L477.4,282.1z"/>
	<line class="st17" x1="37.4" y1="237.1" x2="822.6" y2="237.1"/>
	<path class="st27" d="M477.4,282.1l-7-0.1l1.7,4.7L477.4,282.1z"/>
	<line class="st28" x1="233.1" y1="371.4" x2="477.4" y2="282.1"/>
	<rect x="345.2" y="319.2" class="st0" width="20" height="15"/>
	<path class="st21" d="M353.3,331.2h-1.6V325c-0.6,0.6-1.3,1-2.1,1.3v-1.5c0.4-0.1,0.9-0.4,1.4-0.8c0.5-0.4,0.9-0.9,1-1.4h1.3V331.2
		z M359.9,331.2h-1.6V325c-0.6,0.6-1.3,1-2.1,1.3v-1.5c0.4-0.1,0.9-0.4,1.4-0.8c0.5-0.4,0.9-0.9,1-1.4h1.3V331.2z"/>
	<line class="st17" x1="37.4" y1="237.1" x2="822.6" y2="237.1"/>
	<path class="st26" d="M285.2,290.5l-6.6,2.4l3.3,3.8L285.2,290.5z"/>
	<line class="st17" x1="37.4" y1="237.1" x2="822.6" y2="237.1"/>
	<path class="st29" d="M285.2,290.5l-6.6,2.4l3.3,3.8L285.2,290.5z"/>
	<line class="st30" x1="198.3" y1="365.6" x2="285.2" y2="290.5"/>
	<rect x="231.7" y="320.6" class="st0" width="20" height="15"/>
	<path class="st21" d="M239.8,332.6h-1.6v-6.2c-0.6,0.6-1.3,1-2.1,1.3v-1.5c0.4-0.1,0.9-0.4,1.4-0.8c0.5-0.4,0.9-0.9,1-1.4h1.3
		V332.6z M245,323.9c0.8,0,1.5,0.3,2,0.9c0.6,0.7,0.8,1.9,0.8,3.5c0,1.6-0.3,2.8-0.8,3.5c-0.5,0.6-1.1,0.9-1.9,0.9
		c-0.8,0-1.5-0.3-2-1c-0.5-0.6-0.8-1.8-0.8-3.4c0-1.6,0.3-2.8,0.8-3.5C243.6,324.2,244.2,323.9,245,323.9z M245,325.3
		c-0.2,0-0.4,0.1-0.5,0.2c-0.2,0.1-0.3,0.4-0.4,0.7c-0.1,0.4-0.2,1.1-0.2,2.2s0,1.7,0.1,2.1c0.1,0.4,0.2,0.6,0.4,0.8
		c0.2,0.1,0.3,0.2,0.5,0.2c0.2,0,0.4-0.1,0.5-0.2c0.2-0.1,0.3-0.4,0.4-0.7c0.1-0.4,0.2-1.1,0.2-2.1s0-1.7-0.1-2.1
		c-0.1-0.4-0.2-0.6-0.4-0.8C245.4,325.4,245.2,325.3,245,325.3z"/>
	<line class="st17" x1="37.4" y1="237.1" x2="822.6" y2="237.1"/>
	<path class="st10" d="M335.4,490.8l-4.6-5.3l-2.4,4.4L335.4,490.8z"/>
	<line class="st17" x1="37.4" y1="237.1" x2="822.6" y2="237.1"/>
	<path class="st13" d="M335.4,490.8l-4.6-5.3l-2.4,4.4L335.4,490.8z"/>
	<line class="st13" x1="221" y1="429.6" x2="335.4" y2="490.8"/>
	<rect x="258.2" y="445.7" class="st0" width="40" height="29"/>
	<path class="st10" d="M274.3,469.7H271v-12.4c-1.2,1.1-2.6,2-4.3,2.5v-3c0.9-0.3,1.8-0.8,2.8-1.6c1-0.8,1.7-1.7,2.1-2.7h2.7V469.7z
		 M290.4,456.7l-3.2,0.3c-0.1-0.7-0.3-1.1-0.6-1.5c-0.3-0.3-0.8-0.5-1.3-0.5c-0.7,0-1.3,0.3-1.8,0.9c-0.5,0.6-0.8,1.9-0.9,3.9
		c0.8-1,1.8-1.5,3-1.5c1.4,0,2.6,0.5,3.5,1.6c1,1,1.5,2.4,1.5,4.1c0,1.8-0.5,3.2-1.5,4.2c-1,1.1-2.4,1.6-4,1.6c-1.7,0-3.2-0.7-4.3-2
		c-1.1-1.3-1.7-3.6-1.7-6.6c0-3.1,0.6-5.4,1.8-6.8c1.2-1.4,2.7-2.1,4.5-2.1c1.3,0,2.4,0.4,3.3,1.1
		C289.6,454.3,290.2,455.3,290.4,456.7z M282.9,463.9c0,1.1,0.2,1.9,0.7,2.5c0.5,0.6,1.1,0.9,1.7,0.9c0.6,0,1.1-0.2,1.5-0.7
		c0.4-0.5,0.6-1.3,0.6-2.3c0-1.1-0.2-1.9-0.7-2.5c-0.4-0.5-1-0.8-1.6-0.8c-0.6,0-1.2,0.2-1.6,0.7
		C283.2,462.2,282.9,462.9,282.9,463.9z"/>
	<line class="st17" x1="37.4" y1="237.1" x2="822.6" y2="237.1"/>
	<path class="st2" d="M377.7,454.7l0.2-7l-4.7,1.7L377.7,454.7z"/>
	<line class="st17" x1="37.4" y1="237.1" x2="822.6" y2="237.1"/>
	<path class="st3" d="M377.7,454.7l0.2-7l-4.7,1.7L377.7,454.7z"/>
	<line class="st3" x1="318.7" y1="290.5" x2="377.7" y2="454.7"/>
	<rect x="328.2" y="358.1" class="st0" width="40" height="29"/>
	<path class="st2" d="M344.3,382.1H341v-12.4c-1.2,1.1-2.6,2-4.3,2.5v-3c0.9-0.3,1.8-0.8,2.8-1.6c1-0.8,1.7-1.7,2.1-2.7h2.7V382.1z
		 M354.8,364.9c1.7,0,3,0.6,3.9,1.8c1.1,1.4,1.7,3.7,1.7,7c0,3.3-0.6,5.6-1.7,7c-0.9,1.2-2.2,1.8-3.9,1.8c-1.7,0-3-0.6-4-1.9
		c-1-1.3-1.5-3.6-1.5-6.9c0-3.2,0.6-5.6,1.7-7C351.9,365.4,353.1,364.9,354.8,364.9z M354.8,367.6c-0.4,0-0.8,0.1-1.1,0.4
		c-0.3,0.3-0.6,0.7-0.7,1.4c-0.2,0.9-0.3,2.3-0.3,4.3c0,2,0.1,3.4,0.3,4.1c0.2,0.8,0.5,1.3,0.8,1.5c0.3,0.3,0.7,0.4,1.1,0.4
		c0.4,0,0.7-0.1,1.1-0.4c0.3-0.3,0.6-0.7,0.7-1.4c0.2-0.8,0.3-2.3,0.3-4.3c0-2-0.1-3.4-0.3-4.2c-0.2-0.8-0.5-1.3-0.8-1.5
		C355.6,367.7,355.2,367.6,354.8,367.6z"/>
	<line class="st17" x1="37.4" y1="237.1" x2="822.6" y2="237.1"/>
	<path class="st7" d="M405.9,450.3l2.7-6.4l-5-0.1L405.9,450.3z"/>
	<line class="st17" x1="37.4" y1="237.1" x2="822.6" y2="237.1"/>
	<path class="st12" d="M405.9,450.3l2.7-6.4l-5-0.1L405.9,450.3z"/>
	<line class="st12" x1="410.3" y1="282.6" x2="405.9" y2="450.3"/>
	<rect x="394.6" y="352" class="st0" width="27" height="29"/>
	<path class="st7" d="M402.3,371.5l3.3-0.3c0.1,0.8,0.4,1.3,0.8,1.8c0.5,0.4,1,0.6,1.6,0.6c0.7,0,1.3-0.3,1.7-0.8
		c0.5-0.6,0.7-1.4,0.7-2.5c0-1.1-0.2-1.9-0.7-2.4c-0.5-0.5-1.1-0.8-1.8-0.8c-0.9,0-1.8,0.4-2.5,1.3l-2.7-0.4l1.7-9h8.7v3.1h-6.2
		l-0.5,2.9c0.7-0.4,1.5-0.5,2.3-0.5c1.5,0,2.7,0.5,3.7,1.6c1,1.1,1.5,2.4,1.5,4.1c0,1.4-0.4,2.7-1.2,3.8c-1.1,1.5-2.7,2.3-4.7,2.3
		c-1.6,0-2.9-0.4-3.9-1.3C403.1,374.1,402.5,373,402.3,371.5z"/>
	<line class="st17" x1="37.4" y1="237.1" x2="822.6" y2="237.1"/>
	<path class="st5" d="M433.8,456l4.8-5l-4.6-1.9L433.8,456z"/>
	<line class="st17" x1="37.4" y1="237.1" x2="822.6" y2="237.1"/>
	<path class="st14" d="M433.8,456l4.8-5l-4.6-1.9L433.8,456z"/>
	<line class="st14" x1="502.6" y1="291.8" x2="433.8" y2="456"/>
	<rect x="448.2" y="359.4" class="st0" width="40" height="29"/>
	<path class="st5" d="M464.3,383.4H461V371c-1.2,1.1-2.6,2-4.3,2.5v-3c0.9-0.3,1.8-0.8,2.8-1.6c1-0.8,1.7-1.7,2.1-2.7h2.7V383.4z
		 M477.7,383.4h-3.3V371c-1.2,1.1-2.6,2-4.3,2.5v-3c0.9-0.3,1.8-0.8,2.8-1.6c1-0.8,1.7-1.7,2.1-2.7h2.7V383.4z"/>
	<ellipse class="st0" cx="403.9" cy="527.5" rx="78.3" ry="77.3"/>
	<ellipse class="st16" cx="403.9" cy="527.5" rx="78.3" ry="77.3"/>
	<path d="M384.6,536.5l-3.6-15h3.1l2.3,10.3l2.8-10.3h3.6l2.6,10.5l2.3-10.5h3l-3.6,15h-3.2l-3-11.2l-3,11.2H384.6z M402.3,524.1
		v-2.7h2.9v2.7H402.3z M402.3,536.5v-10.9h2.9v10.9H402.3z M408.1,536.5v-15h4.5l2.7,10.3l2.7-10.3h4.5v15h-2.8v-11.8l-3,11.8h-2.9
		l-3-11.8v11.8H408.1z M425.6,524.1v-2.7h2.9v2.7H425.6z M425.6,536.5v-10.9h2.9v10.9H425.6z"/>
	<rect x="89.4" y="365.6" class="st10" width="143.7" height="64"/>
	<rect x="89.4" y="365.6" class="st11" width="143.7" height="64"/>
	<path class="st0" d="M130.3,392.6v-15h10.3v2.5h-7.3v3.5h6.3v2.5h-6.3v6.4H130.3z M149.4,389.2l2.9,0.5c-0.4,1.1-1,1.9-1.8,2.4
		c-0.8,0.6-1.8,0.8-3,0.8c-1.9,0-3.3-0.6-4.2-1.9c-0.7-1-1.1-2.2-1.1-3.8c0-1.8,0.5-3.2,1.4-4.2c0.9-1,2.1-1.5,3.6-1.5
		c1.6,0,2.9,0.5,3.8,1.6c0.9,1.1,1.4,2.7,1.3,4.9h-7.2c0,0.9,0.3,1.5,0.7,2c0.4,0.5,1,0.7,1.7,0.7c0.4,0,0.8-0.1,1.1-0.4
		C149,390.1,149.2,389.7,149.4,389.2z M149.6,386.2c0-0.8-0.2-1.5-0.6-1.9c-0.4-0.4-0.9-0.7-1.5-0.7c-0.6,0-1.1,0.2-1.5,0.7
		c-0.4,0.5-0.6,1.1-0.6,1.9H149.6z M153.7,389.5l2.9-0.4c0.1,0.6,0.4,1,0.7,1.3c0.4,0.3,0.9,0.4,1.6,0.4c0.7,0,1.3-0.1,1.7-0.4
		c0.3-0.2,0.4-0.4,0.4-0.8c0-0.2-0.1-0.4-0.2-0.5c-0.1-0.1-0.5-0.3-1-0.4c-2.3-0.5-3.8-1-4.4-1.4c-0.9-0.6-1.3-1.4-1.3-2.5
		c0-0.9,0.4-1.7,1.1-2.4c0.7-0.6,1.9-1,3.5-1c1.5,0,2.6,0.2,3.3,0.7c0.7,0.5,1.2,1.2,1.5,2.2l-2.7,0.5c-0.1-0.4-0.3-0.8-0.7-1
		c-0.3-0.2-0.8-0.3-1.4-0.3c-0.8,0-1.3,0.1-1.6,0.3c-0.2,0.2-0.3,0.4-0.3,0.6c0,0.2,0.1,0.4,0.3,0.5c0.3,0.2,1.2,0.5,2.7,0.8
		c1.5,0.3,2.6,0.8,3.2,1.3c0.6,0.5,0.9,1.2,0.9,2.1c0,1-0.4,1.9-1.3,2.6c-0.8,0.7-2.1,1.1-3.7,1.1c-1.5,0-2.7-0.3-3.5-0.9
		C154.6,391.4,154,390.5,153.7,389.5z M171.4,381.7v2.3h-2v4.4c0,0.9,0,1.4,0.1,1.5c0,0.1,0.1,0.3,0.3,0.4c0.1,0.1,0.3,0.1,0.5,0.1
		c0.3,0,0.7-0.1,1.2-0.3l0.3,2.2c-0.7,0.3-1.4,0.4-2.3,0.4c-0.5,0-1-0.1-1.4-0.3c-0.4-0.2-0.7-0.4-0.9-0.7c-0.2-0.3-0.3-0.6-0.4-1.1
		c-0.1-0.3-0.1-1-0.1-2V384h-1.3v-2.3h1.3v-2.2l2.9-1.7v3.8H171.4z M179.7,389.2l2.9,0.5c-0.4,1.1-1,1.9-1.8,2.4
		c-0.8,0.6-1.8,0.8-3,0.8c-1.9,0-3.3-0.6-4.2-1.9c-0.7-1-1.1-2.2-1.1-3.8c0-1.8,0.5-3.2,1.4-4.2c0.9-1,2.1-1.5,3.6-1.5
		c1.6,0,2.9,0.5,3.8,1.6c0.9,1.1,1.4,2.7,1.3,4.9h-7.2c0,0.9,0.3,1.5,0.7,2c0.4,0.5,1,0.7,1.7,0.7c0.4,0,0.8-0.1,1.1-0.4
		C179.3,390.1,179.6,389.7,179.7,389.2z M179.9,386.2c0-0.8-0.2-1.5-0.6-1.9c-0.4-0.4-0.9-0.7-1.5-0.7c-0.6,0-1.1,0.2-1.5,0.7
		c-0.4,0.5-0.6,1.1-0.6,1.9H179.9z M187.9,392.6H185v-10.9h2.7v1.5c0.5-0.7,0.9-1.2,1.2-1.4c0.4-0.2,0.8-0.4,1.3-0.4
		c0.7,0,1.3,0.2,1.9,0.5l-0.9,2.5c-0.5-0.3-0.9-0.5-1.4-0.5c-0.4,0-0.7,0.1-1,0.3c-0.3,0.2-0.5,0.6-0.7,1.2
		c-0.2,0.6-0.2,1.8-0.2,3.7V392.6z"/>
	<path class="st0" d="M115.8,420.6h-3.3l-1.3-3.4h-6l-1.2,3.4h-3.2l5.9-15h3.2L115.8,420.6z M110.2,414.7l-2.1-5.6l-2,5.6H110.2z
		 M120.2,420.6h-2.9v-10.9h2.7v1.5c0.5-0.7,0.9-1.2,1.2-1.4c0.4-0.2,0.8-0.4,1.3-0.4c0.7,0,1.3,0.2,1.9,0.5l-0.9,2.5
		c-0.5-0.3-0.9-0.5-1.4-0.5c-0.4,0-0.7,0.1-1,0.3c-0.3,0.2-0.5,0.6-0.7,1.2c-0.2,0.6-0.2,1.8-0.2,3.7V420.6z M125.5,420.6v-15h2.9
		v5.4c0.9-1,1.9-1.5,3.2-1.5c1.3,0,2.4,0.5,3.3,1.4s1.3,2.3,1.3,4.1c0,1.9-0.4,3.3-1.3,4.3c-0.9,1-2,1.5-3.2,1.5
		c-0.6,0-1.2-0.2-1.8-0.5c-0.6-0.3-1.1-0.8-1.6-1.4v1.6H125.5z M128.3,414.9c0,1.1,0.2,2,0.5,2.5c0.5,0.8,1.2,1.1,2,1.1
		c0.6,0,1.2-0.3,1.6-0.8c0.4-0.5,0.7-1.4,0.7-2.6c0-1.2-0.2-2.1-0.7-2.7c-0.4-0.6-1-0.8-1.7-0.8c-0.7,0-1.3,0.3-1.7,0.8
		C128.6,413,128.3,413.8,128.3,414.9z M144.7,417.2l2.9,0.5c-0.4,1.1-1,1.9-1.8,2.4c-0.8,0.6-1.8,0.8-3,0.8c-1.9,0-3.3-0.6-4.2-1.9
		c-0.7-1-1.1-2.2-1.1-3.8c0-1.8,0.5-3.2,1.4-4.2c0.9-1,2.1-1.5,3.6-1.5c1.6,0,2.9,0.5,3.8,1.6c0.9,1.1,1.4,2.7,1.3,4.9h-7.2
		c0,0.9,0.3,1.5,0.7,2c0.4,0.5,1,0.7,1.7,0.7c0.4,0,0.8-0.1,1.1-0.4C144.3,418.1,144.6,417.7,144.7,417.2z M144.9,414.2
		c0-0.8-0.2-1.5-0.6-1.9c-0.4-0.4-0.9-0.7-1.5-0.7c-0.6,0-1.1,0.2-1.5,0.7c-0.4,0.5-0.6,1.1-0.6,1.9H144.9z M150.1,408.3v-2.7h2.9
		v2.7H150.1z M150.1,420.6v-10.9h2.9v10.9H150.1z M160.9,409.7v2.3h-2v4.4c0,0.9,0,1.4,0.1,1.5c0,0.1,0.1,0.3,0.3,0.4
		c0.1,0.1,0.3,0.1,0.5,0.1c0.3,0,0.7-0.1,1.2-0.3l0.3,2.2c-0.7,0.3-1.4,0.4-2.3,0.4c-0.5,0-1-0.1-1.4-0.3c-0.4-0.2-0.7-0.4-0.9-0.7
		s-0.3-0.6-0.4-1.1c-0.1-0.3-0.1-1-0.1-2V412h-1.3v-2.3h1.3v-2.2l2.9-1.7v3.8H160.9z M161.9,417.5l2.9-0.4c0.1,0.6,0.4,1,0.7,1.3
		c0.4,0.3,0.9,0.4,1.6,0.4c0.7,0,1.3-0.1,1.7-0.4c0.3-0.2,0.4-0.4,0.4-0.8c0-0.2-0.1-0.4-0.2-0.5c-0.1-0.1-0.5-0.3-1-0.4
		c-2.3-0.5-3.8-1-4.4-1.4c-0.9-0.6-1.3-1.4-1.3-2.5c0-0.9,0.4-1.7,1.1-2.4c0.7-0.6,1.9-1,3.5-1c1.5,0,2.6,0.2,3.3,0.7
		c0.7,0.5,1.2,1.2,1.5,2.2l-2.7,0.5c-0.1-0.4-0.3-0.8-0.7-1c-0.3-0.2-0.8-0.3-1.4-0.3c-0.8,0-1.3,0.1-1.6,0.3
		c-0.2,0.2-0.3,0.4-0.3,0.6c0,0.2,0.1,0.4,0.3,0.5c0.3,0.2,1.2,0.5,2.7,0.8c1.5,0.3,2.6,0.8,3.2,1.3c0.6,0.5,0.9,1.2,0.9,2.1
		c0,1-0.4,1.9-1.3,2.6c-0.8,0.7-2.1,1.1-3.7,1.1c-1.5,0-2.7-0.3-3.5-0.9C162.7,419.4,162.2,418.5,161.9,417.5z M174.5,409.7h2.7v1.6
		c0.4-0.5,0.8-1,1.4-1.3c0.6-0.3,1.3-0.5,2-0.5c1.3,0,2.3,0.5,3.2,1.5s1.3,2.4,1.3,4.1c0,1.8-0.4,3.2-1.3,4.2c-0.9,1-2,1.5-3.2,1.5
		c-0.6,0-1.2-0.1-1.6-0.4c-0.5-0.2-1-0.7-1.5-1.2v5.5h-2.9V409.7z M177.4,415c0,1.2,0.2,2.1,0.7,2.7c0.5,0.6,1.1,0.9,1.8,0.9
		c0.7,0,1.2-0.3,1.7-0.8c0.4-0.5,0.7-1.4,0.7-2.6c0-1.1-0.2-2-0.7-2.5c-0.5-0.6-1-0.8-1.7-0.8c-0.7,0-1.3,0.3-1.8,0.8
		S177.4,413.9,177.4,415z M187.4,420.6v-15h2.9v15H187.4z M195.4,413.1l-2.6-0.5c0.3-1.1,0.8-1.8,1.5-2.3c0.7-0.5,1.8-0.8,3.2-0.8
		c1.3,0,2.2,0.2,2.9,0.5c0.6,0.3,1.1,0.7,1.3,1.2c0.3,0.5,0.4,1.3,0.4,2.6l0,3.4c0,1,0,1.7,0.1,2.1c0.1,0.5,0.3,0.9,0.5,1.5h-2.8
		c-0.1-0.2-0.2-0.5-0.3-0.8c-0.1-0.2-0.1-0.3-0.1-0.3c-0.5,0.5-1,0.8-1.6,1.1c-0.6,0.2-1.2,0.4-1.8,0.4c-1.1,0-2-0.3-2.7-0.9
		c-0.6-0.6-1-1.4-1-2.3c0-0.6,0.1-1.2,0.4-1.6c0.3-0.5,0.7-0.9,1.2-1.1c0.5-0.3,1.3-0.5,2.3-0.7c1.3-0.3,2.3-0.5,2.8-0.7v-0.3
		c0-0.6-0.1-0.9-0.4-1.2c-0.3-0.2-0.8-0.4-1.5-0.4c-0.5,0-0.9,0.1-1.2,0.3C195.8,412.2,195.6,412.6,195.4,413.1z M199.3,415.4
		c-0.4,0.1-0.9,0.3-1.8,0.4c-0.8,0.2-1.3,0.3-1.6,0.5c-0.4,0.3-0.6,0.6-0.6,1c0,0.4,0.2,0.7,0.5,1c0.3,0.3,0.7,0.4,1.2,0.4
		c0.5,0,1-0.2,1.5-0.5c0.3-0.3,0.6-0.6,0.7-1c0.1-0.3,0.1-0.7,0.1-1.4V415.4z M209.9,409.7v2.3h-2v4.4c0,0.9,0,1.4,0.1,1.5
		c0,0.1,0.1,0.3,0.3,0.4c0.1,0.1,0.3,0.1,0.5,0.1c0.3,0,0.7-0.1,1.2-0.3l0.3,2.2c-0.7,0.3-1.4,0.4-2.3,0.4c-0.5,0-1-0.1-1.4-0.3
		c-0.4-0.2-0.7-0.4-0.9-0.7s-0.3-0.6-0.4-1.1c-0.1-0.3-0.1-1-0.1-2V412h-1.3v-2.3h1.3v-2.2l2.9-1.7v3.8H209.9z M210.8,420.6v-2.3
		l4.1-4.7c0.7-0.8,1.2-1.3,1.5-1.6c-0.3,0-0.8,0-1.3,0l-3.8,0v-2.4h9v2l-4.2,4.8l-1.5,1.6c0.8,0,1.3-0.1,1.5-0.1h4.5v2.5H210.8z"/>
	<rect x="377" y="238.6" class="st0" width="67.7" height="44"/>
	<rect x="377" y="238.6" class="st6" width="67.7" height="44"/>
	<path class="st7" d="M394.4,269.6v-15h3l6.2,10v-10h2.8v15h-3l-6.1-9.8v9.8H394.4z M411.7,269.6l-3.6-15h3.1l2.3,10.3l2.8-10.3h3.6
		l2.6,10.5l2.3-10.5h3l-3.6,15H421l-3-11.2l-3,11.2H411.7z"/>
	<rect x="276.3" y="246.4" class="st0" width="68.8" height="44.1"/>
	<rect x="276.3" y="246.4" class="st1" width="68.8" height="44.1"/>
	<path class="st2" d="M303.7,271.9v-2.5h6.5v6c-0.6,0.6-1.6,1.2-2.8,1.6c-1.2,0.5-2.4,0.7-3.7,0.7c-1.6,0-2.9-0.3-4.1-1
		c-1.2-0.7-2.1-1.6-2.6-2.8c-0.6-1.2-0.9-2.6-0.9-4c0-1.6,0.3-3,1-4.2c0.7-1.2,1.6-2.1,2.9-2.8c1-0.5,2.2-0.7,3.6-0.7
		c1.9,0,3.3,0.4,4.4,1.2c1.1,0.8,1.7,1.9,2,3.2l-3,0.6c-0.2-0.7-0.6-1.3-1.2-1.7c-0.6-0.4-1.3-0.6-2.2-0.6c-1.3,0-2.4,0.4-3.2,1.3
		s-1.2,2.1-1.2,3.7c0,1.8,0.4,3.1,1.2,4s1.8,1.3,3.1,1.3c0.6,0,1.3-0.1,1.9-0.4c0.6-0.3,1.2-0.6,1.6-0.9v-1.9H303.7z M312.3,272.6
		l3-0.3c0.2,1,0.5,1.7,1.1,2.2c0.5,0.5,1.3,0.7,2.2,0.7c1,0,1.7-0.2,2.2-0.6c0.5-0.4,0.8-0.9,0.8-1.5c0-0.4-0.1-0.7-0.3-0.9
		c-0.2-0.3-0.6-0.5-1.1-0.6c-0.4-0.1-1.2-0.3-2.4-0.7c-1.6-0.4-2.8-0.9-3.4-1.5c-0.9-0.8-1.4-1.8-1.4-3c0-0.8,0.2-1.5,0.7-2.2
		c0.4-0.7,1.1-1.2,1.9-1.5c0.8-0.3,1.8-0.5,2.9-0.5c1.9,0,3.3,0.4,4.3,1.2c1,0.8,1.5,1.9,1.5,3.3l-3,0.1c-0.1-0.8-0.4-1.3-0.8-1.7
		c-0.4-0.3-1.1-0.5-1.9-0.5c-0.9,0-1.6,0.2-2.1,0.5c-0.3,0.2-0.5,0.5-0.5,0.9c0,0.4,0.2,0.7,0.5,0.9c0.4,0.3,1.3,0.7,2.8,1
		c1.5,0.3,2.6,0.7,3.3,1.1c0.7,0.4,1.3,0.9,1.7,1.5c0.4,0.6,0.6,1.4,0.6,2.4c0,0.9-0.2,1.7-0.7,2.4c-0.5,0.8-1.2,1.3-2,1.7
		c-0.9,0.4-2,0.5-3.3,0.5c-1.9,0-3.4-0.4-4.4-1.3C313.1,275.5,312.5,274.2,312.3,272.6z"/>
	<rect x="477.4" y="247.2" class="st0" width="69.1" height="44.6"/>
	<rect x="477.4" y="247.2" class="st4" width="69.1" height="44.6"/>
	<path class="st5" d="M501.4,273v-2.5h6.5v6c-0.6,0.6-1.6,1.2-2.8,1.6c-1.2,0.5-2.4,0.7-3.7,0.7c-1.6,0-2.9-0.3-4.1-1
		c-1.2-0.7-2.1-1.6-2.6-2.8c-0.6-1.2-0.9-2.6-0.9-4c0-1.6,0.3-3,1-4.2c0.7-1.2,1.6-2.1,2.9-2.8c1-0.5,2.2-0.7,3.6-0.7
		c1.9,0,3.3,0.4,4.4,1.2c1.1,0.8,1.7,1.9,2,3.2l-3,0.6c-0.2-0.7-0.6-1.3-1.2-1.7c-0.6-0.4-1.3-0.6-2.2-0.6c-1.3,0-2.4,0.4-3.2,1.3
		s-1.2,2.1-1.2,3.7c0,1.8,0.4,3.1,1.2,4s1.8,1.3,3.1,1.3c0.6,0,1.3-0.1,1.9-0.4c0.6-0.3,1.2-0.6,1.6-0.9V273H501.4z M512.9,278.5
		l-3.6-15h3.1l2.3,10.3l2.8-10.3h3.6l2.6,10.5l2.3-10.5h3l-3.6,15h-3.2l-3-11.2l-3,11.2H512.9z"/>
</g>
</svg>
