<?xml version="1.0" encoding="utf-8"?>
<!-- Generator: Adobe Illustrator 21.0.2, SVG Export Plug-In . SVG Version: 6.00 Build 0)  -->
<svg version="1.1" id="Layer_1" xmlns="http://www.w3.org/2000/svg" xmlns:xlink="http://www.w3.org/1999/xlink" x="0px" y="0px"
	 width="860px" height="841.9px" viewBox="0 0 860 841.9" style="enable-background:new 0 0 860 841.9;" xml:space="preserve">
<style type="text/css">
	.st0{fill:#FFFFFF;}
	.st1{fill:none;stroke:#F2AE45;stroke-width:3;stroke-miterlimit:10;}
	.st2{fill:#F2AE45;}
	.st3{fill:none;stroke:#F2AE45;stroke-width:2.3026;stroke-miterlimit:10;}
	.st4{fill:none;stroke:#9DDB53;stroke-width:3;stroke-miterlimit:10;}
	.st5{fill:#9DDB53;}
	.st6{fill:none;stroke:#33A8F5;stroke-width:3;stroke-miterlimit:10;}
	.st7{fill:#33A8F5;}
	.st8{fill:#009999;}
	.st9{fill:none;stroke:#009999;stroke-width:3;stroke-miterlimit:10;}
	.st10{fill:#8484EF;}
	.st11{fill:none;stroke:#8484EF;stroke-width:3;stroke-miterlimit:10;}
	.st12{fill:none;stroke:#33A8F5;stroke-width:1.6094;stroke-miterlimit:10;}
	.st13{fill:none;stroke:#8484EF;stroke-width:2.7726;stroke-miterlimit:10;}
	.st14{fill:none;stroke:#9DDB53;stroke-width:2.3979;stroke-miterlimit:10;}
	.st15{fill:none;stroke:#009999;stroke-width:2.4849;stroke-miterlimit:10;}
	.st16{fill:none;stroke:#000000;stroke-width:3;stroke-miterlimit:10;}
	.st17{fill:none;}
	.st18{fill:#009999;fill-opacity:0.2588;}
	.st19{fill:none;stroke:#B8DAE0;stroke-width:1.0986;stroke-miterlimit:10;}
	
		.st20{fill:none;stroke:#009999;stroke-width:1.0986;stroke-linejoin:bevel;stroke-miterlimit:10;stroke-opacity:0.2588;stroke-dasharray:5,3;}
	.st21{fill:#D0D0D0;}
	.st22{fill:none;stroke:#B8DAE0;stroke-width:2.0794;stroke-miterlimit:10;}
	
		.st23{fill:none;stroke:#009999;stroke-width:2.0794;stroke-linejoin:bevel;stroke-miterlimit:10;stroke-opacity:0.2588;stroke-dasharray:5,3;}
	.st24{fill:none;stroke:#B8DAE0;stroke-width:2.3026;stroke-miterlimit:10;}
	.st25{fill:none;stroke:#B8DAE0;stroke-width:2.303;stroke-linejoin:bevel;stroke-miterlimit:10;stroke-dasharray:5,3;}
	.st26{fill:#C1C1FF;}
	.st27{fill:none;stroke:#C1C1FF;stroke-miterlimit:10;}
	.st28{fill:none;stroke:#C1C1FF;stroke-linejoin:bevel;stroke-miterlimit:10;stroke-dasharray:5,3;}
	.st29{fill:none;stroke:#C1C1FF;stroke-width:2.3026;stroke-miterlimit:10;}
	.st30{fill:none;stroke:#C1C1FF;stroke-width:2.3026;stroke-linejoin:bevel;stroke-miterlimit:10;stroke-dasharray:5,3;}
	.st31{fill:none;stroke:#F2AE45;stroke-width:0.3;stroke-miterlimit:10;}
	.st32{fill:none;stroke:#F2AE45;stroke-width:1.0986;stroke-miterlimit:10;}
	.st33{fill:none;stroke:#9DDB53;stroke-width:0.6931;stroke-miterlimit:10;}
	.st34{fill:#76AF31;}
	.st35{fill:none;stroke:#9DDB53;stroke-width:0.3;stroke-miterlimit:10;}
	.st36{fill:none;stroke:#9DDB53;stroke-width:1.0986;stroke-miterlimit:10;}
	.st37{fill:none;stroke:#33A8F5;stroke-width:0.3;stroke-miterlimit:10;}
	.st38{fill:#4C4C4C;}
	.st39{fill:none;stroke:#4C4C4C;stroke-width:2.7726;stroke-miterlimit:10;}
	.st40{fill:#EEEEEE;}
	.st41{fill:none;stroke:#EEEEEE;stroke-width:2.3026;stroke-miterlimit:10;}
	.st42{fill:none;stroke:#EEEEEE;stroke-miterlimit:10;}
	.st43{fill:none;stroke:#4C4C4C;stroke-width:2.4849;stroke-miterlimit:10;}
	.st44{fill:#FFC63B;}
	.st45{fill:none;stroke:#EEEEEE;stroke-width:2.0794;stroke-miterlimit:10;}
	.st46{fill:#C1F780;}
	.st47{fill:none;stroke:#EEEEEE;stroke-width:1.0986;stroke-miterlimit:10;}
	.st48{fill:none;stroke:#000000;stroke-miterlimit:10;stroke-opacity:0;}
	.st49{fill:#FC938D;}
	.st50{fill:#0877C0;}
	.st51{fill:none;stroke:#4C4C4C;stroke-width:3;stroke-miterlimit:10;}
	.st52{fill:none;stroke:#8484EF;stroke-miterlimit:10;}
	.st53{fill:none;stroke:#009999;stroke-width:1.0986;stroke-miterlimit:10;}
	.st54{fill:none;stroke:#009999;stroke-width:2.3026;stroke-miterlimit:10;}
	.st55{fill:none;stroke:#8484EF;stroke-width:2.3026;stroke-miterlimit:10;}
	.st56{fill:none;stroke:#009999;stroke-width:2.0794;stroke-miterlimit:10;}
	.st57{fill:none;stroke:#9DDB53;stroke-width:6;stroke-miterlimit:10;}
	.st58{fill:none;stroke:#F2AE45;stroke-width:6;stroke-miterlimit:10;}
	.st59{fill:#4C4C4C;stroke:#4C4C4C;stroke-miterlimit:10;}
</style>
<g>
	<rect x="414.6" y="205.5" class="st0" width="80.6" height="36"/>
	<rect x="414.6" y="205.5" class="st1" width="80.6" height="36"/>
	<path class="st2" d="M447.9,226.9v-2.5h6.5v6c-0.6,0.6-1.6,1.2-2.8,1.6s-2.4,0.7-3.7,0.7c-1.6,0-2.9-0.3-4.1-1
		c-1.2-0.7-2.1-1.6-2.6-2.8c-0.6-1.2-0.9-2.6-0.9-4c0-1.6,0.3-3,1-4.2c0.7-1.2,1.6-2.1,2.9-2.8c1-0.5,2.2-0.7,3.6-0.7
		c1.9,0,3.3,0.4,4.4,1.2c1.1,0.8,1.7,1.9,2,3.2l-3,0.6c-0.2-0.7-0.6-1.3-1.2-1.7c-0.6-0.4-1.3-0.6-2.2-0.6c-1.3,0-2.4,0.4-3.2,1.3
		s-1.2,2.1-1.2,3.7c0,1.8,0.4,3.1,1.2,4c0.8,0.9,1.8,1.3,3.1,1.3c0.6,0,1.3-0.1,1.9-0.4c0.6-0.3,1.2-0.6,1.6-0.9v-1.9H447.9z
		 M456.5,227.6l3-0.3c0.2,1,0.5,1.7,1.1,2.2c0.5,0.5,1.3,0.7,2.2,0.7c1,0,1.7-0.2,2.2-0.6c0.5-0.4,0.8-0.9,0.8-1.5
		c0-0.4-0.1-0.7-0.3-0.9c-0.2-0.3-0.6-0.5-1.1-0.6c-0.4-0.1-1.2-0.3-2.4-0.7c-1.6-0.4-2.8-0.9-3.4-1.5c-0.9-0.8-1.4-1.8-1.4-3
		c0-0.8,0.2-1.5,0.7-2.2c0.4-0.7,1.1-1.2,1.9-1.5c0.8-0.3,1.8-0.5,2.9-0.5c1.9,0,3.3,0.4,4.3,1.2c1,0.8,1.5,1.9,1.5,3.3l-3,0.1
		c-0.1-0.8-0.4-1.3-0.8-1.7c-0.4-0.3-1.1-0.5-1.9-0.5c-0.9,0-1.6,0.2-2.1,0.5c-0.3,0.2-0.5,0.5-0.5,0.9c0,0.4,0.2,0.7,0.5,0.9
		c0.4,0.3,1.3,0.7,2.8,1c1.5,0.3,2.6,0.7,3.3,1.1c0.7,0.4,1.3,0.9,1.7,1.5c0.4,0.6,0.6,1.4,0.6,2.4c0,0.9-0.2,1.7-0.7,2.4
		c-0.5,0.8-1.2,1.3-2,1.7c-0.9,0.4-2,0.5-3.3,0.5c-1.9,0-3.4-0.4-4.4-1.3S456.7,229.2,456.5,227.6z"/>
	<path class="st2" d="M454.9,325.4l2.5-6.5h-5L454.9,325.4z"/>
	<path class="st3" d="M454.9,325.4l2.5-6.5h-5L454.9,325.4z"/>
	<line class="st3" x1="454.9" y1="241.5" x2="454.9" y2="325.4"/>
	<rect x="434.9" y="268.9" class="st0" width="40" height="29"/>
	<path class="st2" d="M451.1,292.9h-3.3v-12.4c-1.2,1.1-2.6,2-4.3,2.5v-3c0.9-0.3,1.8-0.8,2.8-1.6c1-0.8,1.7-1.7,2.1-2.7h2.7V292.9z
		 M461.5,275.7c1.7,0,3,0.6,3.9,1.8c1.1,1.4,1.7,3.7,1.7,7c0,3.3-0.6,5.6-1.7,7c-0.9,1.2-2.2,1.8-3.9,1.8c-1.7,0-3-0.6-4-1.9
		c-1-1.3-1.5-3.6-1.5-6.9c0-3.2,0.6-5.6,1.7-7C458.6,276.3,459.9,275.7,461.5,275.7z M461.5,278.4c-0.4,0-0.8,0.1-1.1,0.4
		c-0.3,0.3-0.6,0.7-0.7,1.4c-0.2,0.9-0.3,2.3-0.3,4.3c0,2,0.1,3.4,0.3,4.1c0.2,0.8,0.5,1.3,0.8,1.5c0.3,0.3,0.7,0.4,1.1,0.4
		c0.4,0,0.7-0.1,1.1-0.4c0.3-0.3,0.6-0.7,0.7-1.4c0.2-0.8,0.3-2.3,0.3-4.3c0-2-0.1-3.4-0.3-4.2c-0.2-0.8-0.5-1.3-0.8-1.5
		C462.3,278.5,461.9,278.4,461.5,278.4z"/>
	<rect x="632.7" y="387.8" class="st0" width="83" height="36"/>
	<rect x="632.7" y="387.8" class="st4" width="83" height="36"/>
	<path class="st5" d="M663.7,409.2v-2.5h6.5v6c-0.6,0.6-1.6,1.2-2.8,1.6c-1.2,0.5-2.4,0.7-3.7,0.7c-1.6,0-2.9-0.3-4.1-1
		c-1.2-0.7-2.1-1.6-2.6-2.8c-0.6-1.2-0.9-2.6-0.9-4c0-1.6,0.3-3,1-4.2c0.7-1.2,1.6-2.1,2.9-2.8c1-0.5,2.2-0.7,3.6-0.7
		c1.9,0,3.3,0.4,4.4,1.2c1.1,0.8,1.7,1.9,2,3.2l-3,0.6c-0.2-0.7-0.6-1.3-1.2-1.7c-0.6-0.4-1.3-0.6-2.2-0.6c-1.3,0-2.4,0.4-3.2,1.3
		c-0.8,0.8-1.2,2.1-1.2,3.7c0,1.8,0.4,3.1,1.2,4c0.8,0.9,1.8,1.3,3.1,1.3c0.6,0,1.3-0.1,1.9-0.4c0.6-0.3,1.2-0.6,1.6-0.9v-1.9H663.7
		z M675.2,414.8l-3.6-15h3.1l2.3,10.3l2.8-10.3h3.6l2.6,10.5l2.3-10.5h3l-3.6,15h-3.2l-3-11.2l-3,11.2H675.2z"/>
	<rect x="570.4" y="262.6" class="st0" width="84.8" height="36"/>
	<rect x="570.4" y="262.6" class="st6" width="84.8" height="36"/>
	<path class="st7" d="M596.4,289.6v-15h3l6.2,10v-10h2.8v15h-3l-6.1-9.8v9.8H596.4z M613.7,289.6l-3.6-15h3.1l2.3,10.3l2.8-10.3h3.6
		l2.6,10.5l2.3-10.5h3l-3.6,15h-3.2l-3-11.2l-3,11.2H613.7z"/>
	<rect x="144.3" y="387.8" class="st8" width="125.9" height="36"/>
	<rect x="144.3" y="387.8" class="st9" width="125.9" height="36"/>
	<path class="st0" d="M169.8,399.7h6c1.2,0,2.1,0,2.7,0.1c0.6,0.1,1.1,0.3,1.6,0.6c0.5,0.3,0.8,0.7,1.2,1.3c0.3,0.5,0.5,1.1,0.5,1.8
		c0,0.7-0.2,1.4-0.6,1.9c-0.4,0.6-0.9,1-1.5,1.3c0.9,0.3,1.6,0.7,2.1,1.4c0.5,0.6,0.7,1.4,0.7,2.3c0,0.7-0.2,1.4-0.5,2
		c-0.3,0.6-0.7,1.2-1.3,1.5c-0.5,0.4-1.2,0.6-2,0.7c-0.5,0.1-1.7,0.1-3.7,0.1h-5.1V399.7z M172.8,402.2v3.5h2c1.2,0,1.9,0,2.2-0.1
		c0.5-0.1,0.9-0.2,1.2-0.5c0.3-0.3,0.4-0.7,0.4-1.2c0-0.5-0.1-0.8-0.4-1.1s-0.6-0.5-1.1-0.5c-0.3,0-1.2,0-2.6,0H172.8z M172.8,408.2
		v4h2.8c1.1,0,1.8,0,2.1-0.1c0.4-0.1,0.8-0.3,1.1-0.6c0.3-0.3,0.4-0.7,0.4-1.3c0-0.4-0.1-0.8-0.3-1.1c-0.2-0.3-0.5-0.5-1-0.7
		c-0.4-0.1-1.3-0.2-2.7-0.2H172.8z M191.2,411.3l2.9,0.5c-0.4,1.1-1,1.9-1.8,2.4c-0.8,0.6-1.8,0.8-3,0.8c-1.9,0-3.3-0.6-4.2-1.9
		c-0.7-1-1.1-2.2-1.1-3.8c0-1.8,0.5-3.2,1.4-4.2c0.9-1,2.1-1.5,3.6-1.5c1.6,0,2.9,0.5,3.8,1.6c0.9,1.1,1.4,2.7,1.3,4.9H187
		c0,0.9,0.3,1.5,0.7,2c0.4,0.5,1,0.7,1.7,0.7c0.4,0,0.8-0.1,1.1-0.4C190.8,412.2,191.1,411.9,191.2,411.3z M191.4,408.4
		c0-0.8-0.2-1.5-0.6-1.9c-0.4-0.4-0.9-0.7-1.5-0.7c-0.6,0-1.1,0.2-1.5,0.7c-0.4,0.5-0.6,1.1-0.6,1.9H191.4z M198.7,407.2l-2.6-0.5
		c0.3-1.1,0.8-1.8,1.5-2.3c0.7-0.5,1.8-0.8,3.2-0.8c1.3,0,2.2,0.2,2.9,0.5c0.6,0.3,1.1,0.7,1.3,1.2c0.3,0.5,0.4,1.3,0.4,2.6l0,3.4
		c0,1,0,1.7,0.1,2.1c0.1,0.5,0.3,0.9,0.5,1.5h-2.8c-0.1-0.2-0.2-0.5-0.3-0.8c-0.1-0.2-0.1-0.3-0.1-0.3c-0.5,0.5-1,0.8-1.6,1.1
		s-1.2,0.4-1.8,0.4c-1.1,0-2-0.3-2.7-0.9c-0.6-0.6-1-1.4-1-2.3c0-0.6,0.1-1.2,0.4-1.6c0.3-0.5,0.7-0.9,1.2-1.1
		c0.5-0.3,1.3-0.5,2.3-0.7c1.3-0.3,2.3-0.5,2.8-0.7v-0.3c0-0.6-0.1-0.9-0.4-1.2c-0.3-0.2-0.8-0.4-1.5-0.4c-0.5,0-0.9,0.1-1.2,0.3
		C199.2,406.3,198.9,406.7,198.7,407.2z M202.6,409.5c-0.4,0.1-0.9,0.3-1.8,0.4c-0.8,0.2-1.3,0.3-1.6,0.5c-0.4,0.3-0.6,0.6-0.6,1
		c0,0.4,0.2,0.7,0.5,1c0.3,0.3,0.7,0.4,1.2,0.4c0.5,0,1-0.2,1.5-0.5c0.3-0.3,0.6-0.6,0.7-1c0.1-0.3,0.1-0.7,0.1-1.4V409.5z
		 M217.8,407.1l-2.8,0.5c-0.1-0.6-0.3-1-0.6-1.3c-0.3-0.3-0.8-0.4-1.3-0.4c-0.7,0-1.3,0.2-1.7,0.7c-0.4,0.5-0.6,1.3-0.6,2.5
		c0,1.3,0.2,2.2,0.7,2.7c0.4,0.5,1,0.8,1.8,0.8c0.6,0,1-0.2,1.3-0.5c0.3-0.3,0.6-0.8,0.7-1.6l2.8,0.5c-0.3,1.3-0.9,2.3-1.7,2.9
		c-0.8,0.7-2,1-3.4,1c-1.6,0-2.8-0.5-3.8-1.5c-0.9-1-1.4-2.4-1.4-4.2c0-1.8,0.5-3.2,1.4-4.2c0.9-1,2.2-1.5,3.9-1.5
		c1.3,0,2.4,0.3,3.2,0.9C216.9,405.1,217.4,405.9,217.8,407.1z M219.3,409.2c0-1,0.2-1.9,0.7-2.8c0.5-0.9,1.1-1.6,2-2.1
		c0.9-0.5,1.8-0.7,2.9-0.7c1.6,0,3,0.5,4,1.6c1.1,1.1,1.6,2.4,1.6,4.1c0,1.6-0.5,3-1.6,4.1s-2.4,1.6-4,1.6c-1,0-2-0.2-2.9-0.7
		c-0.9-0.5-1.6-1.1-2.1-2C219.5,411.5,219.3,410.4,219.3,409.2z M222.2,409.3c0,1.1,0.3,1.9,0.8,2.5c0.5,0.6,1.1,0.9,1.9,0.9
		c0.8,0,1.4-0.3,1.9-0.9c0.5-0.6,0.8-1.4,0.8-2.5c0-1.1-0.3-1.9-0.8-2.5c-0.5-0.6-1.1-0.9-1.9-0.9c-0.8,0-1.4,0.3-1.9,0.9
		C222.5,407.4,222.2,408.2,222.2,409.3z M242.7,414.8h-2.9v-5.6c0-1.2-0.1-1.9-0.2-2.3c-0.1-0.3-0.3-0.6-0.6-0.8
		c-0.3-0.2-0.6-0.3-1-0.3c-0.5,0-0.9,0.1-1.3,0.4c-0.4,0.3-0.7,0.6-0.8,1.1c-0.1,0.5-0.2,1.3-0.2,2.5v4.9h-2.9v-10.9h2.7v1.6
		c1-1.2,2.2-1.8,3.6-1.8c0.6,0,1.2,0.1,1.7,0.3c0.5,0.2,0.9,0.5,1.2,0.9c0.3,0.4,0.5,0.8,0.6,1.2c0.1,0.4,0.2,1.1,0.2,1.9V414.8z"/>
	<rect x="371.7" y="572.4" class="st10" width="166.4" height="64"/>
	<rect x="371.7" y="572.4" class="st11" width="166.4" height="64"/>
	<path class="st0" d="M424,599.4v-15h10.3v2.5H427v3.5h6.3v2.5H427v6.4H424z M443.1,596l2.9,0.5c-0.4,1.1-1,1.9-1.8,2.4
		c-0.8,0.6-1.8,0.8-3,0.8c-1.9,0-3.3-0.6-4.2-1.9c-0.7-1-1.1-2.2-1.1-3.8c0-1.8,0.5-3.2,1.4-4.2c0.9-1,2.1-1.5,3.6-1.5
		c1.6,0,2.9,0.5,3.8,1.6c0.9,1.1,1.4,2.7,1.3,4.9h-7.2c0,0.9,0.3,1.5,0.7,2c0.4,0.5,1,0.7,1.7,0.7c0.4,0,0.8-0.1,1.1-0.4
		C442.7,596.9,442.9,596.5,443.1,596z M443.2,593.1c0-0.8-0.2-1.5-0.6-1.9c-0.4-0.4-0.9-0.7-1.5-0.7c-0.6,0-1.1,0.2-1.5,0.7
		c-0.4,0.5-0.6,1.1-0.6,1.9H443.2z M447.4,596.3l2.9-0.4c0.1,0.6,0.4,1,0.7,1.3c0.4,0.3,0.9,0.4,1.6,0.4c0.7,0,1.3-0.1,1.7-0.4
		c0.3-0.2,0.4-0.4,0.4-0.8c0-0.2-0.1-0.4-0.2-0.5c-0.1-0.1-0.5-0.3-1-0.4c-2.3-0.5-3.8-1-4.4-1.4c-0.9-0.6-1.3-1.4-1.3-2.5
		c0-0.9,0.4-1.7,1.1-2.4c0.7-0.6,1.9-1,3.5-1c1.5,0,2.6,0.2,3.3,0.7c0.7,0.5,1.2,1.2,1.5,2.2l-2.7,0.5c-0.1-0.4-0.3-0.8-0.7-1
		c-0.3-0.2-0.8-0.3-1.4-0.3c-0.8,0-1.3,0.1-1.6,0.3c-0.2,0.2-0.3,0.4-0.3,0.6c0,0.2,0.1,0.4,0.3,0.5c0.3,0.2,1.2,0.5,2.7,0.8
		c1.5,0.3,2.6,0.8,3.2,1.3c0.6,0.5,0.9,1.2,0.9,2.1c0,1-0.4,1.9-1.3,2.6c-0.8,0.7-2.1,1.1-3.7,1.1c-1.5,0-2.7-0.3-3.5-0.9
		C448.3,598.2,447.7,597.4,447.4,596.3z M465.1,588.5v2.3h-2v4.4c0,0.9,0,1.4,0.1,1.5c0,0.1,0.1,0.3,0.3,0.4
		c0.1,0.1,0.3,0.1,0.5,0.1c0.3,0,0.7-0.1,1.2-0.3l0.3,2.2c-0.7,0.3-1.4,0.4-2.3,0.4c-0.5,0-1-0.1-1.4-0.3s-0.7-0.4-0.9-0.7
		c-0.2-0.3-0.3-0.6-0.4-1.1c-0.1-0.3-0.1-1-0.1-2v-4.8h-1.3v-2.3h1.3v-2.2l2.9-1.7v3.8H465.1z M473.4,596l2.9,0.5
		c-0.4,1.1-1,1.9-1.8,2.4c-0.8,0.6-1.8,0.8-3,0.8c-1.9,0-3.3-0.6-4.2-1.9c-0.7-1-1.1-2.2-1.1-3.8c0-1.8,0.5-3.2,1.4-4.2
		c0.9-1,2.1-1.5,3.6-1.5c1.6,0,2.9,0.5,3.8,1.6c0.9,1.1,1.4,2.7,1.3,4.9h-7.2c0,0.9,0.3,1.5,0.7,2c0.4,0.5,1,0.7,1.7,0.7
		c0.4,0,0.8-0.1,1.1-0.4C473,596.9,473.3,596.5,473.4,596z M473.6,593.1c0-0.8-0.2-1.5-0.6-1.9c-0.4-0.4-0.9-0.7-1.5-0.7
		c-0.6,0-1.1,0.2-1.5,0.7c-0.4,0.5-0.6,1.1-0.6,1.9H473.6z M481.6,599.4h-2.9v-10.9h2.7v1.5c0.5-0.7,0.9-1.2,1.2-1.4
		c0.4-0.2,0.8-0.4,1.3-0.4c0.7,0,1.3,0.2,1.9,0.5l-0.9,2.5c-0.5-0.3-0.9-0.5-1.4-0.5c-0.4,0-0.7,0.1-1,0.3c-0.3,0.2-0.5,0.6-0.7,1.2
		c-0.2,0.6-0.2,1.8-0.2,3.7V599.4z"/>
	<path class="st0" d="M409.5,627.4h-3.3l-1.3-3.4h-6l-1.2,3.4h-3.2l5.9-15h3.2L409.5,627.4z M403.9,621.5l-2.1-5.6l-2,5.6H403.9z
		 M413.9,627.4H411v-10.9h2.7v1.5c0.5-0.7,0.9-1.2,1.2-1.4c0.4-0.2,0.8-0.4,1.3-0.4c0.7,0,1.3,0.2,1.9,0.5l-0.9,2.5
		c-0.5-0.3-0.9-0.5-1.4-0.5c-0.4,0-0.7,0.1-1,0.3c-0.3,0.2-0.5,0.6-0.7,1.2c-0.2,0.6-0.2,1.8-0.2,3.7V627.4z M419.2,627.4v-15h2.9
		v5.4c0.9-1,1.9-1.5,3.2-1.5c1.3,0,2.4,0.5,3.3,1.4c0.9,1,1.3,2.3,1.3,4.1c0,1.9-0.4,3.3-1.3,4.3c-0.9,1-2,1.5-3.2,1.5
		c-0.6,0-1.2-0.2-1.8-0.5c-0.6-0.3-1.1-0.8-1.6-1.4v1.6H419.2z M422,621.7c0,1.1,0.2,2,0.5,2.5c0.5,0.8,1.2,1.1,2,1.1
		c0.6,0,1.2-0.3,1.6-0.8c0.4-0.5,0.7-1.4,0.7-2.6c0-1.2-0.2-2.1-0.7-2.7c-0.4-0.6-1-0.8-1.7-0.8c-0.7,0-1.3,0.3-1.7,0.8
		C422.2,619.8,422,620.7,422,621.7z M438.4,624l2.9,0.5c-0.4,1.1-1,1.9-1.8,2.4c-0.8,0.6-1.8,0.8-3,0.8c-1.9,0-3.3-0.6-4.2-1.9
		c-0.7-1-1.1-2.2-1.1-3.8c0-1.8,0.5-3.2,1.4-4.2c0.9-1,2.1-1.5,3.6-1.5c1.6,0,2.9,0.5,3.8,1.6c0.9,1.1,1.4,2.7,1.3,4.9h-7.2
		c0,0.9,0.3,1.5,0.7,2c0.4,0.5,1,0.7,1.7,0.7c0.4,0,0.8-0.1,1.1-0.4C438,624.9,438.3,624.5,438.4,624z M438.6,621.1
		c0-0.8-0.2-1.5-0.6-1.9c-0.4-0.4-0.9-0.7-1.5-0.7c-0.6,0-1.1,0.2-1.5,0.7c-0.4,0.5-0.6,1.1-0.6,1.9H438.6z M443.8,615.1v-2.7h2.9
		v2.7H443.8z M443.8,627.4v-10.9h2.9v10.9H443.8z M454.6,616.5v2.3h-2v4.4c0,0.9,0,1.4,0.1,1.5c0,0.1,0.1,0.3,0.3,0.4
		c0.1,0.1,0.3,0.1,0.5,0.1c0.3,0,0.7-0.1,1.2-0.3l0.3,2.2c-0.7,0.3-1.4,0.4-2.3,0.4c-0.5,0-1-0.1-1.4-0.3c-0.4-0.2-0.7-0.4-0.9-0.7
		c-0.2-0.3-0.3-0.6-0.4-1.1c-0.1-0.3-0.1-1-0.1-2v-4.8h-1.3v-2.3h1.3v-2.2l2.9-1.7v3.8H454.6z M455.6,624.3l2.9-0.4
		c0.1,0.6,0.4,1,0.7,1.3c0.4,0.3,0.9,0.4,1.6,0.4c0.7,0,1.3-0.1,1.7-0.4c0.3-0.2,0.4-0.4,0.4-0.8c0-0.2-0.1-0.4-0.2-0.5
		c-0.1-0.1-0.5-0.3-1-0.4c-2.3-0.5-3.8-1-4.4-1.4c-0.9-0.6-1.3-1.4-1.3-2.5c0-0.9,0.4-1.7,1.1-2.4c0.7-0.6,1.9-1,3.5-1
		c1.5,0,2.6,0.2,3.3,0.7c0.7,0.5,1.2,1.2,1.5,2.2l-2.7,0.5c-0.1-0.4-0.3-0.8-0.7-1c-0.3-0.2-0.8-0.3-1.4-0.3c-0.8,0-1.3,0.1-1.6,0.3
		c-0.2,0.2-0.3,0.4-0.3,0.6c0,0.2,0.1,0.4,0.3,0.5c0.3,0.2,1.2,0.5,2.7,0.8c1.5,0.3,2.6,0.8,3.2,1.3c0.6,0.5,0.9,1.2,0.9,2.1
		c0,1-0.4,1.9-1.3,2.6c-0.8,0.7-2.1,1.1-3.7,1.1c-1.5,0-2.7-0.3-3.5-0.9C456.4,626.2,455.9,625.4,455.6,624.3z M468.2,616.5h2.7v1.6
		c0.4-0.5,0.8-1,1.4-1.3c0.6-0.3,1.3-0.5,2-0.5c1.3,0,2.3,0.5,3.2,1.5c0.9,1,1.3,2.4,1.3,4.1c0,1.8-0.4,3.2-1.3,4.2
		c-0.9,1-2,1.5-3.2,1.5c-0.6,0-1.2-0.1-1.6-0.4c-0.5-0.2-1-0.7-1.5-1.2v5.5h-2.9V616.5z M471.1,621.8c0,1.2,0.2,2.1,0.7,2.7
		c0.5,0.6,1.1,0.9,1.8,0.9c0.7,0,1.2-0.3,1.7-0.8c0.4-0.5,0.7-1.4,0.7-2.6c0-1.1-0.2-2-0.7-2.5c-0.5-0.6-1-0.8-1.7-0.8
		c-0.7,0-1.3,0.3-1.8,0.8C471.3,619.9,471.1,620.7,471.1,621.8z M481.1,627.4v-15h2.9v15H481.1z M489.1,619.9l-2.6-0.5
		c0.3-1.1,0.8-1.8,1.5-2.3c0.7-0.5,1.8-0.8,3.2-0.8c1.3,0,2.2,0.2,2.9,0.5c0.6,0.3,1.1,0.7,1.3,1.2s0.4,1.3,0.4,2.6l0,3.4
		c0,1,0,1.7,0.1,2.1c0.1,0.5,0.3,0.9,0.5,1.5h-2.8c-0.1-0.2-0.2-0.5-0.3-0.8c-0.1-0.2-0.1-0.3-0.1-0.3c-0.5,0.5-1,0.8-1.6,1.1
		c-0.6,0.2-1.2,0.4-1.8,0.4c-1.1,0-2-0.3-2.7-0.9c-0.6-0.6-1-1.4-1-2.3c0-0.6,0.1-1.2,0.4-1.6c0.3-0.5,0.7-0.9,1.2-1.1
		c0.5-0.3,1.3-0.5,2.3-0.7c1.3-0.3,2.3-0.5,2.8-0.7V620c0-0.6-0.1-0.9-0.4-1.2c-0.3-0.2-0.8-0.4-1.5-0.4c-0.5,0-0.9,0.1-1.2,0.3
		S489.3,619.4,489.1,619.9z M493,622.2c-0.4,0.1-0.9,0.3-1.8,0.4c-0.8,0.2-1.3,0.3-1.6,0.5c-0.4,0.3-0.6,0.6-0.6,1
		c0,0.4,0.2,0.7,0.5,1c0.3,0.3,0.7,0.4,1.2,0.4c0.5,0,1-0.2,1.5-0.5c0.3-0.3,0.6-0.6,0.7-1c0.1-0.3,0.1-0.7,0.1-1.4V622.2z
		 M503.6,616.5v2.3h-2v4.4c0,0.9,0,1.4,0.1,1.5c0,0.1,0.1,0.3,0.3,0.4c0.1,0.1,0.3,0.1,0.5,0.1c0.3,0,0.7-0.1,1.2-0.3l0.3,2.2
		c-0.7,0.3-1.4,0.4-2.3,0.4c-0.5,0-1-0.1-1.4-0.3c-0.4-0.2-0.7-0.4-0.9-0.7s-0.3-0.6-0.4-1.1c-0.1-0.3-0.1-1-0.1-2v-4.8h-1.3v-2.3
		h1.3v-2.2l2.9-1.7v3.8H503.6z M504.5,627.4v-2.3l4.1-4.7c0.7-0.8,1.2-1.3,1.5-1.6c-0.3,0-0.8,0-1.3,0l-3.8,0v-2.4h9v2l-4.2,4.8
		l-1.5,1.6c0.8,0,1.3-0.1,1.5-0.1h4.5v2.5H504.5z"/>
	<path class="st7" d="M516.7,356.8l6.6-2.1l-3.1-3.9L516.7,356.8z"/>
	<path class="st12" d="M516.7,356.8l6.6-2.1l-3.1-3.9L516.7,356.8z"/>
	<line class="st12" x1="590.1" y1="298.6" x2="516.7" y2="356.8"/>
	<rect x="539.9" y="313.2" class="st0" width="27" height="29"/>
	<path class="st7" d="M547.6,332.8l3.3-0.3c0.1,0.8,0.4,1.3,0.8,1.8c0.5,0.4,1,0.6,1.6,0.6c0.7,0,1.3-0.3,1.7-0.8
		c0.5-0.6,0.7-1.4,0.7-2.5c0-1.1-0.2-1.9-0.7-2.4c-0.5-0.5-1.1-0.8-1.8-0.8c-0.9,0-1.8,0.4-2.5,1.3l-2.7-0.4l1.7-9h8.7v3.1h-6.2
		l-0.5,2.9c0.7-0.4,1.5-0.5,2.3-0.5c1.5,0,2.7,0.5,3.7,1.6c1,1.1,1.5,2.4,1.5,4.1c0,1.4-0.4,2.7-1.2,3.8c-1.1,1.5-2.7,2.3-4.7,2.3
		c-1.6,0-2.9-0.4-3.9-1.3C548.4,335.4,547.8,334.2,547.6,332.8z"/>
	<path class="st10" d="M454.9,486.2l-2.5,6.5h5L454.9,486.2z"/>
	<path class="st13" d="M454.9,486.2l-2.5,6.5h5L454.9,486.2z"/>
	<line class="st13" x1="454.9" y1="572.4" x2="454.9" y2="486.2"/>
	<rect x="434.9" y="514.8" class="st0" width="40" height="29"/>
	<path class="st10" d="M451.1,538.8h-3.3v-12.4c-1.2,1.1-2.6,2-4.3,2.5v-3c0.9-0.3,1.8-0.8,2.8-1.6c1-0.8,1.7-1.7,2.1-2.7h2.7V538.8
		z M467.1,525.8l-3.2,0.3c-0.1-0.7-0.3-1.1-0.6-1.5s-0.8-0.5-1.3-0.5c-0.7,0-1.3,0.3-1.8,0.9c-0.5,0.6-0.8,1.9-0.9,3.9
		c0.8-1,1.8-1.5,3-1.5c1.4,0,2.6,0.5,3.5,1.6c1,1,1.5,2.4,1.5,4.1c0,1.8-0.5,3.2-1.5,4.2c-1,1.1-2.4,1.6-4,1.6c-1.7,0-3.2-0.7-4.3-2
		c-1.1-1.3-1.7-3.6-1.7-6.6c0-3.1,0.6-5.4,1.8-6.8c1.2-1.4,2.7-2.1,4.5-2.1c1.3,0,2.4,0.4,3.3,1.1
		C466.3,523.4,466.9,524.4,467.1,525.8z M459.7,533c0,1.1,0.2,1.9,0.7,2.5c0.5,0.6,1.1,0.9,1.7,0.9c0.6,0,1.1-0.2,1.5-0.7
		c0.4-0.5,0.6-1.3,0.6-2.3c0-1.1-0.2-1.9-0.7-2.5s-1-0.8-1.6-0.8c-0.6,0-1.2,0.2-1.6,0.7C459.9,531.3,459.7,532,459.7,533z"/>
	<path class="st5" d="M533.3,405.8l6.5,2.5v-5L533.3,405.8z"/>
	<path class="st14" d="M533.3,405.8l6.5,2.5v-5L533.3,405.8z"/>
	<line class="st14" x1="632.7" y1="405.8" x2="533.3" y2="405.8"/>
	<rect x="563" y="391.3" class="st0" width="40" height="29"/>
	<path class="st5" d="M579.1,415.3h-3.3v-12.4c-1.2,1.1-2.6,2-4.3,2.5v-3c0.9-0.3,1.8-0.8,2.8-1.6c1-0.8,1.7-1.7,2.1-2.7h2.7V415.3z
		 M592.5,415.3h-3.3v-12.4c-1.2,1.1-2.6,2-4.3,2.5v-3c0.9-0.3,1.8-0.8,2.8-1.6c1-0.8,1.7-1.7,2.1-2.7h2.7V415.3z"/>
	<path class="st8" d="M376.6,405.8l-6.5-2.5v5L376.6,405.8z"/>
	<path class="st15" d="M376.6,405.8l-6.5-2.5v5L376.6,405.8z"/>
	<line class="st15" x1="270.2" y1="405.8" x2="376.6" y2="405.8"/>
	<rect x="303.4" y="391.3" class="st0" width="40" height="29"/>
	<path class="st8" d="M319.5,415.3h-3.3v-12.4c-1.2,1.1-2.6,2-4.3,2.5v-3c0.9-0.3,1.8-0.8,2.8-1.6c1-0.8,1.7-1.7,2.1-2.7h2.7V415.3z
		 M335.6,412.2v3.1H324c0.1-1.2,0.5-2.3,1.1-3.3s1.9-2.4,3.7-4.1c1.5-1.4,2.4-2.3,2.7-2.8c0.5-0.7,0.7-1.3,0.7-2
		c0-0.7-0.2-1.3-0.6-1.7c-0.4-0.4-0.9-0.6-1.6-0.6c-0.7,0-1.2,0.2-1.6,0.6s-0.6,1.1-0.7,2.1l-3.3-0.3c0.2-1.8,0.8-3.1,1.8-3.9
		c1-0.8,2.3-1.2,3.9-1.2c1.7,0,3,0.5,4,1.4c1,0.9,1.5,2,1.5,3.4c0,0.8-0.1,1.5-0.4,2.2c-0.3,0.7-0.7,1.4-1.3,2.2
		c-0.4,0.5-1.1,1.2-2.2,2.2c-1,1-1.7,1.6-2,1.9c-0.3,0.3-0.5,0.6-0.7,0.9H335.6z"/>
	<ellipse class="st0" cx="454.9" cy="405.8" rx="78.3" ry="80.4"/>
	<ellipse class="st16" cx="454.9" cy="405.8" rx="78.3" ry="80.4"/>
	<path d="M429.6,414.8l-3.6-15h3.1l2.3,10.3l2.8-10.3h3.6l2.6,10.5l2.3-10.5h3l-3.6,15h-3.2l-3-11.2l-3,11.2H429.6z M447.3,402.4
		v-2.7h2.9v2.7H447.3z M447.3,414.8v-10.9h2.9v10.9H447.3z M453.1,414.8v-15h4.5l2.7,10.3l2.7-10.3h4.5v15h-2.8v-11.8l-3,11.8h-2.9
		l-3-11.8v11.8H453.1z M470.6,402.4v-2.7h2.9v2.7H470.6z M470.6,414.8v-10.9h2.9v10.9H470.6z M475.4,411.7l2.9-0.4
		c0.1,0.6,0.4,1,0.7,1.3c0.4,0.3,0.9,0.4,1.6,0.4c0.7,0,1.3-0.1,1.7-0.4c0.3-0.2,0.4-0.4,0.4-0.8c0-0.2-0.1-0.4-0.2-0.5
		c-0.1-0.1-0.5-0.3-1-0.4c-2.3-0.5-3.8-1-4.4-1.4c-0.9-0.6-1.3-1.4-1.3-2.5c0-0.9,0.4-1.7,1.1-2.4c0.7-0.6,1.9-1,3.5-1
		c1.5,0,2.6,0.2,3.3,0.7c0.7,0.5,1.2,1.2,1.5,2.2l-2.7,0.5c-0.1-0.4-0.3-0.8-0.7-1c-0.3-0.2-0.8-0.3-1.4-0.3c-0.8,0-1.3,0.1-1.6,0.3
		c-0.2,0.2-0.3,0.4-0.3,0.6c0,0.2,0.1,0.4,0.3,0.5c0.3,0.2,1.2,0.5,2.7,0.8c1.5,0.3,2.6,0.8,3.2,1.3c0.6,0.5,0.9,1.2,0.9,2.1
		c0,1-0.4,1.9-1.3,2.6c-0.8,0.7-2.1,1.1-3.7,1.1c-1.5,0-2.7-0.3-3.5-0.9C476.2,413.5,475.7,412.7,475.4,411.7z"/>
</g>
</svg>
